<svg xmlns="http://www.w3.org/2000/svg" filter="url(#saturation)" viewBox="0 0 100 100"><path fill="#42a5f5" d="M50.001 8.216a16.998 16.998 0 0 0-16.998 16.998 16.998 16.998 0 0 0 4.945 11.974L24.73 58.093a16.998 16.998 0 0 0-3.175-.308A16.998 16.998 0 0 0 4.556 74.783 16.998 16.998 0 0 0 21.554 91.78a16.998 16.998 0 0 0 16.998-16.998 16.998 16.998 0 0 0-7.063-13.773l12.576-19.89a16.998 16.998 0 0 0 5.936 1.093 16.998 16.998 0 0 0 6.154-1.155l12.537 19.83a16.998 16.998 0 0 0-7.244 13.895 16.998 16.998 0 0 0 16.998 17 16.998 16.998 0 0 0 16.998-17 16.998 16.998 0 0 0-16.998-16.998 16.998 16.998 0 0 0-2.95.262L62.204 37.022a16.998 16.998 0 0 0 4.794-11.807A16.998 16.998 0 0 0 50 8.217z"/><filter id="a"><feColorMatrix in="SourceGraphic" result="hue" type="hueRotate" values="-10"/><feColorMatrix in="hue" result="sat" type="saturate" values="2"/></filter><filter id="saturation"><feColorMatrix in="SourceGraphic" type="hueRotate" values="-10" result="hue" /><feColorMatrix in="hue" type="saturate" values="2" result="sat" /></filter></svg>