<svg xmlns="http://www.w3.org/2000/svg" filter="url(#saturation)" preserveAspectRatio="xMidYMid" viewBox="0 0 256 256"><path fill="#00b3e0" fill-rule="evenodd" d="M127.7 17.36c61.5 0 110.9 49.42 110.9 110.34 0 61.5-49.4 110.9-110.9 110.9-60.92 0-110.34-49.4-110.34-110.9 0-60.92 49.42-110.34 110.34-110.34zm27.2 131.74c-12.2 15.8-34.4 18.7-49.5 6.5-14.99-11.5-17.14-33.6-5-49.5 12.9-14.98 35.1-17.84 50.2-6.38 15 12.18 17.2 34.38 4.3 49.38zm-58.76 72.3 42.26-40.8c-15.8 3.6-32.3.7-45.13-10-15.04-11.5-21.48-30.8-19.34-48.6l-37.95 41.4s-5.01-9.3-6.44-26.4l66.6-52.32c20.06-14.32 47.26-15.04 66.66 0 21.4 17.22 25.7 48.72 10 72.32L124 226.5c-7.1 0-21.4-2.2-27.86-5.1z"/><filter id="a"><feColorMatrix in="SourceGraphic" result="hue" type="hueRotate" values="-10"/><feColorMatrix in="hue" result="sat" type="saturate" values="2"/></filter><filter id="saturation"><feColorMatrix in="SourceGraphic" type="hueRotate" values="-10" result="hue" /><feColorMatrix in="hue" type="saturate" values="2" result="sat" /></filter></svg>