<svg xmlns="http://www.w3.org/2000/svg" filter="url(#saturation)" viewBox="0 0 24 24"><path fill="#00979c" d="M5.846 6.321C2.649 6.321 0 8.833 0 12c0 3.17 2.649 5.68 5.846 5.68 1.809 0 3.269-.66 4.334-1.64.73-.65 1.31-1.42 1.83-2.29.52.87 1.09 1.64 1.83 2.29 1.07.98 2.52 1.64 4.33 1.64 3.2 0 5.83-2.51 5.83-5.68 0-3.167-2.63-5.679-5.83-5.679-1.91 0-3.42.765-4.52 1.748-.64.655-1.17 1.31-1.64 1.971-.48-.661-1-1.316-1.65-1.971-1.104-.983-2.609-1.748-4.514-1.748zm0 1.966c1.421 0 2.332.437 3.169 1.312.661.541 1.235 1.421 1.805 2.291-.65 1.09-1.285 2.08-1.993 2.73-.786.66-1.6 1.09-2.928.98h-.053c-2.158 0-3.848-1.63-3.848-3.6 0-2.071 1.69-3.713 3.848-3.713zm12.324 0C20.32 8.287 22 9.929 22 12c0 1.97-1.68 3.6-3.83 3.6h-.06c-1.34.11-2.13-.32-2.92-.98-.71-.65-1.34-1.64-2-2.73.57-.87 1.15-1.75 1.81-2.291.83-.875 1.74-1.312 3.17-1.312zm-.58 1.963v1.1h-1.07v1.09h1.07v1.09h1.14v-1.09h1.09v-1.09h-1.09v-1.1zm-13.031.99v1.31h2.575v-1.31z" color="#000" style="-inkscape-stroke:none"/><filter id="a"><feColorMatrix in="SourceGraphic" result="hue" type="hueRotate" values="-10"/><feColorMatrix in="hue" result="sat" type="saturate" values="2"/></filter><filter id="saturation"><feColorMatrix in="SourceGraphic" type="hueRotate" values="-10" result="hue" /><feColorMatrix in="hue" type="saturate" values="2" result="sat" /></filter></svg>