<svg xmlns="http://www.w3.org/2000/svg" filter="url(#saturation)" viewBox="0 0 24 24"><path fill="#f44336" d="M13.15 2.239a.94.94 0 0 0-.37.074c-.19.079-.34.211-.45.372-.04.059-.07.124-.11.194L8.59 11.65h-3.5a.97.97 0 0 0-.964.97c0 .54.43.96.964.96h6.88c.53 0 .96-.42.96-.96 0-.53-.43-.97-.96-.97h-1.29l2.46-5.94 6.37 15.4c.2.49.76.73 1.26.52.49-.2.73-.76.52-1.25L14.03 2.835a.95.95 0 0 0-.88-.595zM3.588 15.29a.961.961 0 0 0-.964.96c0 .54.43.97.964.97H6.29l-1.323 3.2a.963.963 0 1 0 1.781.73l1.629-3.93h2.083a.965.965 0 1 0 0-1.93z" style="paint-order:fill markers stroke"/><filter id="a"><feColorMatrix in="SourceGraphic" result="hue" type="hueRotate" values="-10"/><feColorMatrix in="hue" result="sat" type="saturate" values="2"/></filter><filter id="saturation"><feColorMatrix in="SourceGraphic" type="hueRotate" values="-10" result="hue" /><feColorMatrix in="hue" type="saturate" values="2" result="sat" /></filter></svg>