<svg xmlns="http://www.w3.org/2000/svg" filter="url(#saturation)" viewBox="0 0 24 24"><defs><linearGradient id="b" x1="-31.824" x2="19.682" y1="-11.741" y2="35.548" gradientTransform="matrix(.4581 .00007 -.00007 .4991 11.28 2.931)" gradientUnits="userSpaceOnUse"><stop offset="0" stop-color="#C06FBB"/><stop offset="1" stop-color="#6E4D9B"/></linearGradient><linearGradient id="c" x1="12.022" x2="-15.716" y1="13.922" y2="-23.952" gradientTransform="matrix(.46 .00007 -.00007 .4967 12.22 13.57)" gradientUnits="userSpaceOnUse"><stop offset="0" stop-color="#6E4D9B"/><stop offset=".14" stop-color="#77327A"/><stop offset=".29" stop-color="#B31777"/><stop offset=".84" stop-color="#CD0F7E"/><stop offset="1" stop-color="#ED2C89"/></linearGradient><linearGradient id="d" x1="-23.39" x2="23.931" y1="-57.289" y2="8.573" gradientTransform="matrix(.4987 .00007 -.00007 .4584 8.355 16.75)" gradientUnits="userSpaceOnUse"><stop offset="0" stop-color="#C06FBB"/><stop offset="1" stop-color="#6E4D9B"/></linearGradient><linearGradient id="e" x1="-53.331" x2="6.771" y1="-30.517" y2="18.785" gradientTransform="matrix(.4776 .00007 -.00007 .4786 17.06 11.68)" gradientUnits="userSpaceOnUse"><stop offset="0" stop-color="#C06FBB"/><stop offset="1" stop-color="#6E4D9B"/></linearGradient><linearGradient id="f" x1="-14.029" x2="41.998" y1="-23.111" y2="26.259" gradientTransform="matrix(.4781 .00007 -.00007 .4779 2.602 8.115)" gradientUnits="userSpaceOnUse"><stop offset="0" stop-color="#C06FBB"/><stop offset="1" stop-color="#6E4D9B"/></linearGradient><linearGradient id="g" x1="31.177" x2="3.37" y1="41.442" y2="3.402" gradientTransform="matrix(.4601 .00007 -.00007 .4967 4.647 2.209)" gradientUnits="userSpaceOnUse"><stop offset="0" stop-color="#6E4D9B"/><stop offset=".14" stop-color="#77327A"/><stop offset=".29" stop-color="#B31777"/><stop offset=".84" stop-color="#CD0F7E"/><stop offset="1" stop-color="#ED2C89"/></linearGradient><linearGradient id="h" x1="-31.905" x2="19.599" y1="-14.258" y2="42.767" gradientTransform="matrix(.4581 .00007 -.00007 .4991 11.31 2.968)" gradientUnits="userSpaceOnUse"><stop offset="0" stop-color="#C06FBB"/><stop offset="1" stop-color="#6E4D9B"/></linearGradient><linearGradient id="i" x1="4.301" x2="34.534" y1="34.41" y2="4.514" gradientTransform="matrix(.4697 .0938 -.0934 .4679 4.783 1.431)" gradientUnits="userSpaceOnUse"><stop offset="0" stop-color="#6E4D9B"/><stop offset=".14" stop-color="#77327A"/><stop offset=".53" stop-color="#B31777"/><stop offset=".79" stop-color="#CD0F7E"/><stop offset="1" stop-color="#ED2C89"/></linearGradient></defs><path fill="url(#b)" d="M15.1 5.86 13.25 7.1l-1.92-2.867 1.86-1.239z"/><path fill="url(#c)" d="m16.61 14.47 3.17 4.75L16 21.75l-3.17-4.76-.56-.82 3.79-2.53z"/><path fill="url(#d)" d="m11.85 17.65.7 1.04-2.884 1.92-1.252-1.88.629-.41 2.257-1.5z"/><path fill="url(#e)" d="m18.18 12.23.8-.54 1.25 1.88-1.86 1.24-.69-1.05 1.05-.7zm-.5 1.53-.56-.83 1.06-.7.55.83z"/><path fill="url(#f)" d="m5.157 12.49-.629.42-1.912-2.86 2.877-1.925 1.34 2.015-2.248 1.49 2.248-1.49.573.85z"/><path fill="url(#g)" d="m11.59 6.96.58.858-3.785 2.522-.571-.859-3.143-4.71 3.78-2.522z"/><path fill="url(#h)" d="m14.29 6.399-1.05.701-.57-.858-1.34-2.01 1.86-1.239 1.9 2.867z"/><path fill="#714896" d="m9.596 19.14-.553-.82 2.257-1.5.55.83z"/><path fill="#6f4795" d="m17.68 13.76-.56-.83 1.06-.7.55.82z"/><path fill="#88519f" d="m5.157 12.49-.573-.85 2.248-1.5.573.85z"/><path fill="#85509e" d="m13.24 7.099-.57-.858 1.04-.701.58.857z"/><path fill="#8d166a" d="m16.61 14.47-3.78 2.52-.56-.82 3.79-2.53z"/><path fill="#a70d6f" d="m11.59 6.958.58.857-3.785 2.525-.571-.86z"/><path fill="#9e61ad" d="m4.083 6.272.713 1.068-1.068.713-.712-1.068z"/><path fill="#8053a3" d="m7.935 19.09.711 1.06-1.068.71-.711-1.06z"/><path fill="url(#i)" d="m5.125 20.17-3.13-4.72L18.73 4.253l3.28 4.654z"/><filter id="a"><feColorMatrix in="SourceGraphic" result="hue" type="hueRotate" values="-10"/><feColorMatrix in="hue" result="sat" type="saturate" values="2"/></filter><filter id="saturation"><feColorMatrix in="SourceGraphic" type="hueRotate" values="-10" result="hue" /><feColorMatrix in="hue" type="saturate" values="2" result="sat" /></filter></svg>