<svg xmlns="http://www.w3.org/2000/svg" filter="url(#saturation)" viewBox="0 0 24 24"><path fill="#1976d2" d="M12 1.993A10.01 10.01 0 0 0 2 12.01a10.01 10.01 0 0 0 10 10 10.01 10.01 0 0 0 10-10A10.01 10.01 0 0 0 12 1.993zm.17 4.422c.38 0 .77.101 1.05.295s.5.438.72.732l5.73 8.268H9l1.72-2.35h3.17c.27 0 .55.01.77.03-.16-.17-.27-.37-.44-.62s-.33-.49-.5-.71l-1.61-2.417-4.332 6.067H4.444l5.886-8.268c.17-.266.39-.499.73-.71.27-.211.61-.317 1.11-.317z"/><filter id="a"><feColorMatrix in="SourceGraphic" result="hue" type="hueRotate" values="-10"/><feColorMatrix in="hue" result="sat" type="saturate" values="2"/></filter><filter id="saturation"><feColorMatrix in="SourceGraphic" type="hueRotate" values="-10" result="hue" /><feColorMatrix in="hue" type="saturate" values="2" result="sat" /></filter></svg>