<svg xmlns="http://www.w3.org/2000/svg" filter="url(#saturation)" viewBox="0 0 40 40"><path fill="#64b5f6" d="M4.974 27.51h2.254v5.27h5.262v2.25H4.974z"/><path fill="#1565c0" d="M4.974 13.74v6.88l4.383 4.52 1.873-2.01 5.64 5.64-1.88 1.87 4.39 4.39h6.89c.69 0 1.24-.56 1.24-1.25V23.76L16.25 12.49H6.227c-.692 0-1.253.56-1.253 1.25z"/><path fill="#1e88e5" d="M10.4 23.05a1.25 1.25 0 0 1-.16-1.58L20.51 6.089a2.505 2.505 0 0 1 2.09-1.115h11.18c.69 0 1.24.561 1.24 1.252V17.41c0 .84-.41 1.62-1.11 2.08L18.53 29.76c-.49.33-1.16.27-1.58-.15z"/><path fill="#0a44c2" d="m11.22 26.93 9.56-9.56 1.85 1.85-9.56 9.56z"/><path fill="#64b5f6" d="m11.22 26.93 9.56-9.56 1.85 1.85-9.56 9.56z"/><path fill="#42a5f5" d="m14.6 27.26-1.86-1.86 8.04-8.03 1.85 1.85z"/><path fill="#0a44c2" d="M27.51 16.24a3.756 3.756 0 1 0 .009-7.509 3.756 3.756 0 0 0-.009 7.509z"/><path fill="#90caf9" d="M27.51 16.25c2.08 0 3.76-1.68 3.76-3.76a3.755 3.755 0 1 0-7.51 0c0 2.08 1.68 3.76 3.75 3.76z"/><filter id="a"><feColorMatrix in="SourceGraphic" result="hue" type="hueRotate" values="-10"/><feColorMatrix in="hue" result="sat" type="saturate" values="2"/></filter><filter id="saturation"><feColorMatrix in="SourceGraphic" type="hueRotate" values="-10" result="hue" /><feColorMatrix in="hue" type="saturate" values="2" result="sat" /></filter></svg>