<svg xmlns="http://www.w3.org/2000/svg" filter="url(#saturation)" viewBox="0 0 24 24"><defs><linearGradient id="b" x1="64.01" x2="32.99" y1="65.26" y2="89.48" gradientTransform="translate(1.009 -12.42) scale(.3522)" gradientUnits="userSpaceOnUse"><stop offset=".18" stop-color="#1565c0"/><stop offset="1" stop-color="#1e88e5"/></linearGradient></defs><path fill="#1e88e5" d="M1.713 2.11a.704.704 0 0 0-.704.816l2.99 18.154a.958.958 0 0 0 .938.8H19.29a.704.704 0 0 0 .69-.59l3.01-18.355a.704.704 0 0 0-.71-.816zM14.31 15.24H9.728L8.486 8.755h6.934z"/><path fill="url(#b)" d="M22.03 8.755h-6.61l-1.11 6.485H9.728l-5.409 6.41a.954.954 0 0 0 .618.24H19.29a.704.704 0 0 0 .7-.6z"/><filter id="a"><feColorMatrix in="SourceGraphic" result="hue" type="hueRotate" values="-10"/><feColorMatrix in="hue" result="sat" type="saturate" values="2"/></filter><filter id="saturation"><feColorMatrix in="SourceGraphic" type="hueRotate" values="-10" result="hue" /><feColorMatrix in="hue" type="saturate" values="2" result="sat" /></filter></svg>