<svg xmlns="http://www.w3.org/2000/svg" filter="url(#saturation)" viewBox="0 0 400 400"><path fill="#e53935" d="M225.3 33.03c-12.3-.68-23.5 8.71-32.8 16.64-3.3 2.82-6.6 5.64-10.1 8.28-4.8 3.52-9.9 6.42-15.2 8.97-5.7 2.64-12.3 5.64-18.6 5.9-.9 0-2.5.18-4.3.53-2.7.26-4.1.97-4.8 2.2-1 .88-1.7 2.11-1.5 3.69.1 2.2 1.2 4.05 2.3 5.46.4.09.6.26.9.35.6 2.02 1.2 4.23 1.7 6.6.1.97.3 2.03.9 2.99 2.3 5.96 7.8 9.26 13 12.36 3.2 1.9 8.9 3.7 12.4 5.2 4.6 1.8 14.4-.6 19.1-.9 10.7-.9 20.7-4.7 30.5 1-50.5 59.3-2.8 72.5 34.2 43.9 42.2-32.5 2.4-109.34 2.4-109.34s-.8-5.98-16.9-9.51c-1.5-.79-3-1.49-4.4-2.11-3-1.37-5.9-2.06-8.8-2.21zm48.4 14.42c-.3.02-.6.08-.8.2-4.6 2.55 4 20.06 5.1 23.23 6.5 19.36 10.6 39.82 5.9 60.12-6.2 26.7-26.7 45.5-54.1 47.8-15 1.2-30.2-.5-45.2 1.3-22.5 2.6-45.5 10.4-59.8 28.9-1.7 2.1-3.2 4.4-4.6 6.9h-.4c-5.5.6-11.1-1.8-13.8-3.2-.7-.5-1.4-.8-1.9-1.1-16.74-9.2-29.06-29.9-36.63-47-3.43-7.9-6.34-16.2-8.19-24.5-.88-3.8-.96-7.8-1.14-11.7-.09-2.3.26-5.7-1.06-7.8-2.9-4.6-6.6-.2-7.21 3.5-.97 6.1-1.85 12.1-1.59 18.2.44 10.4 3.35 20.7 7.04 30.4 5.46 14.3 13.12 27.4 23.06 39.1 4.14 4.8 8.54 9.3 13.29 13.4 4.22 3.8 9.63 6.8 12.73 11.7 3.7 5.5 4.3 12.4 4 18.8-.9 17-1.4 32.9 3.4 49.4 4.2 14.7 9.5 29.8 18.3 42.4 4.4 6.2 9.9 12.8 15.9 17.5 4 3.1 11.7 3.5 7.3-8.1-9.8-25.8-10.7-52.6 4.5-76.7 12.8-20 35.3-37.9 60.8-34.7 37.4 4.6 63.4 39 61.6 75.7-.6 10.3-.9 19.1-4.2 28.7-1.3 3.9-2.3 8.8-1.3 12.9 1.6 6.8 9.2 4.3 12.6-.2 9.1-12.3 18.6-24.3 27.1-37 27.8-41.5 41.4-89.5 36.3-139.4-1.3-13.1-4.2-26.3-8.3-38.8-11.9-35.4-34-71.76-61.9-96.84-1-.93-4.8-3.2-6.8-3.11z"/><filter id="a"><feColorMatrix in="SourceGraphic" result="hue" type="hueRotate" values="-10"/><feColorMatrix in="hue" result="sat" type="saturate" values="2"/></filter><filter id="saturation"><feColorMatrix in="SourceGraphic" type="hueRotate" values="-10" result="hue" /><feColorMatrix in="hue" type="saturate" values="2" result="sat" /></filter></svg>