<svg xmlns="http://www.w3.org/2000/svg" filter="url(#saturation)" viewBox="0 0 256 256"><path fill="#2d2d2d" d="M225.4 128a97.4 97.4 0 0 1-97.4 97.4A97.4 97.4 0 0 1 30.6 128 97.4 97.4 0 0 1 128 30.6a97.4 97.4 0 0 1 97.4 97.4z"/><path fill="#f9a825" d="M131 23.38C188.8 25 234.2 73.17 232.6 131 231 188.8 182.8 234.2 125 232.6 67.31 231 21.85 183 23.38 125.3 24.92 67.48 72.99 21.85 130.8 23.38zm-.6 10.82c-51.73-1.35-94.84 39.6-96.1 91.5-1.36 51.7 39.59 94.8 91.4 96.1 51.7 1.4 94.8-39.6 96.1-91.4 1.4-51.82-39.5-94.84-91.4-96.2.1 0 0 0 0 0z" class="st0"/><path fill="#f9a825" d="M137.9 93.403c-4.149 3.968-2.525 12.806 3.878 19.57s15.241 8.838 19.209 4.78c3.968-4.058 2.706-12.987-3.788-19.751-6.493-6.764-15.422-8.748-19.57-4.78zm52.217-25.162c8.207 8.568 14.43 18.758 18.398 29.851 0 0 2.706 7.395-5.862 7.395H181.73s-6.674-.54-6.944 5.14c-.451 7.035-.27 12.988-.27 12.988.27 4.058 1.803 8.026 4.328 11.183l21.554 22.727a9.184 9.184 0 0 1 1.082 12.355c-10.912 18.578-28.408 32.286-49.06 38.509-6.314 1.894-6.945-3.247-6.765-6.764 0-2.255 2.616-52.397 2.616-52.397.721-5.411-.992-10.912-4.78-14.881-6.764-7.215-11.003-11.814-11.003-11.814s-4.78-4.78-11.634-11.904c-3.788-3.878-9.018-5.862-14.43-5.501H54.027c-3.427 0-8.658-.812-6.403-7.035 7.305-20.292 21.915-37.066 41.124-46.896 3.878-2.705 9.199-1.984 12.265 1.714l21.554 22.727c3.066 2.705 6.944 4.329 11.003 4.78 0 0 5.862.45 12.987.36 5.591 0 5.501-6.764 5.501-6.764s.902-13.888 1.173-20.923c-.27-2.976 1.894-5.591 4.78-5.862.991-.09 1.893.09 2.795.451 11.003 4.69 21.013 11.634 29.22 20.292z" class="st0"/><filter id="a"><feColorMatrix in="SourceGraphic" result="hue" type="hueRotate" values="-10"/><feColorMatrix in="hue" result="sat" type="saturate" values="2"/></filter><filter id="saturation"><feColorMatrix in="SourceGraphic" type="hueRotate" values="-10" result="hue" /><feColorMatrix in="hue" type="saturate" values="2" result="sat" /></filter></svg>