<svg xmlns="http://www.w3.org/2000/svg" filter="url(#saturation)" viewBox="0 0 256 256"><path fill="#f9a825" d="M131 23.39C188.8 25.02 234.2 73.18 232.6 131 231 188.8 182.8 234.2 125 232.6 67.3 231 21.85 183 23.38 125.3 24.92 67.49 72.98 21.86 130.8 23.39zm-.6 10.83c-51.73-1.36-94.84 39.59-96.1 91.48-1.36 51.7 39.59 94.8 91.4 96.1 51.7 1.3 94.8-39.6 96.1-91.4 1.4-51.81-39.5-94.83-91.4-96.18.1 0 0 0 0 0z"/><path fill="#f9a825" d="M137.9 93.39c-4.1 3.97-2.5 12.81 3.9 19.61 6.4 6.7 15.2 8.8 19.2 4.8 4-4.1 2.7-13-3.8-19.81-6.5-6.76-15.4-8.75-19.6-4.78zm52.2-25.16c8.2 8.57 14.4 18.76 18.4 29.85 0 0 2.7 7.42-5.8 7.42h-21s-6.6-.6-6.9 5.1c-.5 7.1-.3 13-.3 13 .3 4.1 1.8 8 4.3 11.2l21.6 22.7c3.5 3.3 4 8.6 1.1 12.4-10.9 18.6-28.4 32.3-49.1 38.5-6.3 1.9-6.9-3.3-6.7-6.8 0-2.2 2.6-52.4 2.6-52.4.7-5.4-1-10.9-4.8-14.9-6.8-7.2-11-11.8-11-11.8s-4.8-4.7-11.6-11.9c-3.8-3.8-9.1-5.8-14.5-5.5H54.03c-3.43 0-8.66-.8-6.4-7.02 7.3-20.29 21.91-37.06 41.12-46.89 3.88-2.71 9.2-1.99 12.25 1.71l21.6 22.73c3 2.7 6.9 4.33 11 4.78 0 0 5.8.45 13 .36 5.5 0 5.5-6.77 5.5-6.77s.9-13.88 1.1-20.92c-.2-2.97 1.9-5.59 4.8-5.86 1-.09 1.9.09 2.8.45 11 4.69 21 11.63 29.2 20.29z"/><filter id="a"><feColorMatrix in="SourceGraphic" result="hue" type="hueRotate" values="-10"/><feColorMatrix in="hue" result="sat" type="saturate" values="2"/></filter><filter id="saturation"><feColorMatrix in="SourceGraphic" type="hueRotate" values="-10" result="hue" /><feColorMatrix in="hue" type="saturate" values="2" result="sat" /></filter></svg>