<svg xmlns="http://www.w3.org/2000/svg" filter="url(#saturation)" viewBox="0 0 400 400"><path fill="#543729" d="M376.8 196.3c-18.9-18.3-113.4-29.5-143.3-32.9 1.4-3.4 2.7-6.9 3.7-10.5 4-1.8 8.4-3.5 13-4.8.5 1.6 3.1 7.8 4.7 10.8 60 1.7 63-44.6 65.4-57.3 2.4-12.36 2.3-24.33 22.9-46.21-30.6-8.94-74.8 13.85-89.6 47.71-5.5-2-11.1-3.56-16.5-4.51-4-15.91-24.5-60.22-78.4-60.22-68.19 0-142.55 56.28-142.55 151.53 0 80.1 54.67 150.3 85.55 150.3 13.5 0 25.1-10.1 27.8-19.2 2.3 6.2 9.3 25.5 11.6 30.4 3.4 7.3 19.1 13.6 26 6 8.9 4.9 25.2 7.9 34-5.2 17 3.6 32.1-6.5 32.4-18.7 8.4-.4 12.5-12.2 10.7-21.5-1.3-6.9-15.7-31.6-21.4-40.1 11.1 9 39.3 11.5 42.7 0 17.9 14 45.8 6.6 48.1-4.8 21.7 5.7 46.6-6.8 42.5-21.8 35-2.4 30.5-39.6 20.7-49z"/><path fill="#00acee" d="M279.5 116.9c7.5-14.9 17-31.21 29-41.31-13.2 5.3-26.2 21.15-33.9 38.11-3.9-2.5-7.9-4.7-11.8-6.7 10.6-22.83 35.5-41.93 62.9-43.41-18.3 16.65-11.8 51.31-26.9 69.61-4.3-4.4-14.2-12.7-19.3-16.3zm-11.9 24.3c0-.5.3-4.9.7-7-1.1-.2-7.7-1.5-11.1-1.4-.2 4.3 1.8 11.6 3.9 16 13.9-.3 24-4.5 30-8.4-5.1-2.3-13.7-4.4-20.3-5.6-.7 1.5-2.5 5.3-3.2 6.4z"/><path fill="#2baf2b" d="M215.7 259.4s.1 0 .1.1c-1.8-3.8-3.7-8.4-5.9-14.4 8.7 12.6 36.1 6.1 34.7-5.3 13.4 10.1 40.9-1.7 34.6-15.8 13.5 6.3 28.8-6.3 25.4-11.9 22.8 4.4 44.8 8.9 51.7 10.7-4.6 7.4-15 12.7-30.7 9 8.5 11.5-8 25.4-30.9 17.8 5 11.3-15.4 21.5-38.6 9.7.2 11.3-28.9 12.7-40.4.1zm45.5-57.3c26.5 2 70.4 5.9 97.6 9.8-1.7-8.8-6.4-11.4-21.1-15.4-15.9 1.7-56.2 5.7-76.5 5.6z"/><path fill="#ffcc2f" d="M244.6 239.8c13.4 10.1 40.9-1.7 34.7-15.8 13.4 6.3 28.7-6.3 25.3-11.8-27.1-5.2-55.4-10.5-61.9-11.4 3.9.2 10.4.6 18.5 1.3 20.3.1 60.6-3.9 76.5-5.6-25.8-6.5-78.3-16-114.5-18.4-1.7 2.5-4.8 6.6-10.1 11.1-15.8 33.6-44.6 55.9-76.4 55.9-9.2 0-19.6-1.6-31.2-5.3-7.3 7.7-38.18 13.6-63.25 1.3 19.89 46.5 65.95 77.7 116.95 77.7 43 0 62.2-43.9 57.9-55.5-1-2.9-5-12.2-7.2-18.2 8.7 12.6 36.1 6.1 34.7-5.3z"/><path fill="#cecece" d="M218.5 151.5c3.8-2.1 16.9-10.1 29.4-13-.2-1.4-.3-2.8-.4-4.3-8.2 2-23.7 8.7-32.5-.5 18.6 5.7 28-5 41.8-5 8.1 0 19.8 2.3 29 5.9-7.4-6.8-31.7-27.5-61.7-27.5-6.7 8.1-14 25.7-5.6 44.4z"/><path fill="#ef5734" d="M105.5 239.8c11.6 3.7 22 5.3 31.2 5.3 31.8 0 60.6-22.3 76.4-55.9-11.8 9.8-32.1 18.2-64 18.2 28.4-6.5 52.8-20.6 65.2-41.3-8.7-13.9-18.2-44.6 5.8-68.87-3.7-11.85-21.6-43.13-61.3-43.13-69.43 0-126.9 58-126.9 135.8 0 18.4 3.72 35.7 10.35 51.2 25.07 12.3 55.95 6.4 63.25-1.3z"/><path fill="#ffcc2f" d="M126.2 121.4c0 17.7 14.4 32 32.1 32s32-14.3 32-32-14.3-32.06-32-32.06-32.1 14.36-32.1 32.06z"/><path fill="#543729" d="M139.1 121.4c0 10.6 8.6 19.1 19.2 19.1s19.2-8.5 19.2-19.1-8.6-19.2-19.2-19.2-19.2 8.6-19.2 19.2z"/><ellipse cx="158.3" cy="112.9" fill="#fff" rx="11.17" ry="6.948"/><filter id="a"><feColorMatrix in="SourceGraphic" result="hue" type="hueRotate" values="-10"/><feColorMatrix in="hue" result="sat" type="saturate" values="2"/></filter><filter id="saturation"><feColorMatrix in="SourceGraphic" type="hueRotate" values="-10" result="hue" /><feColorMatrix in="hue" type="saturate" values="2" result="sat" /></filter></svg>