<svg xmlns="http://www.w3.org/2000/svg" filter="url(#saturation)" viewBox="0 0 140 140"><path fill="#ffca28" d="M129.8 70A59.83 59.83 0 0 1 70 129.8 59.83 59.83 0 0 1 10.17 70 59.83 59.83 0 0 1 70 10.17 59.83 59.83 0 0 1 129.8 70Z"/><path fill="#2d2d2d" d="M65.17 18.96c-4.89 3.46-8.86 8.5-11.79 14.25-2.2-2.28-4.19-5.05-6.11-8.66-3.32 4.98-5.22 11.09-5.9 17.49-2.8-1.33-5.6-3.18-8.63-5.82-1.32 5.84-.9 12.23.77 18.45-3.17-.22-6.51-.96-10.37-2.36.87 5.91 3.55 11.73 7.33 16.95-2.97.89-6.28 1.39-10.3 1.45 2.94 5.24 7.55 9.71 12.99 13.24-2.52 1.95-5.49 3.64-9.31 5.2 4.59 3.8 10.48 6.33 16.77 7.67-1.62 2.66-3.74 5.18-6.67 7.98 5.65 1.9 12.03 2.1 18.38 1.2-.56 3-1.63 6.3-3.42 9.9h.01c5.97-.2 12.04-2.3 17.61-5.5.61 3.1.76 6.5.4 10.6 12.05-5.2 21.41-18.6 24.71-31.94.89-2.41 1.37-5.89 1.37-10.71 0-1.29-.03-2.53-.06-3.75 9.75-1.65 16.85-5 20.95-7.39 1.5-.87 3-2.15 3.5-3.21a5.128 5.128 0 0 0-3.7-8.43 5.128 5.128 0 0 0-5.2 3.88c-7.9-4.13-17.02-12.48-14.82-24.56 1.66-2.29 3.96-4.59 7.12-7-5.93-.71-12.26.39-18.29 2.69-.09-3.12.28-6.49 1.27-10.42-5.78 1.48-11.27 4.73-16.05 9.01-1.22-2.89-2.06-6.17-2.56-10.21zm26.45 19.55c0 6.13 2.66 11.63 7.42 16.28 4.36 4.28 10.46 7.56 15.26 8.79.3.34.3.73 0 1.29-.4.3-.8.61-1.3.88-4.6 2.7-10.3 5.01-16.88 6.5-1.08.23-2.16.45-3.25.65-.27-4.95-.84-9.25-1.42-13.12a3.419 3.419 0 1 0-.1-6.71 2.138 2.138 0 0 1-.28 4.18c-1.11-7.43-1.84-13.22.55-18.74z"/><filter id="a"><feColorMatrix in="SourceGraphic" result="hue" type="hueRotate" values="-10"/><feColorMatrix in="hue" result="sat" type="saturate" values="2"/></filter><filter id="saturation"><feColorMatrix in="SourceGraphic" type="hueRotate" values="-10" result="hue" /><feColorMatrix in="hue" type="saturate" values="2" result="sat" /></filter></svg>