<svg xmlns="http://www.w3.org/2000/svg" filter="url(#saturation)" viewBox="0 0 140 140"><path fill="#ffca28" d="M70 10.18A59.83 59.83 0 0 0 10.18 70 59.83 59.83 0 0 0 70 129.8 59.83 59.83 0 0 0 129.8 70 59.83 59.83 0 0 0 70 10.18zm-4.83 8.78c.49 4.04 1.35 7.32 2.57 10.22 4.78-4.28 10.27-7.54 16.04-9.02-.98 3.94-1.36 7.3-1.26 10.43 6.03-2.31 12.35-3.4 18.28-2.7-3.16 2.41-5.46 4.71-7.11 7.01-2.2 12.08 6.91 20.43 14.81 24.55a5.128 5.128 0 0 1 5.2-3.88 5.128 5.128 0 0 1 3.7 8.43c-.5 1.06-2 2.35-3.5 3.22-4.1 2.39-11.2 5.74-20.96 7.39.05 1.22.08 2.45.08 3.75 0 4.82-.49 8.29-1.39 10.7-3.3 13.34-12.64 26.74-24.69 31.94.36-4.1.2-7.5-.4-10.6-5.58 3.2-11.65 5.3-17.63 5.5 1.79-3.6 2.86-6.9 3.41-9.9-6.34.9-12.72.7-18.37-1.2 2.93-2.8 5.05-5.32 6.67-7.97-6.29-1.34-12.17-3.87-16.76-7.68 3.82-1.55 6.79-3.24 9.29-5.2-5.42-3.52-10.03-8-12.97-13.23 4.02-.07 7.32-.57 10.3-1.46-3.78-5.21-6.47-11.03-7.33-16.95 3.86 1.41 7.2 2.14 10.36 2.36-1.66-6.22-2.08-12.61-.77-18.44 3.03 2.64 5.83 4.48 8.63 5.82.68-6.41 2.58-12.52 5.9-17.5 1.92 3.62 3.91 6.39 6.11 8.67 2.93-5.75 6.9-10.79 11.79-14.26zm26.46 19.56c-2.39 5.51-1.66 11.3-.55 18.73a2.138 2.138 0 0 0 .28-4.18 3.419 3.419 0 1 1 .09 6.71c.57 3.88 1.16 8.18 1.42 13.12 1.1-.19 2.18-.41 3.25-.65 6.58-1.49 12.28-3.8 16.88-6.5.5-.27.9-.57 1.3-.87.3-.56.3-.96 0-1.29-4.8-1.24-10.9-4.53-15.25-8.79-4.77-4.65-7.43-10.17-7.42-16.28z"/><filter id="a"><feColorMatrix in="SourceGraphic" result="hue" type="hueRotate" values="-10"/><feColorMatrix in="hue" result="sat" type="saturate" values="2"/></filter><filter id="saturation"><feColorMatrix in="SourceGraphic" type="hueRotate" values="-10" result="hue" /><feColorMatrix in="hue" type="saturate" values="2" result="sat" /></filter></svg>