<svg xmlns="http://www.w3.org/2000/svg" filter="url(#saturation)" viewBox="0 0 256 256"><path fill="#64dd17" d="M123.4 130c-1 2.3-2.2 5-3.5 7.8-4.4 10-9.3 22.1-11.1 29.9-.6 2.8-1 6.2-1 10.1 0 1.5.1 3 .3 4.6 6.1 2.3 12.9 3.6 19.9 3.6 6.4 0 12.5-1.1 18.3-3-1.3-1.2-2.7-2.6-3.8-4-7.8-10-12.1-24.6-19.1-49M94.67 80.58C79.78 91.08 70.04 108.3 70 128c.04 19.3 9.48 36.4 24 46.9 3.56-14.8 12.5-28.3 25.8-55.6-.7-2.1-1.7-4.6-2.6-7.1-3.7-9.3-9.1-20.08-13.9-24.97-2.4-2.55-5.37-4.76-8.63-6.65"/><path fill="#7cb342" d="M178.5 194.6c-7.6-1-14-2.2-19.5-4.1-9.4 4.6-19.9 7.2-31 7.2-38.49 0-69.69-31.2-69.69-69.7 0-20.9 9.2-39.62 23.75-52.39-3.88-.94-7.95-1.49-12.1-1.48-20.44.19-42.03 11.5-51.02 42.07-.84 4.5-.64 7.8-.64 11.8 0 60.6 49.12 109.7 109.7 109.7 37.1 0 69.9-18.4 89.7-46.7-10.7 2.8-21 4-29.9 4-3.3 0-6.4-.2-9.3-.4"/><path fill="#29b6f6" d="M158 173.3c.6.3 2.1.9 4.2 1.4 14.4-10.5 23.8-27.5 23.8-46.7-.1-32.04-26-57.95-58-58.01-6.4 0-12.4 1.06-18.2 2.95 11.7 13.43 17.4 32.66 22.9 53.66 0 0 1.7 5.8 4.8 13.5 2.9 7.7 7.2 17.3 11.8 24.2 3.1 4.7 6.4 8 8.7 9"/><path fill="#1e88e5" d="M128 18.29c-36.74 0-69.25 18.08-89.15 45.82 10.36-6.48 20.94-8.82 30.17-8.74 12.75.04 22.78 3.98 27.59 6.7 1.16.66 2.26 1.38 3.34 2.12A69.4 69.4 0 0 1 128 58.3c38.5 0 69.7 31.2 69.7 69.7 0 19.4-8 37-20.8 49.6 3.2.4 6.6.6 10 .6 12.1 0 25.3-2.7 35.1-11.1 6.4-5.4 11.8-13.2 14.8-25.1.5-4.6.9-9.3.9-14 0-60.58-49.1-109.71-109.7-109.71"/><filter id="a"><feColorMatrix in="SourceGraphic" result="hue" type="hueRotate" values="-10"/><feColorMatrix in="hue" result="sat" type="saturate" values="2"/></filter><filter id="saturation"><feColorMatrix in="SourceGraphic" type="hueRotate" values="-10" result="hue" /><feColorMatrix in="hue" type="saturate" values="2" result="sat" /></filter></svg>