<svg xmlns="http://www.w3.org/2000/svg" filter="url(#saturation)" viewBox="0 0 800 800"><defs><linearGradient id="b" x1="541.95" x2="423.91" y1="120.67" y2="946.97" gradientTransform="translate(978.3 -208.8)" gradientUnits="userSpaceOnUse"><stop offset="0" stop-color="#00b2e3"/><stop offset=".13" stop-color="#00b2e3"/><stop offset="1" stop-color="#2e5797"/></linearGradient></defs><path fill="url(#b)" d="M478.3 330c22.2-18.1 36-43.7 35.7-72.1-.5-54-51.5-97.5-114-97.5s-113.6 43.5-114.1 97.5c-.2 28.4 13.5 54 35.7 72.1 27.5 22.4 50 67.6 51.3 117.1 1.5 54.8-2.2 118.3-4.6 150.5-29.3 4.2-50 14-50 25.5 0 15.2 36.6 32.7 81.7 32.7 45 0 81.6-17.5 81.6-32.7 0-11.5-20.7-21.3-50-25.5-2.3-32.3-6.1-95.7-4.6-150.5 1.3-49.5 23.8-94.7 51.3-117.1z"/><path fill="#898989" d="M616.5 649.1c4.3-1.8 8.8-3.1 13.5-4 5.1-1.1 10.3-1.7 15.6-1.8 5.3-.2-.3-1.8-.6-4.4-.2-2.6-1.4-6.1-2.5-9.5-.6-1.6-1.2-3.3-1.8-4.8-.7-1.6-1.6-3-2.2-4.2l-2.2-4c-5.4-.9-10.8-2.1-16.1-3.7-5-1.3-9.8-3-14.6-5-8.2-3.6-16-7.7-20.1-12.2-4.9-4.3-5.8-8.6-5.7-12.5.3-2.1 1.3-4 2.7-5.6 1.6-1.9 3.6-3.4 5.8-4.5 2.3-1.1-2-1.1-4.9-2.8-1.4-.8-3.1-1.7-4.9-2.7-1.9-.9-4.1-1.9-6.2-2.9-4.1-2-8.2-3.9-11.6-5.2l-5.5-2.2c-4.2.5-8.4.8-12.6.9-4.6.1-9.2 0-13.7-.4-8.9-.8-17.9-2-25.7-4.3-3.5-.9-7-2.1-10.4-3.6-2.7-1.2-5.4-2.5-7.8-4.1-4.1-3-6.9-6.1-6.9-9.1l-6.2-1c-3.8-.6-12-1.7-17.2-2.4-.1.9-.6 1.7-.9 3.1l-1.3 6.4c-2.7 12.7 4.7 25.6 17.2 29.3 30.6 8.9 53.8 23.6 60.4 41.6 13.6 36.4-43.2 72.1-129.5 72.1-86.4 0-143.1-35.7-129.6-72.1 6.5-17.6 28.7-32 58.2-41 13.1-4.1 20.9-17.4 18.1-30.8l-1.9-8.6c-3.4.4-7.4.8-11.5 1.4-5.1.5-10 1.5-13.7 2-3.8.6-6.3 1.1-6.3 1.1.2 3-1.9 6.3-5.9 9.2-2.3 1.6-4.8 3-7.3 4.3-3.3 1.4-6.7 2.7-10.1 3.8-4 1.2-8.2 2.1-12.3 2.8-4.4.8-8.8 1.4-13.3 1.7-9.1.8-18.3.9-26.7-.1l-1.5.6c-.9.4-2.4 1-3.9 1.7-3 1.4-7.2 3.4-11.3 5.4-4.2 2-7.8 4.3-10.7 5.9l-3.6 2c-.7.5-1.2.8-1.2.8 5.8 2.6 9 6.3 9.6 10.1 1.5 4.1-.5 8.3-4.3 12.9-2.4 2.5-5.2 4.7-8.1 6.7-3.6 2.4-7.5 4.5-11.6 6.2-9.7 4.4-20 7.6-30.6 9.4-.7 1.3-1.3 2.7-1.8 4.1-.8 2.5-2 5.9-3.2 9.3-.5 3.4-1 6.9-1.4 9.6-.3 1.5-.4 3-.2 4.5 11.9.1 22.5 2.1 30.5 5.3 9.2 3.1 14.8 7.6 19.1 13.2 3.4 6 4.7 12.3 1.8 19.6-2.2 7.1-8 15-17.4 22.2l1.4 1.2c1.1.8 2.6 1.9 4.4 3.2 3.8 2.5 8.5 6.2 14.1 9.5 5.8 3.2 11.8 6.5 16.3 9 2.2 1.2 4.5 2 5.9 2.7 1.4.6 2.3 1 2.3 1 13.3-5.7 27.6-8.7 42-10.2 6.9-.7 13.9-.9 20.8-.5s13.8.9 20.4 2.5c6.4 1.7 12.7 3.3 18.2 5.7 5.4 2.5 10.5 5.4 15.3 8.7 9.5 6.4 16.7 15.5 19.8 25l12.2.5c7.3.2 17 .9 26.7.4 9.7-.4 19.4-.5 26.7-1 7.1-.7 11.8-1.1 11.8-1.1 1.1-5 3.2-9.8 6.3-13.9 1.5-2.2 3.2-4.1 5-6 5.7-6.2 12.7-11.1 20.4-14.4 5.6-2.8 11.5-4.9 17.5-6.3 6.7-1.3 13-2.7 19.8-3.1 6.8-.5 14-.3 20.8 0 14.5.9 28.8 3.9 42.4 9l7.4-4.1c4.2-2.5 10.3-5.5 14.9-9.2 4.8-3.5 9.8-6.9 12.8-9.7s4.9-4.6 4.9-4.6c-9.9-6.8-15.6-14.2-19.3-21.4-1.5-3.1-2.2-6.6-2.3-10-.3-3.2.5-6.5 2.3-9.2 2.6-5.8 9.2-10.1 16.7-13.5M324.7 469.9s12.8-48.5-42.9-111.2l-1.8-1.9c-23.5-27.8-36.4-63-36.4-99.4 0-85.1 69.4-154.4 154.6-154.4h3.5c85.3 0 154.6 69.3 154.6 154.4 0 36.4-12.9 71.5-36.3 99.3-.3.3-.9 1-1.9 1.9-49.4 49.6-42.9 111.3-42.9 111.3 90.3-31.1 151.3-116 151.8-211.2.7-119.1-95.4-220.55-214.2-226.25-1.5-.07-2.9-.09-4.4-.09-1.7 0-8.5.13-8.4.13-.2 0-6.6-.13-8.4-.13-1.5 0-3 0-4.4.09-118.8 5.7-214.9 107.15-214.3 226.25.5 95.2 61.5 180.1 151.8 211.2z"/><filter id="a"><feColorMatrix in="SourceGraphic" result="hue" type="hueRotate" values="-10"/><feColorMatrix in="hue" result="sat" type="saturate" values="2"/></filter><filter id="saturation"><feColorMatrix in="SourceGraphic" type="hueRotate" values="-10" result="hue" /><feColorMatrix in="hue" type="saturate" values="2" result="sat" /></filter></svg>