<svg xmlns="http://www.w3.org/2000/svg" filter="url(#saturation)" viewBox="0 0 24 24"><path fill="#0d3858" stroke="#4dd0e1" stroke-width=".7" d="M21.74 2.257V21.74H2.257V2.257z"/><path fill="#4dd0e1" d="M12.57 16.07q-.83.44-2.06.44-1.59 0-2.546-1.02-.955-1.03-.955-2.69 0-1.78 1.075-2.885 1.075-1.101 2.726-1.101 1.06 0 1.76.306v.93q-.8-.447-1.77-.447-1.283 0-2.083.857-.794.86-.794 2.29 0 1.36.742 2.17.748.81 1.955.81 1.13 0 1.95-.5zM16.99 8.45q-.27-.156-.63-.156-.99 0-.99 1.255v.911h1.39v.81h-1.39v5.12h-.94v-5.12h-1.02v-.81h1.02v-.957q0-.932.53-1.469.54-.544 1.34-.544.44 0 .69.104z"/><filter id="a"><feColorMatrix in="SourceGraphic" result="hue" type="hueRotate" values="-10"/><feColorMatrix in="hue" result="sat" type="saturate" values="2"/></filter><filter id="saturation"><feColorMatrix in="SourceGraphic" type="hueRotate" values="-10" result="hue" /><feColorMatrix in="hue" type="saturate" values="2" result="sat" /></filter></svg>