<svg xmlns="http://www.w3.org/2000/svg" filter="url(#saturation)" viewBox="0 0 200 200"><path fill="#37474f" d="m179.4 121.7-57.7 57.5c-.2.2-.5.3-.8.2l-78.68-21.1c-.35-.1-.58-.3-.58-.5l-21.2-78.65c-.12-.35 0-.58.23-.81l57.62-57.51c.23-.23.58-.35.81-.23l78.7 21.09c.4.12.6.35.6.58l21.1 78.63c.2.3.1.6-.1.8zm-77.2-62.61L24.82 79.72c-.12 0-.24.23-.12.35l56.59 56.53c.11.1.34.1.34-.2l20.77-77.19c.1 0-.1-.23-.2-.12z"/><filter id="a"><feColorMatrix in="SourceGraphic" result="hue" type="hueRotate" values="-10"/><feColorMatrix in="hue" result="sat" type="saturate" values="2"/></filter><filter id="saturation"><feColorMatrix in="SourceGraphic" type="hueRotate" values="-10" result="hue" /><feColorMatrix in="hue" type="saturate" values="2" result="sat" /></filter></svg>