<svg xmlns="http://www.w3.org/2000/svg" width="16" height="16" fill="none"><path fill="#AEE33E" d="M6.477 6.387v-.722c.07-.006.14-.01.212-.012 1.962-.061 3.249 1.699 3.249 1.699s-1.39 1.943-2.88 1.943a1.788 1.788 0 0 1-.58-.093v-2.19c.763.093.916.432 1.376 1.204l1.021-.868a2.708 2.708 0 0 0-2.002-.984 3.66 3.66 0 0 0-.396.023m0-2.387v1.08c.07-.006.141-.01.212-.014 2.728-.092 4.506 2.255 4.506 2.255s-2.042 2.5-4.169 2.5a3.15 3.15 0 0 1-.549-.048v.667c.152.02.305.03.458.03 1.979 0 3.41-1.018 4.796-2.223.23.185 1.17.636 1.364.834-1.318 1.111-4.39 2.007-6.129 2.007-.168 0-.33-.01-.487-.026V12H14V4zm0 5.203v.57C4.647 9.444 4.14 7.528 4.14 7.528a3.946 3.946 0 0 1 2.338-1.14v.625h-.002a1.746 1.746 0 0 0-1.365.629s.335 1.213 1.367 1.563m-3.25-1.76a4.508 4.508 0 0 1 3.251-1.78v-.586C4.077 5.273 2 7.321 2 7.321s1.177 3.428 4.477 3.741v-.622c-2.42-.307-3.25-2.996-3.25-2.996"/></svg>