<svg xmlns="http://www.w3.org/2000/svg" filter="url(#saturation)" viewBox="0 0 24 24"><g fill="#f44336"><ellipse cx="16.16" cy="8.981" rx="3.374" ry="3.309"/><ellipse cx="20.78" cy="5.332" rx="1.209" ry="1.213"/><path d="M2.435 4.541c-.24.03-.429.26-.429.54L2.02 19.22c0 .21.045.66.565.66l4.59-.03c1.32 0 2.2-.02 2.72-.1h.01c.515-.08 1.045-.24 1.615-.45 1-.37 1.9-.92 2.66-1.65.76-.71 1.34-1.54 1.74-2.49.41-.94.62-1.94.62-2.97-.01-1.44-.37-2.779-1.12-3.989a7.227 7.227 0 0 0-2.99-2.76c-1.26-.63-2.915-.92-4.965-.91l-4.96.01c-.02 0-.04-.01-.07 0zm2.68 2.91 2.14-.01c1 0 1.71.04 2.11.1.41.07.855.21 1.335.42.47.21.88.47 1.24.8.96.88 1.42 1.929 1.42 3.329.01 1.42-.44 2.53-1.38 3.46-.29.28-.61.52-.97.72-.34.19-.78.34-1.335.48-.53.13-1.32.19-2.35.2h-2.2z"/></g><filter id="a"><feColorMatrix in="SourceGraphic" result="hue" type="hueRotate" values="-10"/><feColorMatrix in="hue" result="sat" type="saturate" values="2"/></filter><filter id="saturation"><feColorMatrix in="SourceGraphic" type="hueRotate" values="-10" result="hue" /><feColorMatrix in="hue" type="saturate" values="2" result="sat" /></filter></svg>