<svg xmlns="http://www.w3.org/2000/svg" filter="url(#saturation)" viewBox="0 0 24 24"><path fill="#66c3fa" d="M12.62 1.566a.99.99 0 0 0-.69.281c0 .003 0 .004-.01.007L5.538 5.546l6.372 6.374 7.66 7.66 1.46-2.63-5.27-12.639-2.45-2.457a.99.99 0 0 0-.69-.288z"/><path fill="#215896" d="M5.554 5.531 1.863 11.91c-.003.01-.004.01-.007.01-.186.19-.282.44-.282.69s.097.49.288.68l3.059 3.07 11.959 4.7 2.71-1.5-.08-.07h-.02l-7.5-7.51-6.436-6.448z"/><path fill="#235997" d="m5.537 5.535 6.513 6.525h.01l7.5 7.51 2.86-.55v-8.44l-3.01-2.959c-.66-.647-1.68-1.064-2.7-1.201l.01-.033-11.182-.852z"/><path fill="#58b6f0" d="m5.545 5.542 6.525 6.518v.01l7.5 7.51-.54 2.85h-8.45l-2.955-3.01c-.647-.66-1.064-1.68-1.2-2.7h-.033L5.546 5.542z"/><filter id="a"><feColorMatrix in="SourceGraphic" result="hue" type="hueRotate" values="-10"/><feColorMatrix in="hue" result="sat" type="saturate" values="2"/></filter><filter id="saturation"><feColorMatrix in="SourceGraphic" type="hueRotate" values="-10" result="hue" /><feColorMatrix in="hue" type="saturate" values="2" result="sat" /></filter></svg>