<svg xmlns="http://www.w3.org/2000/svg" filter="url(#saturation)" viewBox="0 0 24 24"><path d="M3.5 1.5c-1.11 0-2 .89-2 2v11c0 1.11.89 2 2 2h2v-2h-2v-11h11v2h2v-2c0-1.11-.89-2-2-2h-11m6 6c-1.11 0-2 .89-2 2v2h2v-2h2v-2h-2m4 0v2h1v1h2v-3h-3m5 0v2h2v11h-11v-2h-2v2c0 1.11.89 2 2 2h11c1.11 0 2-.89 2-2v-11c0-1.11-.89-2-2-2h-2m-4 5v2h-2v2h2c1.11 0 2-.89 2-2v-2h-2m-7 1v3h3v-2h-1v-1z" style="fill:#42a5f5"/><filter id="a"><feColorMatrix in="SourceGraphic" result="hue" type="hueRotate" values="-10"/><feColorMatrix in="hue" result="sat" type="saturate" values="2"/></filter><filter id="saturation"><feColorMatrix in="SourceGraphic" type="hueRotate" values="-10" result="hue" /><feColorMatrix in="hue" type="saturate" values="2" result="sat" /></filter></svg>