<svg xmlns="http://www.w3.org/2000/svg" filter="url(#saturation)" viewBox="0 0 300 300"><path fill="#43a047" d="M141.1 25.07H182V214.3c-21 4-36.4 5.5-53.1 5.5-49.9 0-75.92-22.5-75.92-65.8 0-41.7 27.61-68.74 70.32-68.74 6.7 0 11.7.53 17.8 2.13zm0 95.23c-4.8-1.6-8.7-2.1-13.8-2.1-20.7 0-32.65 12.7-32.65 35 0 21.8 11.45 33.7 32.35 33.7 4.6 0 8.3-.2 14.1-1z"/><path fill="#43a047" d="M247.1 88.18v94.72c0 32.7-2.4 48.3-9.6 61.9-6.7 13-15.4 21.3-33.5 30.3L166.1 257c18-8.5 26.8-15.9 32.3-27.4 5.9-11.6 7.7-25.2 7.7-60.7V88.18zm-41-62.91h41v41.94h-41z"/><filter id="a"><feColorMatrix in="SourceGraphic" result="hue" type="hueRotate" values="-10"/><feColorMatrix in="hue" result="sat" type="saturate" values="2"/></filter><filter id="saturation"><feColorMatrix in="SourceGraphic" type="hueRotate" values="-10" result="hue" /><feColorMatrix in="hue" type="saturate" values="2" result="sat" /></filter></svg>