<svg xmlns="http://www.w3.org/2000/svg" filter="url(#saturation)" viewBox="0 0 24 24"><path fill="#0087c9" d="M22.75 10.9a3.486 3.486 0 0 0-2.62-.31 3.385 3.385 0 0 0-1.42-2.229l-.29-.22-.23.28a3.072 3.072 0 0 0-.56 2.169 3.038 3.038 0 0 0 .51 1.41c-.22.12-.51.24-.74.35a4.798 4.798 0 0 1-1.53.23H1.126l-.093.32a6.414 6.414 0 0 0 .516 3.23l.22.4v.06c1.371 2.28 3.817 3.3 6.491 3.3 5.08 0 9.31-2.22 11.32-6.99 1.31.05 2.63-.3 3.25-1.54l.17-.28zm-17.3 5.92a1.193 1.193 0 0 1-1.193-1.16 1.193 1.193 0 0 1 2.386 0 1.193 1.193 0 0 1-1.193 1.16zm7.34-7.079h-2.22v2.209h2.22zm0-2.784h-2.22v2.217h2.22zm0-2.852h-2.22v2.226h2.22zm2.73 5.636H13.3v2.209h2.22zm-8.25 0H5.053v2.209H7.27zm2.79 0H7.803v2.209h2.227zm-5.524 0H2.319v2.209h2.217zm5.524-2.784H7.803v2.217h2.227zm-2.79 0H5.053v2.217H7.27V6.923z"/><filter id="a"><feColorMatrix in="SourceGraphic" result="hue" type="hueRotate" values="-10"/><feColorMatrix in="hue" result="sat" type="saturate" values="2"/></filter><filter id="saturation"><feColorMatrix in="SourceGraphic" type="hueRotate" values="-10" result="hue" /><feColorMatrix in="hue" type="saturate" values="2" result="sat" /></filter></svg>