<svg xmlns="http://www.w3.org/2000/svg" filter="url(#saturation)" viewBox="0 0 400 400"><path fill="#2196f3" fill-opacity=".604" d="M196.03 312.33c-35.544-10.271-66.146-31.185-85.075-58.141-18.928-26.956-24.632-57.747-15.858-85.598 8.775-27.851 31.31-50.482 62.648-62.913 31.338-12.432 68.911-13.646 104.46-3.375 35.544 10.27 66.146 31.184 85.074 58.14 18.929 26.957 24.633 57.747 15.858 85.598-8.774 27.852-31.309 50.482-62.647 62.914-31.338 12.431-68.912 13.645-104.46 3.375z"/><path fill="#2196f3" fill-opacity=".604" d="M137.88 297.29c-35.544-10.271-66.146-31.184-85.074-58.141-18.928-26.956-24.633-57.746-15.858-85.598 8.775-27.851 31.31-50.481 62.648-62.913 31.338-12.432 68.911-13.646 104.46-3.375s66.146 31.185 85.074 58.141c18.929 26.956 24.633 57.746 15.859 85.598-8.775 27.851-31.31 50.482-62.648 62.913-31.338 12.432-68.911 13.646-104.46 3.375z"/><path fill="#2196f3" fill-opacity=".604" d="M101.32 139.88c10.27-35.543 31.184-66.146 58.14-85.074 26.957-18.928 57.747-24.633 85.598-15.858 27.852 8.775 50.482 31.31 62.914 62.647 12.431 31.338 13.645 68.912 3.375 104.46-10.271 35.544-31.185 66.146-58.141 85.075-26.956 18.928-57.747 24.633-85.598 15.858s-50.482-31.31-62.913-62.648c-12.432-31.337-13.646-68.911-3.375-104.46z"/><path fill="#2196f3" fill-opacity=".604" d="M89.616 194.05c10.27-35.544 31.184-66.146 58.14-85.075 26.956-18.928 57.747-24.633 85.598-15.858 27.852 8.775 50.482 31.31 62.914 62.648 12.431 31.337 13.645 68.911 3.374 104.46-10.27 35.544-31.184 66.146-58.14 85.074-26.956 18.929-57.747 24.633-85.598 15.858-27.851-8.774-50.482-31.309-62.914-62.647-12.431-31.338-13.645-68.912-3.375-104.46z"/><filter id="a"><feColorMatrix in="SourceGraphic" result="hue" type="hueRotate" values="-10"/><feColorMatrix in="hue" result="sat" type="saturate" values="2"/></filter><filter id="saturation"><feColorMatrix in="SourceGraphic" type="hueRotate" values="-10" result="hue" /><feColorMatrix in="hue" type="saturate" values="2" result="sat" /></filter></svg>