<svg xmlns="http://www.w3.org/2000/svg" filter="url(#saturation)" viewBox="0 0 24 24"><path fill="#f0f4f6" d="m2.234 9.701 1.358-.902V7.355l-1.54-.3a.461.461 0 0 0-.526.608L2.238 9.7z"/><path fill="#9dacb9" d="m4.969 17.014 2.758-4.24.016-4.61-4.155-.805-1.354 2.346L4.62 16.52c.07.199.194.37.35.498z"/><path fill="#758797" d="M22.295 11.366s-.027 0-.043.004l-3.462.774-.233 1.723 1.785.498 2.16-2.571s0-.424-.207-.432z"/><path fill="#8598ab" d="m13.795 9.335-2.528.588-5.454 4.395-.844 2.696c.198.164.451.265.724.265h11.432c.51 0 1.303-.634 1.303-.634l1.91-2.28-1.552-2.221-1.027-1.47a1.986 1.986 0 0 0-1.252-.814z"/><path fill="#a8b8c6" d="M11.975 6.721c-.11 0-.222.016-.327.05l-3.905 1.39-1.93 6.157 5.034-4.403 1.342-3.159a.822.822 0 0 0-.218-.035z"/><path fill="#758797" d="m12.193 6.756-6.38 7.562 7.982-4.983-1.034-2.112a.908.908 0 0 0-.568-.47z"/><path fill="#5e7081" d="m20.342 14.365.18-2.606-1.732.389 1.552 2.221z"/><filter id="a"><feColorMatrix in="SourceGraphic" result="hue" type="hueRotate" values="-10"/><feColorMatrix in="hue" result="sat" type="saturate" values="2"/></filter><filter id="saturation"><feColorMatrix in="SourceGraphic" type="hueRotate" values="-10" result="hue" /><feColorMatrix in="hue" type="saturate" values="2" result="sat" /></filter></svg>