<svg xmlns="http://www.w3.org/2000/svg" filter="url(#saturation)" viewBox="0 0 24 24"><path fill="#ffca28" d="M8.131 4.682.801 12.04l7.398 7.28 1.233-1.33-5.996-5.95L9.51 5.916 8.131 4.682zm4.899.49a3.22 3.22 0 0 0-2.28.935c-1.26 1.26-1.26 3.314-.01 4.563a.728.736 45 0 0 .01 0c1.24 1.25 3.3 1.26 4.56 0 1.25-1.267 1.24-3.314-.01-4.559a3.193 3.193 0 0 0-2.27-.939zm8.89.234L10.01 17.34l1.15 1.18L23.08 6.566l-1.16-1.16zm-8.89 1.217c.45 0 .89.171 1.24.52a1.761 1.761 0 1 1-2.49 2.49c-.7-.699-.7-1.801 0-2.496.34-.341.8-.514 1.25-.514zm7.04 5.617c-.82 0-1.65.31-2.28.93-1.25 1.27-1.25 3.32.01 4.57a3.232 3.232 0 0 0 4.56 0 3.241 3.241 0 0 0 0-4.56c-.63-.63-1.46-.94-2.29-.94zm0 1.45c.45.01.9.18 1.25.53.7.7.7 1.8.01 2.49s-1.8.69-2.5-.01-.7-1.8 0-2.5c.34-.34.79-.51 1.24-.51z"/><filter id="a"><feColorMatrix in="SourceGraphic" result="hue" type="hueRotate" values="-10"/><feColorMatrix in="hue" result="sat" type="saturate" values="2"/></filter><filter id="saturation"><feColorMatrix in="SourceGraphic" type="hueRotate" values="-10" result="hue" /><feColorMatrix in="hue" type="saturate" values="2" result="sat" /></filter></svg>