<svg xmlns="http://www.w3.org/2000/svg" filter="url(#saturation)" viewBox="0 0 300 300"><path fill="#7986cb" d="M97.83 120.8 148 91.91c1.2-.73 2.8-.73 4 0l50 28.89c1.3.8 2.1 2.1 2.1 3.5v57.8c0 1.5-.8 2.8-2.1 3.5l-50 29c-1.2.7-2.8.7-4 0l-50.17-29c-1.25-.7-2.02-2-2.02-3.5v-57.8c0-1.4.77-2.7 2.02-3.5"/><path fill="#3f51b5" d="M280.1 147.2 220.3 43.07c-2.1-3.76-6.2-6.55-10.5-6.55H90.1c-4.34 0-8.36 2.79-10.54 6.55L19.73 147c-2.17 3.7-2.17 8.4 0 12.2l59.83 103.3c2.18 3.7 6.2 5.7 10.54 5.7h119.7c4.3 0 8.4-1.9 10.5-5.7l59.8-103.4c2.2-3.8 2.2-8.2 0-11.9m-49.5 50c0 1.6-1 3-2.3 3.7l-76.2 44c-1.2.8-2.9.8-4.2 0l-76.35-44c-1.33-.7-2.26-2.1-2.26-3.7v-87.9c0-1.6.92-3 2.25-3.7l76.26-44.01c1.3-.77 3-.77 4.3 0l76.2 44.01c1.3.7 2.3 2.1 2.3 3.7z"/><filter id="a"><feColorMatrix in="SourceGraphic" result="hue" type="hueRotate" values="-10"/><feColorMatrix in="hue" result="sat" type="saturate" values="2"/></filter><filter id="saturation"><feColorMatrix in="SourceGraphic" type="hueRotate" values="-10" result="hue" /><feColorMatrix in="hue" type="saturate" values="2" result="sat" /></filter></svg>