<svg xmlns="http://www.w3.org/2000/svg" filter="url(#saturation)" viewBox="0 0 24 24"><defs><linearGradient id="b" x1="2.373" x2="21.86" y1="12.027" y2="12.027" gradientTransform="translate(-.117 -24.027)" gradientUnits="userSpaceOnUse"><stop offset="0" stop-color="#d92f3c"/><stop offset="1" stop-color="#791223"/></linearGradient></defs><rect width="19.487" height="19.487" x="2.256" y="-21.744" fill="url(#b)" ry="0" transform="rotate(90)"/><path fill="#fff" d="M16.56 6 16.547 6a6.43 6.43 0 0 0-1.182.192 5.062 5.062 0 0 0-1.494.718c-.428.323-.817.72-1.17 1.191-.34.48-.682 1.032-1.022 1.66-.12.228-.233.425-.35.637v.001h-.004l-1.34 2.394-.005-.001c-.238.442-.461.847-.665 1.197a4.358 4.358 0 0 1-.716.94 2.79 2.79 0 0 1-.907.594c-.072.027-.161.042-.241.063h-.99V18h.99v-.002a6.427 6.427 0 0 0 1.184-.192 5.062 5.062 0 0 0 1.494-.718c.428-.323.819-.72 1.171-1.191.34-.48.681-1.032 1.021-1.66.121-.228.236-.425.353-.637l.006.002.004-.005.036-.066h2.53v.002h1.125v-2.408h-.331v-.001h-1.979c.22-.407.43-.789.62-1.115.215-.37.452-.682.717-.94a2.79 2.79 0 0 1 .906-.594c.07-.027.16-.041.239-.061h.992v-.003h-.001V6h-.978v-.002z"/><filter id="a"><feColorMatrix in="SourceGraphic" result="hue" type="hueRotate" values="-10"/><feColorMatrix in="hue" result="sat" type="saturate" values="2"/></filter><filter id="saturation"><feColorMatrix in="SourceGraphic" type="hueRotate" values="-10" result="hue" /><feColorMatrix in="hue" type="saturate" values="2" result="sat" /></filter></svg>