<svg xmlns="http://www.w3.org/2000/svg" stroke-linejoin="round" stroke-miterlimit="1.414" clip-rule="evenodd" filter="url(#saturation)" viewBox="0 0 24 24"><path fill="#03a9f4" d="M19 20H4a2 2 0 0 1-2-2V6c0-1.11.89-2 2-2h6l2 2h7c1.097 0 2 .903 2 2H4v10l2.14-8h17.07l-2.28 8.5c-.23.87-1.01 1.5-1.93 1.5z"/><path fill="#fff" d="m22.05 18.09-5.12 2.95-5.11-2.95v-5.91l5.11-2.95 5.12 2.95z"/><path fill="#8ed6fb" d="M17.34 8.794c-.13 0-.27.039-.37.119l-5.25 2.947c-.21.11-.35.33-.35.58v5.97c0 .25.14.47.35.59l5.25 2.94c.1.08.24.12.37.12.14 0 .28-.04.38-.12L22.96 19c.22-.12.35-.34.35-.59v-5.97c0-.25-.13-.47-.35-.58l-5.24-2.947a.615.615 0 0 0-.38-.119zm0 1.426 4.65 2.61v1.4h-.02v3.43h.02v.36l-4.65 2.61-4.64-2.61v-5.19zm0 1.38-3.25 1.88 3.25 1.87 3.26-1.87zm-3.31 3.37v2.37l2.65 1.54V16.5zm6.63 0-2.65 1.53v2.38l2.65-1.54z"/><path fill="#1c78c0" d="m17.34 11.6-3.25 1.88 3.25 1.87 3.26-1.87zm-3.31 3.37v2.37l2.65 1.54V16.5zm6.63 0-2.65 1.53v2.38l2.65-1.54z"/><filter id="a"><feColorMatrix in="SourceGraphic" result="hue" type="hueRotate" values="-10"/><feColorMatrix in="hue" result="sat" type="saturate" values="2"/></filter><filter id="saturation"><feColorMatrix in="SourceGraphic" type="hueRotate" values="-10" result="hue" /><feColorMatrix in="hue" type="saturate" values="2" result="sat" /></filter></svg>