<svg xmlns="http://www.w3.org/2000/svg" fill-rule="evenodd" stroke-linejoin="round" stroke-miterlimit="1.414" clip-rule="evenodd" filter="url(#saturation)" viewBox="0 0 24 24"><path fill="#009688" fill-rule="nonzero" d="M10 4H4c-1.11 0-2 .89-2 2v12c0 1.097.903 2 2 2h16c1.097 0 2-.903 2-2V8a2 2 0 0 0-2-2h-8l-2-2z"/><path fill="#fff" d="M21.524 10.3h-8.556c-.672 0-1.222.55-1.222 1.222v8.556c0 .672.55 1.222 1.222 1.222h8.556c.672 0 1.222-.55 1.222-1.222v-8.556c0-.672-.55-1.222-1.222-1.222zm-8.556 1.216h1.834c0 1.015-.82 1.84-1.834 1.84zm0 4.284v-1.222a3.062 3.062 0 0 0 3.056-3.062h1.222a4.28 4.28 0 0 1-4.278 4.284zm0 3.667 2.14-2.75 1.527 1.84 2.139-2.757 2.75 3.667z"/><filter id="a"><feColorMatrix in="SourceGraphic" result="hue" type="hueRotate" values="-10"/><feColorMatrix in="hue" result="sat" type="saturate" values="2"/></filter><filter id="saturation"><feColorMatrix in="SourceGraphic" type="hueRotate" values="-10" result="hue" /><feColorMatrix in="hue" type="saturate" values="2" result="sat" /></filter></svg>