<svg xmlns="http://www.w3.org/2000/svg" xml:space="preserve" fill-rule="evenodd" stroke-linejoin="round" stroke-miterlimit="1.414" clip-rule="evenodd" filter="url(#saturation)" viewBox="0 0 24 24"><path fill="#ff5252" d="M10 4H4c-1.11 0-2 .89-2 2v12c0 1.097.903 2 2 2h16c1.097 0 2-.903 2-2V8a2 2 0 0 0-2-2h-8l-2-2z"/><path fill="#fff" d="M17.249 9.26a5.945 5.945 0 0 0-5.943 5.944 5.945 5.945 0 0 0 5.943 5.943 5.945 5.945 0 0 0 5.943-5.943A5.945 5.945 0 0 0 17.25 9.26zm0 10.697a4.753 4.753 0 0 1-4.755-4.754c0-1.1.375-2.11 1.005-2.912l6.662 6.662a4.697 4.697 0 0 1-2.912 1.005zm3.75-1.842-6.662-6.662a4.697 4.697 0 0 1 2.912-1.005 4.753 4.753 0 0 1 4.754 4.755c0 1.1-.374 2.11-1.004 2.912z"/><filter id="a"><feColorMatrix in="SourceGraphic" result="hue" type="hueRotate" values="-10"/><feColorMatrix in="hue" result="sat" type="saturate" values="2"/></filter><filter id="saturation"><feColorMatrix in="SourceGraphic" type="hueRotate" values="-10" result="hue" /><feColorMatrix in="hue" type="saturate" values="2" result="sat" /></filter></svg>