<svg xmlns="http://www.w3.org/2000/svg" xml:space="preserve" stroke-linejoin="round" stroke-miterlimit="1.414" clip-rule="evenodd" filter="url(#saturation)" viewBox="0 0 24 24"><path fill="#e57373" d="M19 20H4a2 2 0 0 1-2-2V6c0-1.11.89-2 2-2h6l2 2h7c1.097 0 2 .903 2 2H4v10l2.14-8h17.07l-2.28 8.5c-.23.87-1.01 1.5-1.93 1.5z" style="fill:#546e7a"/><g transform="matrix(.04954 0 0 .04954 9.995 7.378)"><circle cx="150" cy="150" r="30.221" style="fill:#fafafa;stroke-width:4.0451"/><path d="M148.1 23.078c-59.135 0-108.82 40.456-122.92 95.193a6.176 6.176 0 0 0-.213 1.509 6.045 6.045 0 0 0 6.044 6.044h51.172c2.439 0 4.52-1.448 5.475-3.532 0 0 .078-.144.102-.213 10.55-22.766 33.591-38.562 60.328-38.562 36.717 0 66.483 29.762 66.483 66.483s-29.758 66.483-66.475 66.483c-26.738 0-49.775-15.8-60.328-38.562-.028-.073-.102-.213-.102-.213a6.023 6.023 0 0 0-5.475-3.532H31.01a6.042 6.042 0 0 0-6.044 6.044c0 .522.088 1.028.213 1.51 14.097 54.737 63.782 95.192 122.92 95.192 70.097 0 126.92-56.829 126.92-126.92 0-70.093-56.825-126.92-126.92-126.92z" style="fill:#fafafa;stroke-width:4.0451"/></g><filter id="a"><feColorMatrix in="SourceGraphic" result="hue" type="hueRotate" values="-10"/><feColorMatrix in="hue" result="sat" type="saturate" values="2"/></filter><filter id="saturation"><feColorMatrix in="SourceGraphic" type="hueRotate" values="-10" result="hue" /><feColorMatrix in="hue" type="saturate" values="2" result="sat" /></filter></svg>