<svg xmlns="http://www.w3.org/2000/svg" stroke-linejoin="round" stroke-miterlimit="1.414" clip-rule="evenodd" filter="url(#saturation)" viewBox="0 0 24 24"><path fill="#4caf50" d="M19 20H4a2 2 0 0 1-2-2V6c0-1.11.89-2 2-2h6l2 2h7c1.097 0 2 .903 2 2H4v10l2.14-8h17.07l-2.28 8.5c-.23.87-1.01 1.5-1.93 1.5z"/><g fill="#fff"><path d="M15.6 21.68a.538.538 0 0 1-.15-.022.737.737 0 0 1-.515-.855l1.915-10.2a.727.727 0 0 1 .318-.48.61.61 0 0 1 .495-.085c.36.106.587.48.509.855l-1.915 10.2a.727.727 0 0 1-.319.48.585.585 0 0 1-.339.106zM19.437 20.23h-.05a.658.658 0 0 1-.473-.261.782.782 0 0 1 .07-1.004l3.294-3.223-3.28-2.99a.793.793 0 0 1-.098-1.003c.106-.156.283-.262.466-.283s.368.042.502.17l3.866 3.534a.775.775 0 0 1 .107.996c-.036.043-.064.085-.107.12l-3.845 3.76a.636.636 0 0 1-.452.184zM13.67 20.237a.674.674 0 0 1-.453-.19l-3.852-3.768a.772.772 0 0 1 .007-1.103l3.867-3.533a.612.612 0 0 1 .494-.17c.191.021.36.127.474.283a.793.793 0 0 1-.1 1.003l-3.279 2.99 3.294 3.216c.269.269.297.7.07 1.004a.666.666 0 0 1-.473.268z"/></g><filter id="a"><feColorMatrix in="SourceGraphic" result="hue" type="hueRotate" values="-10"/><feColorMatrix in="hue" result="sat" type="saturate" values="2"/></filter><filter id="saturation"><feColorMatrix in="SourceGraphic" type="hueRotate" values="-10" result="hue" /><feColorMatrix in="hue" type="saturate" values="2" result="sat" /></filter></svg>