<svg xmlns="http://www.w3.org/2000/svg" fill-rule="evenodd" stroke-linejoin="round" stroke-miterlimit="1.414" clip-rule="evenodd" filter="url(#saturation)" viewBox="0 0 24 24"><path fill="#607D8B" fill-rule="nonzero" d="M10 4H4c-1.11 0-2 .89-2 2v12c0 1.097.903 2 2 2h16c1.097 0 2-.903 2-2V8a2 2 0 0 0-2-2h-8l-2-2z"/><path fill="#fff" d="M13.589 11.247h-2.02a.675.675 0 0 0-.672.673v8.082c0 .37.302.673.673.673h2.02a.675.675 0 0 0 .673-.673V11.92a.675.675 0 0 0-.673-.673zm9.428 0h-2.02a.675.675 0 0 0-.674.673v8.082c0 .37.303.673.673.673h2.02a.675.675 0 0 0 .674-.673V11.92a.675.675 0 0 0-.673-.673zm-4.714 0h-2.02a.675.675 0 0 0-.673.673v8.082c0 .37.302.673.673.673h2.02a.675.675 0 0 0 .673-.673V11.92a.675.675 0 0 0-.673-.673z"/><filter id="a"><feColorMatrix in="SourceGraphic" result="hue" type="hueRotate" values="-10"/><feColorMatrix in="hue" result="sat" type="saturate" values="2"/></filter><filter id="saturation"><feColorMatrix in="SourceGraphic" type="hueRotate" values="-10" result="hue" /><feColorMatrix in="hue" type="saturate" values="2" result="sat" /></filter></svg>