<svg xmlns="http://www.w3.org/2000/svg" xml:space="preserve" fill-rule="evenodd" stroke-linejoin="round" stroke-miterlimit="1.414" clip-rule="evenodd" filter="url(#saturation)" viewBox="0 0 24 24"><path fill="#039be5" d="M10 4H4c-1.11 0-2 .89-2 2v12c0 1.097.903 2 2 2h16c1.097 0 2-.903 2-2V8a2 2 0 0 0-2-2h-8l-2-2z"/><path fill="#fff" d="M21.985 18.967h-2.466v-4.316h2.466m.617-1.233h-3.7a.617.617 0 0 0-.616.617V20.2a.617.617 0 0 0 .616.617h3.7a.617.617 0 0 0 .616-.617v-6.165a.617.617 0 0 0-.616-.617m-11.714-1.233h11.097v-1.233H10.888a1.233 1.233 0 0 0-1.234 1.233v6.782H8.421v1.85h8.632v-1.85h-6.165z"/><filter id="a"><feColorMatrix in="SourceGraphic" result="hue" type="hueRotate" values="-10"/><feColorMatrix in="hue" result="sat" type="saturate" values="2"/></filter><filter id="saturation"><feColorMatrix in="SourceGraphic" type="hueRotate" values="-10" result="hue" /><feColorMatrix in="hue" type="saturate" values="2" result="sat" /></filter></svg>