<svg xmlns="http://www.w3.org/2000/svg" xml:space="preserve" fill-rule="evenodd" stroke-linejoin="round" stroke-miterlimit="1.414" clip-rule="evenodd" filter="url(#saturation)" viewBox="0 0 24 24"><path fill="#ff9800" fill-rule="nonzero" d="M10 4H4c-1.11 0-2 .89-2 2v12c0 1.097.903 2 2 2h16c1.097 0 2-.903 2-2V8a2 2 0 0 0-2-2h-8l-2-2z"/><path fill="#fff" d="m21.159 10.275 1.303 2.606h-1.955l-1.303-2.606h-1.303l1.303 2.606H17.25l-1.303-2.606h-1.304l1.303 2.606h-1.954l-1.303-2.606h-.652a1.303 1.303 0 0 0-1.303 1.303v7.819a1.303 1.303 0 0 0 1.303 1.303h10.425a1.303 1.303 0 0 0 1.303-1.303v-9.122z"/><filter id="a"><feColorMatrix in="SourceGraphic" result="hue" type="hueRotate" values="-10"/><feColorMatrix in="hue" result="sat" type="saturate" values="2"/></filter><filter id="saturation"><feColorMatrix in="SourceGraphic" type="hueRotate" values="-10" result="hue" /><feColorMatrix in="hue" type="saturate" values="2" result="sat" /></filter></svg>