<svg xmlns="http://www.w3.org/2000/svg" fill-rule="evenodd" stroke-linejoin="round" stroke-miterlimit="1.414" clip-rule="evenodd" filter="url(#saturation)" viewBox="0 0 24 24"><path fill="#00BFA5" d="M10 4H4c-1.11 0-2 .89-2 2v12c0 1.097.903 2 2 2h16c1.097 0 2-.903 2-2V8a2 2 0 0 0-2-2h-8l-2-2z"/><path fill="#fff" d="m21.6 18.98-6.14 1.77c-.19.05-.37-.11-.33-.29l2.19-10.23c.05-.19.32-.22.4-.04l4.06 8.39c.08.16-.01.35-.18.4zm1.05-.42-4.7-9.718a.765.765 0 0 0-.64-.418.748.748 0 0 0-.69.347l-5.09 8.039c-.16.25-.16.56 0 .81l2.5 3.76c.14.22.4.35.67.35.07 0 .15-.01.22-.03l7.23-2.08c.23-.07.41-.22.5-.42.1-.21.09-.44 0-.64z"/><filter id="a"><feColorMatrix in="SourceGraphic" result="hue" type="hueRotate" values="-10"/><feColorMatrix in="hue" result="sat" type="saturate" values="2"/></filter><filter id="saturation"><feColorMatrix in="SourceGraphic" type="hueRotate" values="-10" result="hue" /><feColorMatrix in="hue" type="saturate" values="2" result="sat" /></filter></svg>