<svg xmlns="http://www.w3.org/2000/svg" stroke-linejoin="round" stroke-miterlimit="1.414" clip-rule="evenodd" filter="url(#saturation)" viewBox="0 0 24 24"><path fill="#7e57c2" d="M19 20H4a2 2 0 0 1-2-2V6c0-1.11.89-2 2-2h6l2 2h7c1.097 0 2 .903 2 2H4v10l2.14-8h17.07l-2.28 8.5c-.23.87-1.01 1.5-1.93 1.5z"/><path fill="#fff" d="M17.263 13.219c-3.537 0-6.407 1.435-6.407 3.204 0 1.435 1.884 2.646 4.485 3.056v2.069l2.563-2.563-2.563-2.563v1.75c-2.018-.36-3.204-1.218-3.204-1.75 0-.679 1.948-1.922 5.126-1.922s5.126 1.243 5.126 1.922c0 .468-.936 1.211-2.563 1.621v1.314c2.262-.494 3.844-1.621 3.844-2.935 0-1.768-2.87-3.203-6.407-3.203z"/><filter id="a"><feColorMatrix in="SourceGraphic" result="hue" type="hueRotate" values="-10"/><feColorMatrix in="hue" result="sat" type="saturate" values="2"/></filter><filter id="saturation"><feColorMatrix in="SourceGraphic" type="hueRotate" values="-10" result="hue" /><feColorMatrix in="hue" type="saturate" values="2" result="sat" /></filter></svg>