<svg xmlns="http://www.w3.org/2000/svg" fill-rule="evenodd" stroke-linejoin="round" stroke-miterlimit="1.414" clip-rule="evenodd" filter="url(#saturation)" viewBox="0 0 24 24"><path fill="#ffa000" d="M10 4H4c-1.11 0-2 .89-2 2v12c0 1.097.903 2 2 2h16c1.097 0 2-.903 2-2V8a2 2 0 0 0-2-2h-8l-2-2z"/><path fill="#fff" d="M22.409 11.145h-2.543V9.873c0-.35-.14-.667-.376-.896a1.243 1.243 0 0 0-.895-.376h-2.543c-.7 0-1.272.573-1.272 1.271v1.272h-2.543c-.7 0-1.271.573-1.271 1.271v6.995c0 .698.571 1.271 1.271 1.271h10.172c.699 0 1.272-.573 1.272-1.271v-6.994c0-.7-.573-1.271-1.272-1.271zm-6.357-1.272h2.543v1.272h-2.543zm.634 8.583-.635-.636 1.907-1.908-1.907-1.907.635-.636 2.543 2.543z"/><filter id="a"><feColorMatrix in="SourceGraphic" result="hue" type="hueRotate" values="-10"/><feColorMatrix in="hue" result="sat" type="saturate" values="2"/></filter><filter id="saturation"><feColorMatrix in="SourceGraphic" type="hueRotate" values="-10" result="hue" /><feColorMatrix in="hue" type="saturate" values="2" result="sat" /></filter></svg>