<svg xmlns="http://www.w3.org/2000/svg" stroke-linejoin="round" stroke-miterlimit="1.414" clip-rule="evenodd" filter="url(#saturation)" viewBox="0 0 24 24"><path fill="#42a5f5" d="M19 20H4a2 2 0 0 1-2-2V6c0-1.11.89-2 2-2h6l2 2h7c1.097 0 2 .903 2 2H4v10l2.14-8h17.07l-2.28 8.5c-.23.87-1.01 1.5-1.93 1.5z"/><path fill="#fff" d="M15.91 8.537c-1.02 0-1.85.826-1.85 1.843v1.09h2.77c.25 0 .46.36.46.62h-4.61c-1.02 0-1.85.82-1.85 1.84v2.44c0 1.02.83 1.85 1.85 1.85h.76v-1.73c0-1.02.82-1.85 1.84-1.85h3.39c1.02 0 1.84-.82 1.84-1.84v-2.42a1.84 1.84 0 0 0-1.84-1.843zm-.47 1.039c.26 0 .47.078.47.454 0 .39-.21.58-.47.58-.25 0-.46-.19-.46-.58 0-.376.21-.454.46-.454z"/><path fill="#fdd835" d="M21.13 11.76v1.73c0 1.02-.82 1.85-1.84 1.85h-3.38c-1.02 0-1.85.82-1.85 1.84v2.42a1.846 1.846 0 0 0 1.85 1.84h2.76a1.846 1.846 0 0 0 1.84-1.84v-1.09h-2.77c-.25 0-.45-.36-.45-.62h4.6a1.846 1.846 0 0 0 1.85-1.84v-2.44a1.846 1.846 0 0 0-1.85-1.85zm-6.22 2.91v.01c.01 0 .02 0 .02-.01zm4.22 4.7c.25 0 .46.19.46.58a.458.458 0 0 1-.46.45c-.26 0-.46-.07-.46-.45 0-.39.2-.58.46-.58z"/><filter id="a"><feColorMatrix in="SourceGraphic" result="hue" type="hueRotate" values="-10"/><feColorMatrix in="hue" result="sat" type="saturate" values="2"/></filter><filter id="saturation"><feColorMatrix in="SourceGraphic" type="hueRotate" values="-10" result="hue" /><feColorMatrix in="hue" type="saturate" values="2" result="sat" /></filter></svg>