<svg xmlns="http://www.w3.org/2000/svg" fill-rule="evenodd" stroke-linejoin="round" stroke-miterlimit="1.414" clip-rule="evenodd" filter="url(#saturation)" viewBox="0 0 24 24"><path fill="#1976D2" fill-rule="nonzero" d="M10 4H4c-1.11 0-2 .89-2 2v12c0 1.097.903 2 2 2h16c1.097 0 2-.903 2-2V8a2 2 0 0 0-2-2h-8l-2-2z"/><path fill="#fff" d="M11.488 15.559h1.303v-1.302h-1.303zm0 2.606h1.303v-1.303h-1.303zm1.303 2.604v-1.303h-1.303c0 .717.58 1.303 1.303 1.303zm-1.303-7.815h1.303v-1.303h-1.303zm7.815 7.815h1.303v-1.303h-1.303zm2.605-11.722h-6.512c-.724 0-1.303.586-1.303 1.303v6.512c0 .717.58 1.303 1.303 1.303h6.512a1.306 1.306 0 0 0 1.303-1.303V10.35a1.306 1.306 0 0 0-1.303-1.303zm0 7.815h-6.512V10.35h6.512zm-5.21 3.908H18v-1.303h-1.302zm-2.605 0h1.303v-1.303h-1.303z"/><filter id="a"><feColorMatrix in="SourceGraphic" result="hue" type="hueRotate" values="-10"/><feColorMatrix in="hue" result="sat" type="saturate" values="2"/></filter><filter id="saturation"><feColorMatrix in="SourceGraphic" type="hueRotate" values="-10" result="hue" /><feColorMatrix in="hue" type="saturate" values="2" result="sat" /></filter></svg>