<svg xmlns="http://www.w3.org/2000/svg" fill-rule="evenodd" stroke-linejoin="round" stroke-miterlimit="1.414" clip-rule="evenodd" filter="url(#saturation)" viewBox="0 0 24 24"><path fill="#afb42b" d="M10 4H4c-1.11 0-2 .89-2 2v12c0 1.097.903 2 2 2h16c1.097 0 2-.903 2-2V8a2 2 0 0 0-2-2h-8l-2-2z"/><path fill="#fff" d="M21.589 10.926v8.28h-8.28v-8.28h8.28m.65-1.183h-9.58a.53.53 0 0 0-.532.532v9.58c0 .237.236.533.532.533h9.58c.237 0 .533-.296.533-.532v-9.58c0-.297-.296-.533-.532-.533zm-5.382 2.365h3.549v1.183h-3.549zm0 2.366h3.549v1.183h-3.549zm0 2.366h3.549v1.183h-3.549zm-2.365-4.732h1.183v1.183h-1.183zm0 2.366h1.183v1.183h-1.183zm0 2.366h1.183v1.183h-1.183z"/><filter id="a"><feColorMatrix in="SourceGraphic" result="hue" type="hueRotate" values="-10"/><feColorMatrix in="hue" result="sat" type="saturate" values="2"/></filter><filter id="saturation"><feColorMatrix in="SourceGraphic" type="hueRotate" values="-10" result="hue" /><feColorMatrix in="hue" type="saturate" values="2" result="sat" /></filter></svg>