<svg xmlns="http://www.w3.org/2000/svg" fill-rule="evenodd" stroke-linejoin="round" stroke-miterlimit="1.414" clip-rule="evenodd" filter="url(#saturation)" viewBox="0 0 24 24"><path fill="#ec407a" fill-rule="nonzero" d="M10 4H4c-1.11 0-2 .89-2 2v12c0 1.097.903 2 2 2h16c1.097 0 2-.903 2-2V8a2 2 0 0 0-2-2h-8l-2-2z"/><path fill="#fff" d="M21.94 12.47c.92.92 1.43 2.16 1.43 3.45s-.51 2.53-1.43 3.44a4.865 4.865 0 0 1-4.91 1.2c-.96.3-2 .3-2.95 0-1.68.53-3.59.13-4.923-1.2-.913-.91-1.426-2.15-1.426-3.44s.513-2.53 1.426-3.45a4.905 4.905 0 0 1 4.923-1.2c.95-.3 1.99-.3 2.95 0 1.67-.52 3.58-.13 4.91 1.2m-9.83 6.89c-.91-.91-1.43-2.15-1.43-3.44s.52-2.53 1.43-3.45c-.72.11-1.41.43-1.97.99a3.467 3.467 0 0 0-1.018 2.46c0 .92.367 1.8 1.018 2.46.56.55 1.25.88 1.97.98m2.95 0c-.91-.91-1.43-2.15-1.43-3.44s.52-2.53 1.43-3.45c-.72.11-1.41.43-1.97.99a3.473 3.473 0 0 0 1.97 5.9m5.9-5.9c-.56-.56-1.24-.88-1.97-.99.92.92 1.43 2.16 1.43 3.45s-.51 2.53-1.43 3.44c.73-.1 1.41-.43 1.97-.98a3.473 3.473 0 0 0 0-4.92m-4.92 0a3.473 3.473 0 0 0 0 4.92c.3.29.63.52.99.68.36-.16.68-.39.98-.68a3.473 3.473 0 0 0 0-4.92c-.3-.3-.62-.53-.98-.69-.36.16-.69.39-.99.69z"/><filter id="a"><feColorMatrix in="SourceGraphic" result="hue" type="hueRotate" values="-10"/><feColorMatrix in="hue" result="sat" type="saturate" values="2"/></filter><filter id="saturation"><feColorMatrix in="SourceGraphic" type="hueRotate" values="-10" result="hue" /><feColorMatrix in="hue" type="saturate" values="2" result="sat" /></filter></svg>