<svg xmlns="http://www.w3.org/2000/svg" xml:space="preserve" fill-rule="evenodd" stroke-linejoin="round" stroke-miterlimit="1.414" clip-rule="evenodd" filter="url(#saturation)" viewBox="0 0 24 24"><path fill="#afb42b" fill-rule="nonzero" d="M10 4H4c-1.11 0-2 .89-2 2v12c0 1.097.903 2 2 2h16c1.097 0 2-.903 2-2V8a2 2 0 0 0-2-2h-8l-2-2z"/><path fill="#fff" d="M19.04 18.616h-4.706v-1.345h4.706m2.017-1.344h-6.723v-1.345h6.723m0-1.344h-6.723v-1.345h6.723m1.345-2.69h-9.413a1.34 1.34 0 0 0-1.345 1.345v9.413a1.345 1.345 0 0 0 1.345 1.344h9.412a1.345 1.345 0 0 0 1.345-1.344v-9.413c0-.746-.605-1.344-1.345-1.344z"/><filter id="a"><feColorMatrix in="SourceGraphic" result="hue" type="hueRotate" values="-10"/><feColorMatrix in="hue" result="sat" type="saturate" values="2"/></filter><filter id="saturation"><feColorMatrix in="SourceGraphic" type="hueRotate" values="-10" result="hue" /><feColorMatrix in="hue" type="saturate" values="2" result="sat" /></filter></svg>