<svg xmlns="http://www.w3.org/2000/svg" xml:space="preserve" stroke-linejoin="round" stroke-miterlimit="1.414" clip-rule="evenodd" filter="url(#saturation)" viewBox="0 0 24 24"><path fill="#5c6bc0" d="M19 20H4a2 2 0 0 1-2-2V6c0-1.11.89-2 2-2h6l2 2h7c1.097 0 2 .903 2 2H4v10l2.14-8h17.07l-2.28 8.5c-.23.87-1.01 1.5-1.93 1.5z"/><path fill="#fff" d="M21.981 19.546H13.36v-6.774h8.621m0-3.08h-.616v-1.23h-1.231v1.23h-4.927v-1.23h-1.232v1.23h-.615c-.684 0-1.232.555-1.232 1.232v8.622a1.232 1.232 0 0 0 1.232 1.232h8.621a1.232 1.232 0 0 0 1.232-1.232v-8.621a1.232 1.232 0 0 0-1.232-1.232m-1.521 4.963-.653-.652-3.005 3.005-1.306-1.306-.652.653 1.958 1.958z"/><filter id="a"><feColorMatrix in="SourceGraphic" result="hue" type="hueRotate" values="-10"/><feColorMatrix in="hue" result="sat" type="saturate" values="2"/></filter><filter id="saturation"><feColorMatrix in="SourceGraphic" type="hueRotate" values="-10" result="hue" /><feColorMatrix in="hue" type="saturate" values="2" result="sat" /></filter></svg>