<svg xmlns="http://www.w3.org/2000/svg" filter="url(#saturation)" viewBox="0 0 24 24"><path fill="#039be5" d="M19 20H4a2 2 0 0 1-2-2V6c0-1.11.89-2 2-2h6l2 2h7a2 2 0 0 1 2 2H4v10l2.14-8h17.07l-2.28 8.5c-.23.87-1.01 1.5-1.93 1.5z"/><path fill="#fff" d="M11.75 19.11c-.43 0-.82-.36-.82-.79 0-.44.35-.79.82-.79.48 0 .83.35.83.79 0 .43-.39.79-.83.79zm10.19-4.31c-.08-.63-.47-1.14-.98-1.54l-.2-.15-.16.19c-.32.36-.43.99-.39 1.46a2 2 0 0 0 .35.99c-.16.08-.35.16-.51.24-.36.12-.71.16-1.07.16H8.753l-.039.23c-.079.75.039 1.54.355 2.25l.158.28v.04c.953 1.58 2.643 2.29 4.503 2.29 3.55 0 6.48-1.54 7.86-4.86.91.04 1.81-.19 2.25-1.06l.12-.2-.2-.12c-.51-.32-1.22-.35-1.82-.2zm-5.09-.63h-1.54v1.54h1.54zm0-1.93h-1.54v1.54h1.54zm0-1.98h-1.54v1.54h1.54zm1.89 3.91H17.2v1.54h1.54zm-5.72 0h-1.54v1.54h1.54zm1.93 0h-1.54v1.54h1.54zm-3.83 0H9.583v1.54h1.537zm3.83-1.93h-1.54v1.54h1.54zm-1.93 0h-1.54v1.54h1.54z"/><filter id="a"><feColorMatrix in="SourceGraphic" result="hue" type="hueRotate" values="-10"/><feColorMatrix in="hue" result="sat" type="saturate" values="2"/></filter><filter id="saturation"><feColorMatrix in="SourceGraphic" type="hueRotate" values="-10" result="hue" /><feColorMatrix in="hue" type="saturate" values="2" result="sat" /></filter></svg>