<svg xmlns="http://www.w3.org/2000/svg" filter="url(#saturation)" viewBox="0 0 24 24"><path fill="#039be5" d="M19 20H4a2 2 0 0 1-2-2V6c0-1.11.89-2 2-2h6l2 2h7a2 2 0 0 1 2 2H4v10l2.14-8h17.07l-2.28 8.5c-.23.87-1.01 1.5-1.93 1.5z"/><path fill="#fff" d="M20.62 15.706h-6.085v-1.217h6.085m-3.042-5.476a6.085 6.085 0 0 0-6.085 6.084 6.085 6.085 0 0 0 6.085 6.085 6.085 6.085 0 0 0 6.084-6.085 6.085 6.085 0 0 0-6.084-6.084z"/><filter id="a"><feColorMatrix in="SourceGraphic" result="hue" type="hueRotate" values="-10"/><feColorMatrix in="hue" result="sat" type="saturate" values="2"/></filter><filter id="saturation"><feColorMatrix in="SourceGraphic" type="hueRotate" values="-10" result="hue" /><feColorMatrix in="hue" type="saturate" values="2" result="sat" /></filter></svg>