<svg xmlns="http://www.w3.org/2000/svg" xml:space="preserve" filter="url(#saturation)" style="enable-background:new 0 0 24 24" viewBox="0 0 24 24"><path fill="#FF5252" d="M19 20H4c-1.1 0-2-.9-2-2V6c0-1.1.9-2 2-2h6l2 2h7c1.1 0 2 .9 2 2H4v10l2.1-8h17.1l-2.3 8.5c-.2.9-1 1.5-1.9 1.5z"/><path fill="#fff" d="M17.79 15.89h-1.18v-3.54h1.18m0 5.9h-1.18v-1.18h1.18M17.2 9.4a5.9 5.9 0 0 0-5.9 5.9 5.9 5.9 0 0 0 5.9 5.9 5.9 5.9 0 0 0 5.9-5.9 5.9 5.9 0 0 0-5.9-5.9z"/><filter id="a"><feColorMatrix in="SourceGraphic" result="hue" type="hueRotate" values="-10"/><feColorMatrix in="hue" result="sat" type="saturate" values="2"/></filter><filter id="saturation"><feColorMatrix in="SourceGraphic" type="hueRotate" values="-10" result="hue" /><feColorMatrix in="hue" type="saturate" values="2" result="sat" /></filter></svg>