<svg xmlns="http://www.w3.org/2000/svg" fill-rule="evenodd" stroke-linejoin="round" filter="url(#saturation)" viewBox="0 0 24 24"><path fill="#8bc34a" fill-rule="nonzero" d="M10 4H4c-1.11 0-2 .89-2 2v12c0 1.097.903 2 2 2h16c1.097 0 2-.903 2-2V8a2 2 0 0 0-2-2h-8l-2-2z"/><path fill="#fff" d="m16.91 8.486-5.48 3.164c-.21.12-.33.34-.33.58v6.34c0 .24.12.46.33.57l5.48 3.17c.21.12.47.12.67 0l5.48-3.17a.64.64 0 0 0 .34-.57v-6.34c0-.24-.13-.46-.34-.58l-5.48-3.164a.66.66 0 0 0-.67 0"/><filter id="a"><feColorMatrix in="SourceGraphic" result="hue" type="hueRotate" values="-10"/><feColorMatrix in="hue" result="sat" type="saturate" values="2"/></filter><filter id="saturation"><feColorMatrix in="SourceGraphic" type="hueRotate" values="-10" result="hue" /><feColorMatrix in="hue" type="saturate" values="2" result="sat" /></filter></svg>