<svg xmlns="http://www.w3.org/2000/svg" xml:space="preserve" fill-rule="evenodd" stroke-linejoin="round" stroke-miterlimit="1.414" clip-rule="evenodd" filter="url(#saturation)" viewBox="0 0 24 24"><path fill="#8bc34a" d="M10 4H4c-1.11 0-2 .89-2 2v12c0 1.097.903 2 2 2h16c1.097 0 2-.903 2-2V8a2 2 0 0 0-2-2h-8l-2-2z"/><path fill="#fff" d="M16.94 8.582c-1.62 0-3.1 1.166-3.69 2.868-.8 2.24-.27 4.38.69 6.07-.08.15-.14.31-.12.49.02.59.51 1.07 1.11 1.07h.03c.61-.03 1.1-.55 1.08-1.16-.03-.59-.52-1.07-1.11-1.07h-.04c-.01 0-.02.01-.03.01a6.148 6.148 0 0 1-.84-3.66c.06-1 .4-1.87.98-2.59h.01c.45-.58 1.4-.893 2-.909.86-.016 1.46.499 1.87 1.149.41.66.61 1.44.63 1.87.01.06.05.11.11.13l.87.26c.1.03.2-.05.19-.15-.22-2.86-2-4.378-3.74-4.378zm-.9 3.928c-.61 0-1.03.49-1.03 1.11-.02.51.36 1.11 1.01 1.11.45 0 .86-.25 1.02-.56h.3c1.28 0 2.49.37 3.59 1.09.84.56 1.43 1.27 1.76 2.13l.01.01c.28.69.26 1.34-.03 1.91-.46.87-1.21 1.33-2.23 1.33-.66 0-1.3-.2-1.63-.35a.14.14 0 0 0-.15.03l-.77.62c-.08.07-.06.19.03.24.75.35 1.52.55 2.28.55 1.7 0 2.98-.93 3.47-1.91.53-1.06.49-2.84-.85-4.35-1.34-1.57-3.31-2.43-5.55-2.43h-.28c-.22-.42-.57-.52-.95-.53zm-3.75 2.05a.09.09 0 0 0-.07.03c-1.27.93-1.86 2.03-2.02 3.05s.1 1.95.5 2.56c.6.91 1.81 1.46 3.12 1.46.36 0 .71-.03 1.07-.13 2.22-.43 3.92-1.77 4.89-3.73.53-.1.93-.54.91-1.09a1.13 1.13 0 0 0-1.11-1.09h-.04c-.61.03-1.09.55-1.08 1.15v.01c.02.24.14.43.27.6-.58 1.11-1.42 1.92-2.74 2.61-.88.47-1.8.63-2.72.51-.74-.09-1.29-.42-1.65-.95-.52-.8-.58-1.64-.13-2.52.32-.62.81-1.09 1.13-1.32.05-.04.07-.1.05-.16l-.22-.88c-.01-.05-.05-.08-.09-.1-.02-.01-.05-.01-.07-.01z"/><filter id="a"><feColorMatrix in="SourceGraphic" result="hue" type="hueRotate" values="-10"/><feColorMatrix in="hue" result="sat" type="saturate" values="2"/></filter><filter id="saturation"><feColorMatrix in="SourceGraphic" type="hueRotate" values="-10" result="hue" /><feColorMatrix in="hue" type="saturate" values="2" result="sat" /></filter></svg>