<svg xmlns="http://www.w3.org/2000/svg" xml:space="preserve" stroke-linejoin="round" stroke-miterlimit="1.414" clip-rule="evenodd" filter="url(#saturation)" viewBox="0 0 24 24"><path fill="#2196f3" d="M19 20H4a2 2 0 0 1-2-2V6c0-1.11.89-2 2-2h6l2 2h7c1.097 0 2 .903 2 2H4v10l2.14-8h17.07l-2.28 8.5c-.23.87-1.01 1.5-1.93 1.5z"/><path fill="#fff" d="M17.22 14.679a1.765 1.765 0 0 0-1.765 1.765 1.765 1.765 0 0 0 1.765 1.765 1.765 1.765 0 0 0 1.765-1.765 1.765 1.765 0 0 0-1.765-1.765m0 4.707a2.942 2.942 0 0 1-2.942-2.942 2.942 2.942 0 0 1 2.942-2.942 2.942 2.942 0 0 1 2.942 2.942 2.942 2.942 0 0 1-2.942 2.942m0-7.355a6.958 6.958 0 0 0-6.472 4.413 6.958 6.958 0 0 0 6.472 4.413 6.958 6.958 0 0 0 6.472-4.413 6.958 6.958 0 0 0-6.472-4.413z"/><filter id="a"><feColorMatrix in="SourceGraphic" result="hue" type="hueRotate" values="-10"/><feColorMatrix in="hue" result="sat" type="saturate" values="2"/></filter><filter id="saturation"><feColorMatrix in="SourceGraphic" type="hueRotate" values="-10" result="hue" /><feColorMatrix in="hue" type="saturate" values="2" result="sat" /></filter></svg>