<svg xmlns="http://www.w3.org/2000/svg" stroke-linejoin="round" stroke-miterlimit="1.414" clip-rule="evenodd" filter="url(#saturation)" viewBox="0 0 24 24"><path fill="#0277bd" d="M19 20H4a2 2 0 0 1-2-2V6c0-1.11.89-2 2-2h6l2 2h7c1.097 0 2 .903 2 2H4v10l2.14-8h17.07l-2.28 8.5c-.23.87-1.01 1.5-1.93 1.5z"/><path fill="#fff" d="M15.3 8.869c-.39-.005-.72.213-1 .432-.32.244-.58.566-.67.989-.04.25-.03.47-.03.7v1.72c0 .61-.23 1.06-.54 1.36-.17.17-.54.33-.96.47v.78c.37.1.73.24.93.41.33.29.57.71.57 1.25v2.01c0 .67.16 1.18.62 1.53s1.01.53 1.62.54h.42v-1.01c-.32-.09-.5-.2-.63-.32-.24-.21-.37-.55-.37-1.03v-1.63c-.01-.55-.1-.98-.3-1.3-.2-.31-.59-.58-1.18-.82.65-.3 1.08-.68 1.3-1.16.13-.28.18-.66.18-1.14v-1.49c0-.5.12-.85.32-1.04.1-.11.29-.195.56-.268l.42.005v-.988H15.3zm3.95 0v.988l.43-.005c.26.073.45.158.56.268.2.19.31.54.31 1.04v1.49c0 .48.05.86.18 1.14.22.48.66.86 1.3 1.16-.58.24-.98.51-1.18.82-.2.32-.29.75-.3 1.3v1.63c0 .48-.13.82-.36 1.03-.13.12-.31.23-.63.32v1.01h.41c.62-.01 1.16-.19 1.62-.54.47-.35.63-.86.63-1.53v-2.01c0-.54.24-.96.57-1.25.19-.17.55-.31.93-.41v-.78c-.43-.14-.79-.3-.97-.47-.3-.3-.53-.75-.53-1.36v-1.72c0-.23.01-.45-.04-.7-.08-.423-.35-.745-.66-.989-.28-.219-.61-.437-1.01-.432h-1.26z"/><filter id="a"><feColorMatrix in="SourceGraphic" result="hue" type="hueRotate" values="-10"/><feColorMatrix in="hue" result="sat" type="saturate" values="2"/></filter><filter id="saturation"><feColorMatrix in="SourceGraphic" type="hueRotate" values="-10" result="hue" /><feColorMatrix in="hue" type="saturate" values="2" result="sat" /></filter></svg>