<svg xmlns="http://www.w3.org/2000/svg" xml:space="preserve" stroke-linejoin="round" stroke-miterlimit="1.414" clip-rule="evenodd" filter="url(#saturation)" viewBox="0 0 24 24"><path fill="#009688" d="M19 20H4a2 2 0 0 1-2-2V6c0-1.11.89-2 2-2h6l2 2h7c1.097 0 2 .903 2 2H4v10l2.14-8h17.07l-2.28 8.5c-.23.87-1.01 1.5-1.93 1.5z"/><path d="m9.725 9.25 7.103 12.258L23.93 9.309V9.25h-2.762l-4.299 7.385-4.281-7.385H9.725z" style="fill:#41b883;stroke-width:.69572" transform="matrix(1.00003 0 0 1.00003 0 0)"/><path d="m5.936 4.15 6.152 10.618L18.27 4.15h-3.723l-2.433 4.178L9.69 4.151z" style="fill:#35495e" transform="translate(8.458 6.362) scale(.69572)"/><filter id="a"><feColorMatrix in="SourceGraphic" result="hue" type="hueRotate" values="-10"/><feColorMatrix in="hue" result="sat" type="saturate" values="2"/></filter><filter id="saturation"><feColorMatrix in="SourceGraphic" type="hueRotate" values="-10" result="hue" /><feColorMatrix in="hue" type="saturate" values="2" result="sat" /></filter></svg>