<svg xmlns="http://www.w3.org/2000/svg" xml:space="preserve" fill-rule="evenodd" stroke-linejoin="round" stroke-miterlimit="1.414" clip-rule="evenodd" filter="url(#saturation)" viewBox="0 0 24 24"><path fill="#f9a825" d="M10 4H4c-1.11 0-2 .89-2 2v12c0 1.097.903 2 2 2h16c1.097 0 2-.903 2-2V8a2 2 0 0 0-2-2h-8l-2-2z"/><path fill="#fff" d="M19.017 17.774a1.196 1.196 0 0 0 1.196-1.196c0-.663-.538-1.195-1.196-1.195a1.196 1.196 0 0 0-1.196 1.196 1.196 1.196 0 0 0 1.196 1.195m3.587-5.38a1.196 1.196 0 0 1 1.195 1.196v5.977a1.196 1.196 0 0 1-1.196 1.196H15.43a1.196 1.196 0 0 1-1.195-1.196V13.59c0-.664.538-1.196 1.195-1.196h.598V11.2a2.989 2.989 0 0 1 2.989-2.99 2.989 2.989 0 0 1 2.989 2.99v1.195h.598m-3.587-2.989a1.793 1.793 0 0 0-1.793 1.794v1.195h3.586V11.2a1.793 1.793 0 0 0-1.793-1.794z"/><filter id="a"><feColorMatrix in="SourceGraphic" result="hue" type="hueRotate" values="-10"/><feColorMatrix in="hue" result="sat" type="saturate" values="2"/></filter><filter id="saturation"><feColorMatrix in="SourceGraphic" type="hueRotate" values="-10" result="hue" /><feColorMatrix in="hue" type="saturate" values="2" result="sat" /></filter></svg>