<svg xmlns="http://www.w3.org/2000/svg" fill-rule="evenodd" stroke-linejoin="round" stroke-miterlimit="1.414" clip-rule="evenodd" filter="url(#saturation)" viewBox="0 0 24 24"><path fill="#ff5252" d="M10 4H4c-1.11 0-2 .89-2 2v12c0 1.097.903 2 2 2h16c1.097 0 2-.903 2-2V8a2 2 0 0 0-2-2h-8l-2-2z"/><path fill="#fff" d="M21.995 11.082h-9.688a1.21 1.21 0 0 0-1.205 1.211l-.006 7.266c0 .666.545 1.211 1.21 1.211h9.689c.667 0 1.211-.545 1.211-1.21v-7.267c0-.667-.544-1.211-1.211-1.211zm0 2.422-4.844 3.028-4.844-3.028v-1.211l4.844 3.028 4.844-3.028z"/><filter id="a"><feColorMatrix in="SourceGraphic" result="hue" type="hueRotate" values="-10"/><feColorMatrix in="hue" result="sat" type="saturate" values="2"/></filter><filter id="saturation"><feColorMatrix in="SourceGraphic" type="hueRotate" values="-10" result="hue" /><feColorMatrix in="hue" type="saturate" values="2" result="sat" /></filter></svg>