<svg xmlns="http://www.w3.org/2000/svg" xml:space="preserve" fill-rule="evenodd" stroke-linejoin="round" stroke-miterlimit="1.414" clip-rule="evenodd" filter="url(#saturation)" viewBox="0 0 24 24"><path fill="#afb42b" d="M10 4H4c-1.11 0-2 .89-2 2v12c0 1.097.903 2 2 2h16c1.097 0 2-.903 2-2V8a2 2 0 0 0-2-2h-8l-2-2z"/><path fill="#fff" d="M20.671 9.434c-.325 0-.637.116-.876.355l-3.559 3.565 3.461 3.461 3.565-3.559a1.239 1.239 0 0 0 0-1.733l-1.74-1.734a1.197 1.197 0 0 0-.851-.355m-5.023 4.502-3.65 3.65a1.231 1.231 0 0 0 .012 1.747c-.748.753-1.507 1.507-2.26 2.26h3.466l.527-.527a1.23 1.23 0 0 0 1.721-.012l3.645-3.65"/><filter id="a"><feColorMatrix in="SourceGraphic" result="hue" type="hueRotate" values="-10"/><feColorMatrix in="hue" result="sat" type="saturate" values="2"/></filter><filter id="saturation"><feColorMatrix in="SourceGraphic" type="hueRotate" values="-10" result="hue" /><feColorMatrix in="hue" type="saturate" values="2" result="sat" /></filter></svg>