<svg xmlns="http://www.w3.org/2000/svg" fill-rule="evenodd" stroke-linejoin="round" stroke-miterlimit="1.414" clip-rule="evenodd" filter="url(#saturation)" viewBox="0 0 24 24"><path fill="#0277bd" fill-rule="nonzero" d="M19 20H4a2 2 0 0 1-2-2V6c0-1.11.89-2 2-2h6l2 2h7c1.097 0 2 .903 2 2H4v10l2.14-8h17.07l-2.28 8.5c-.23.87-1.01 1.5-1.93 1.5z"/><path fill="#fff" fill-rule="nonzero" d="M18.58 12.86h3.71l-3.71-3.713v3.713m-4.73-4.726h5.4l4.05 4.046v8.1c0 .75-.61 1.35-1.35 1.35h-8.1c-.75 0-1.35-.6-1.35-1.35V9.484c0-.749.6-1.35 1.35-1.35m6.07 10.796v-1.35h-6.07v1.35h6.07m2.03-2.7v-1.35h-8.1v1.35z"/><filter id="a"><feColorMatrix in="SourceGraphic" result="hue" type="hueRotate" values="-10"/><feColorMatrix in="hue" result="sat" type="saturate" values="2"/></filter><filter id="saturation"><feColorMatrix in="SourceGraphic" type="hueRotate" values="-10" result="hue" /><feColorMatrix in="hue" type="saturate" values="2" result="sat" /></filter></svg>