<svg xmlns="http://www.w3.org/2000/svg" xml:space="preserve" fill-rule="evenodd" stroke-linejoin="round" stroke-miterlimit="1.414" clip-rule="evenodd" filter="url(#saturation)" viewBox="0 0 24 24"><path fill="#ff7043" d="M10 4H4c-1.11 0-2 .89-2 2v12c0 1.097.903 2 2 2h16c1.097 0 2-.903 2-2V8a2 2 0 0 0-2-2h-8l-2-2z"/><path fill="#fff" d="M17.338 9.322a6.186 6.186 0 0 1 6.186 6.186 6.186 6.186 0 0 1-6.186 6.187 6.186 6.186 0 0 1-6.186-6.187 6.186 6.186 0 0 1 6.186-6.186m0 5.258a.928.928 0 0 0-.928.928.928.928 0 0 0 .928.928.928.928 0 0 0 .928-.928.928.928 0 0 0-.928-.927m-3.403 0a.928.928 0 0 0-.928.927.928.928 0 0 0 .928.928.928.928 0 0 0 .928-.928.928.928 0 0 0-.928-.927m6.806 0a.928.928 0 0 0-.928.927.928.928 0 0 0 .928.928.928.928 0 0 0 .928-.928.928.928 0 0 0-.928-.927z"/><filter id="a"><feColorMatrix in="SourceGraphic" result="hue" type="hueRotate" values="-10"/><feColorMatrix in="hue" result="sat" type="saturate" values="2"/></filter><filter id="saturation"><feColorMatrix in="SourceGraphic" type="hueRotate" values="-10" result="hue" /><feColorMatrix in="hue" type="saturate" values="2" result="sat" /></filter></svg>