<svg xmlns="http://www.w3.org/2000/svg" fill-rule="evenodd" stroke-linejoin="round" stroke-miterlimit="1.414" clip-rule="evenodd" filter="url(#saturation)" viewBox="0 0 24 24"><path fill="#757575" d="M10 4H4c-1.11 0-2 .89-2 2v12c0 1.097.903 2 2 2h16c1.097 0 2-.903 2-2V8a2 2 0 0 0-2-2h-8l-2-2z"/><path fill="#fff" d="M20.182 9.703h-7.667c-.71 0-1.278.575-1.278 1.278v8.945c0 .702.569 1.277 1.278 1.277h8.945c.702 0 1.277-.575 1.277-1.277v-7.667zm-3.195 10.223a1.914 1.914 0 0 1-1.916-1.917c0-1.06.856-1.917 1.916-1.917s1.917.856 1.917 1.917c0 1.06-.856 1.917-1.917 1.917zm1.917-6.39h-6.389v-2.555h6.389z"/><filter id="a"><feColorMatrix in="SourceGraphic" result="hue" type="hueRotate" values="-10"/><feColorMatrix in="hue" result="sat" type="saturate" values="2"/></filter><filter id="saturation"><feColorMatrix in="SourceGraphic" type="hueRotate" values="-10" result="hue" /><feColorMatrix in="hue" type="saturate" values="2" result="sat" /></filter></svg>