<svg xmlns="http://www.w3.org/2000/svg" fill-rule="evenodd" stroke-linejoin="round" clip-rule="evenodd" filter="url(#saturation)" viewBox="0 0 24 24"><path fill="#f06292" fill-rule="nonzero" d="M10 4H4c-1.11 0-2 .89-2 2v12c0 1.097.903 2 2 2h16c1.097 0 2-.903 2-2V8a2 2 0 0 0-2-2h-8l-2-2z"/><path fill="#fff" stroke="#fff" d="M22.89 10.06c-.38-1.471-2.82-1.952-5.14-1.132-1.37.489-2.86 1.252-3.93 2.262-1.28 1.19-1.48 2.23-1.39 2.66.29 1.53 2.38 2.53 3.25 3.27v.01c-.26.12-2.12 1.06-2.55 2.02-.46 1.02.07 1.74.42 1.84 1.09.31 2.22-.24 2.82-1.14.58-.86.53-1.98.28-2.54.34-.09.75-.13 1.27-.07 1.45.17 1.74 1.08 1.68 1.46-.05.38-.36.59-.46.65s-.13.09-.12.13c.01.07.06.07.14.05.13-.02.77-.31.8-1.01.03-.89-.82-1.89-2.34-1.86-.62.01-1.01.07-1.29.17a.234.234 0 0 1-.07-.07c-.93-1-2.66-1.7-2.59-3.04.03-.49.2-1.77 3.32-3.33 2.57-1.28 4.61-.928 4.97-.15.5 1.11-1.1 3.18-3.76 3.48-1.01.11-1.54-.28-1.67-.43-.15-.15-.17-.16-.22-.13-.08.05-.03.18 0 .26.08.21.41.58.96.76.49.16 1.68.25 3.12-.31 1.61-.62 2.87-2.36 2.5-3.81zm-6.86 7.52c.12.44.11.86-.01 1.24-.02.04-.03.08-.05.12s-.03.08-.05.12c-.1.2-.23.39-.39.56-.48.53-1.15.73-1.44.56-.31-.18-.16-.93.4-1.52.6-.63 1.47-1.04 1.47-1.04.02-.01.05-.03.07-.04z"/><filter id="a"><feColorMatrix in="SourceGraphic" result="hue" type="hueRotate" values="-10"/><feColorMatrix in="hue" result="sat" type="saturate" values="2"/></filter><filter id="saturation"><feColorMatrix in="SourceGraphic" type="hueRotate" values="-10" result="hue" /><feColorMatrix in="hue" type="saturate" values="2" result="sat" /></filter></svg>