<svg xmlns="http://www.w3.org/2000/svg" fill-rule="evenodd" stroke-linejoin="round" stroke-miterlimit="1.414" clip-rule="evenodd" filter="url(#saturation)" viewBox="0 0 24 24"><path fill="#546e7a" fill-rule="nonzero" d="M19 20H4a2 2 0 0 1-2-2V6c0-1.11.89-2 2-2h6l2 2h7c1.097 0 2 .903 2 2H4v10l2.14-8h17.07l-2.28 8.5c-.23.87-1.01 1.5-1.93 1.5z"/><path fill="#fff" fill-rule="nonzero" d="M18.47 20.24c.69 0 1.25-.57 1.25-1.26V10.8h-4.4c-.35 0-.63.29-.63.63v6.29H12.8V10.8c0-1.033.85-1.885 1.89-1.885h6.92c1.04 0 1.89.852 1.89 1.885v.63h-2.52v8.18c0 1.04-.85 1.89-1.89 1.89H12.8c-1.03 0-1.88-.85-1.88-1.89v-.63h6.29c0 .69.56 1.26 1.26 1.26z"/><filter id="a"><feColorMatrix in="SourceGraphic" result="hue" type="hueRotate" values="-10"/><feColorMatrix in="hue" result="sat" type="saturate" values="2"/></filter><filter id="saturation"><feColorMatrix in="SourceGraphic" type="hueRotate" values="-10" result="hue" /><feColorMatrix in="hue" type="saturate" values="2" result="sat" /></filter></svg>