<svg xmlns="http://www.w3.org/2000/svg" fill-rule="evenodd" stroke-linejoin="round" stroke-miterlimit="1.414" clip-rule="evenodd" filter="url(#saturation)" viewBox="0 0 24 24"><path fill="#1e88e5" fill-rule="nonzero" d="M10 4H4c-1.11 0-2 .89-2 2v12c0 1.097.903 2 2 2h16c1.097 0 2-.903 2-2V8a2 2 0 0 0-2-2h-8l-2-2z"/><path fill="#fff" stroke="#fff" stroke-linecap="round" stroke-miterlimit="0" stroke-width=".2" d="M17.13 8.689a1.924 1.924 0 0 0-1.55 2.771l-2.16 1.61c-.04-.03-.1-.05-.16-.07-.41-.13-.84.09-.97.5s.1.84.5.96c.4.14.84-.09.97-.5a.67.67 0 0 0 .01-.42l2.67-1.96c-.34-.34-.54-.87-.37-1.37.21-.684.95-1.062 1.63-.845.54.173.9.675.91 1.215l.62.01a1.936 1.936 0 0 0-1.34-1.818 1.972 1.972 0 0 0-.77-.083zm.23 1.223c-.43 0-.78.348-.78.768 0 .43.35.77.78.77.14 0 .29-.04.4-.11l2.69 1.95c.21-.43.67-.77 1.2-.77.72 0 1.3.58 1.3 1.3 0 .57-.37 1.06-.89 1.24l.18.6c.77-.25 1.34-.98 1.34-1.84 0-1.06-.87-1.93-1.93-1.93-.53 0-.99.22-1.34.55l-2.2-1.58c.02-.06.02-.12.02-.18 0-.42-.35-.768-.77-.768zm-4.33 1.868c-.59 0-1.19.27-1.56.78-.61.85-.42 2.05.43 2.67.42.3.92.42 1.4.35l.85 2.55a.759.759 0 0 0 .05 1.2c.34.25.82.18 1.07-.17.24-.33.16-.81-.17-1.06a.875.875 0 0 0-.4-.14l-1.03-3.15c-.42.23-.98.23-1.41-.08-.57-.42-.7-1.23-.28-1.8.33-.46.92-.63 1.43-.47l.2-.58c-.19-.06-.39-.09-.58-.1zm8.65 1.26c-.11 0-.21.01-.31.04-.4.14-.62.57-.49.97.04.13.13.25.23.34l-1.04 3.14c.48.06.95.4 1.1.89.22.68-.15 1.41-.83 1.63-.55.17-1.12-.03-1.45-.46l-.51.34c.47.66 1.34.97 2.15.7 1.01-.33 1.56-1.4 1.24-2.4a2 2 0 0 0-.92-1.11l.82-2.55c.06 0 .12-.01.17-.03.41-.14.63-.57.5-.97-.1-.3-.36-.5-.66-.52zm-8.56 4.57c-.48.66-.5 1.57 0 2.26a1.92 1.92 0 0 0 2.68.42c.41-.31.67-.75.76-1.23l2.68-.02c.03.05.05.11.09.15.25.35.73.42 1.07.17s.42-.73.17-1.08a.775.775 0 0 0-1.07-.16c-.13.09-.21.2-.26.34l-3.31.01c.09.46-.08 1.01-.5 1.32-.58.42-1.38.29-1.81-.28-.34-.47-.32-1.07-.01-1.51z"/><filter id="a"><feColorMatrix in="SourceGraphic" result="hue" type="hueRotate" values="-10"/><feColorMatrix in="hue" result="sat" type="saturate" values="2"/></filter><filter id="saturation"><feColorMatrix in="SourceGraphic" type="hueRotate" values="-10" result="hue" /><feColorMatrix in="hue" type="saturate" values="2" result="sat" /></filter></svg>