<svg xmlns="http://www.w3.org/2000/svg" fill-rule="evenodd" stroke-linejoin="round" stroke-miterlimit="1.414" clip-rule="evenodd" filter="url(#saturation)" viewBox="0 0 24 24"><path fill="#f06292" fill-rule="nonzero" d="M10 4H4c-1.11 0-2 .89-2 2v12c0 1.097.903 2 2 2h16c1.097 0 2-.903 2-2V8a2 2 0 0 0-2-2h-8l-2-2z"/><path fill="#fff" d="M14.7 8.734 12.2 10.4l2.07 3.11.13.2.25.38 2.51-1.67-.38-.57-2.08-3.116zm3.13.493-1.23.823 1.26 1.89h.01l1.23-.82-1.27-1.893zm3.66.833-11.06 7.4 2.07 3.13 11.17-7.45-2.18-3.08zm-9.68 1.34-.71.47.48.71.7-.47-.47-.71zm.93 1.23-1.9 1.27 1.26 1.89.42-.27 1.49-1-.38-.57h-.01l-.88-1.32zm8.92 2.35-.53.35-.7.47.37.54.46.7 1.23-.82-.83-1.24zm-1.93 1.29-2.5 1.67.36.55 2.1 3.14 2.5-1.67-2.1-3.14-.36-.55zm-3.16 2.11-1.49.99-.41.28.83 1.24 1.9-1.27-.46-.7-.37-.54zm-2.21 1.5-.71.48.48.7.7-.47-.47-.71z"/><filter id="a"><feColorMatrix in="SourceGraphic" result="hue" type="hueRotate" values="-10"/><feColorMatrix in="hue" result="sat" type="saturate" values="2"/></filter><filter id="saturation"><feColorMatrix in="SourceGraphic" type="hueRotate" values="-10" result="hue" /><feColorMatrix in="hue" type="saturate" values="2" result="sat" /></filter></svg>