<svg xmlns="http://www.w3.org/2000/svg" fill-rule="evenodd" stroke-linejoin="round" stroke-miterlimit="1.414" clip-rule="evenodd" filter="url(#saturation)" viewBox="0 0 24 24"><path fill="#ec407a" fill-rule="nonzero" d="M10 4H4c-1.11 0-2 .89-2 2v12c0 1.097.903 2 2 2h16c1.097 0 2-.903 2-2V8a2 2 0 0 0-2-2h-8l-2-2z"/><path fill="#fff" d="M17.49 8.125c-.08.001-.16.011-.24.027-.8.097-1.2.905-1.12 1.625-.39.243-.79.503-1.2.703-.46.26-.91.52-1.37.78-.34-.28-.81-.41-1.25-.3-1.23.23-1.44 2.2-.26 2.65.04.02.09.05.13.06v2.92c-1.05.37-1.28 2.12-.17 2.62.51.29 1.11.15 1.54-.2.87.48 1.73.99 2.6 1.49-.1.58.1 1.2.67 1.47.98.64 2.35-.43 2.09-1.51.83-.48 1.66-.97 2.49-1.45.06.05.13.1.2.14 1.01.69 2.55-.43 2.12-1.61-.13-.43-.46-.76-.86-.92-.01-.99-.01-1.98-.01-2.97.67-.28 1.16-1.03.84-1.77-.21-.61-.84-1.03-1.48-.95-.3.01-.55.13-.75.31-.85-.49-1.7-.97-2.55-1.463.05-.258.03-.532-.11-.797a1.437 1.437 0 0 0-1.31-.855zm1.31 2.725c.74.41 1.46.84 2.19 1.27-.09.54.08 1.12.61 1.41.09.06.18.11.27.15v2.48c-1.02-1.77-2.04-3.54-3.07-5.31zm-2.64.05c-.99 1.73-2 3.46-3 5.2v-2.45c.59-.26 1.03-.9.92-1.54.69-.4 1.39-.81 2.08-1.21zm1.56.04c1.2 2.03 2.36 4.08 3.53 6.12-.08.12-.15.25-.2.39h-7.06c-.01-.02-.02-.05-.03-.07-.05-.12-.12-.24-.2-.34l3.51-6.09c.15.03.3.02.45-.01zm-3.21 7.49h6.1c-.73.41-1.44.84-2.16 1.26-.33-.28-.78-.42-1.2-.33-.25.03-.47.13-.64.28-.7-.4-1.4-.8-2.1-1.21z"/><filter id="a"><feColorMatrix in="SourceGraphic" result="hue" type="hueRotate" values="-10"/><feColorMatrix in="hue" result="sat" type="saturate" values="2"/></filter><filter id="saturation"><feColorMatrix in="SourceGraphic" type="hueRotate" values="-10" result="hue" /><feColorMatrix in="hue" type="saturate" values="2" result="sat" /></filter></svg>