<svg xmlns="http://www.w3.org/2000/svg" fill-rule="evenodd" stroke-linejoin="round" stroke-miterlimit="1.414" clip-rule="evenodd" filter="url(#saturation)" viewBox="0 0 24 24"><path fill="#4caf50" fill-rule="nonzero" d="M10 4H4c-1.11 0-2 .89-2 2v12c0 1.097.903 2 2 2h16c1.097 0 2-.903 2-2V8a2 2 0 0 0-2-2h-8l-2-2z"/><g fill="#fff" fill-rule="nonzero" stroke-width=".707"><path d="M15.6 21.68c-.05 0-.1-.01-.15-.02a.733.733 0 0 1-.51-.86l1.91-10.2c.04-.19.15-.36.32-.48.14-.1.32-.124.49-.08.36.1.59.48.51.85l-1.91 10.2c-.04.2-.15.37-.32.48-.1.07-.22.11-.34.11zM19.44 20.23h-.05a.627.627 0 0 1-.47-.26c-.23-.31-.2-.74.07-1l3.29-3.23L19 12.75a.79.79 0 0 1-.1-1c.11-.16.28-.26.47-.28.18-.03.36.04.5.17l3.87 3.53c.27.26.31.69.1 1-.03.04-.06.08-.1.12l-3.85 3.76c-.12.12-.28.18-.45.18zM13.67 20.24a.681.681 0 0 1-.45-.19l-3.854-3.77a.395.395 0 0 1-.092-.11.763.763 0 0 1 .099-.99l3.867-3.54c.13-.12.31-.19.49-.17.2.02.36.13.48.29.21.31.17.73-.1 1l-3.28 2.99 3.29 3.22c.27.26.3.69.07 1a.67.67 0 0 1-.47.27z"/></g><filter id="a"><feColorMatrix in="SourceGraphic" result="hue" type="hueRotate" values="-10"/><feColorMatrix in="hue" result="sat" type="saturate" values="2"/></filter><filter id="saturation"><feColorMatrix in="SourceGraphic" type="hueRotate" values="-10" result="hue" /><feColorMatrix in="hue" type="saturate" values="2" result="sat" /></filter></svg>