<svg xmlns="http://www.w3.org/2000/svg" fill="none" filter="url(#saturation)" viewBox="0 0 24 24"><g clip-path="url(#b)"><path fill="#009688" d="M19 20H4a2 2 0 0 1-2-2V6c0-1.11.89-2 2-2h6l2 2h7c1.097 0 2 .903 2 2H4v10l2.14-8h17.07l-2.28 8.5c-.23.87-1.01 1.5-1.93 1.5z" style="fill:#546e7a"/><path d="M14.174 20.696H9.676l5.842-10.078 5.843 10.078h-4.47" style="fill:#41b883"/><path d="M20.786 20.696h3.1l-5.068-8.71-5.025 8.71h3.1" style="fill:#328170"/><path d="M18.946 20.696h2.283l-3.734-6.416-3.702 6.416h2.284" style="fill:#35495e"/></g><defs><clipPath id="b"><path fill="#fff" d="M0 0h24v24H0z"/></clipPath></defs><filter id="a"><feColorMatrix in="SourceGraphic" result="hue" type="hueRotate" values="-10"/><feColorMatrix in="hue" result="sat" type="saturate" values="2"/></filter><filter id="saturation"><feColorMatrix in="SourceGraphic" type="hueRotate" values="-10" result="hue" /><feColorMatrix in="hue" type="saturate" values="2" result="sat" /></filter></svg>