<svg xmlns="http://www.w3.org/2000/svg" filter="url(#saturation)" viewBox="0 0 24 24"><path d="M0 51.6v103.17l89.35 51.58V185.6l-71.61-41.02V61.87l.03-.02z" class="cls-1" style="fill:#0288d1" transform="translate(2.561 1.102) scale(.10563)"/><path d="m35.77 72.25-.03.02v61.88l53.61 30.71v-61.68z" class="cls-1" style="fill:#0288d1" transform="translate(2.561 1.102) scale(.10563)"/><path d="M89.35 0 0 51.59v.01l17.77 10.25 71.58-41.3 71.63 41.28 17.72-10.22v.01h.01v-.01z" class="cls-2" style="fill:#29b6f6" transform="translate(2.561 1.102) scale(.10563)"/><path d="M89.36 41.33 35.77 72.25l53.58 30.93 53.62-30.95z" class="cls-2" style="fill:#29b6f6" transform="translate(2.561 1.102) scale(.10563)"/><path d="M89.35 103.18v.01zM142.98 72.23h-.01l-53.62 30.95zM160.99 61.84l17.71-10.22v-.01l-17.72 10.22z" class="cls-3" style="fill:#0092cf" transform="translate(2.561 1.102) scale(.10563)"/><path d="m160.99 61.84-.01-.01-18.01 10.4h.01z" class="cls-4" style="fill:#e8bfd8" transform="translate(2.561 1.102) scale(.10563)"/><path d="M178.7 154.78V51.62l-17.71 10.22-18.01 10.39-53.63 30.95v9.23h-.01v24.5h.01v27.95l53.67-30.72v-20.48l-36.01 20.49v-20.71l54.01-30.74v61.88L89.35 185.6v20.75z" class="cls-3" style="fill:#039be5" transform="translate(2.561 1.102) scale(.10563)"/><filter id="a"><feColorMatrix in="SourceGraphic" result="hue" type="hueRotate" values="-10"/><feColorMatrix in="hue" result="sat" type="saturate" values="2"/></filter><filter id="saturation"><feColorMatrix in="SourceGraphic" type="hueRotate" values="-10" result="hue" /><feColorMatrix in="hue" type="saturate" values="2" result="sat" /></filter></svg>