<svg xmlns="http://www.w3.org/2000/svg" filter="url(#saturation)" viewBox="0 0 400 400"><path fill="#ec407a" d="M199.2 17.01c-12.5.21-24.8 7.44-30.7 18.54-3.7 6.85-5.2 14.91-4 22.64l.3 1.81C142 73.19 119.2 86.37 96.39 99.54c-6.57-5.83-15.33-9.14-24.12-9.01-10.29.04-20.45 4.78-27.07 12.67-5.82 6.9-8.97 16-8.48 25 .52 11.9 7.42 23.4 17.83 29.3 2.08 1.2 4.3 2.2 6.59 2.9v79.1c-8.83 3.1-16.42 9.6-20.58 18-4.39 8.6-4.95 19-1.7 28.1 2.4 6.9 7.01 13 12.95 17.2 8.71 6.2 20.26 8.3 30.54 5.3 5.09-1.5 9.92-4 13.84-7.5.57-.2.94.4 1.44.6 22.37 12.9 44.77 26 67.07 38.9-1 5-.9 10.2.4 15.2 1.5 6.5 5 12.7 9.8 17.4 6.4 6.3 15.1 10.1 24.1 10.2 11.8.4 23.6-5.3 30.3-15 5.4-7.6 7.8-17.4 6.1-26.6-.1-.8-.3-1.5-.4-2.3 22.6-13 45.2-26.1 67.8-39.2 4.3 4 9.6 7 15.3 8.4 8 2.1 16.7 1.4 24.2-2.1 8.3-3.8 15.2-10.9 18.5-19.5 3.5-9 3.4-19.6-.9-28.3-1.1-2.3-2.4-4.5-3.9-6.5-2.1-2.8-4.7-5.2-7.6-7.3s-6.1-3.7-9.5-4.9v-79.2c5.2-1.8 10-4.7 13.8-8.6 6.3-6.2 10.2-14.8 10.6-23.7.4-9.8-3.2-19.8-10.2-26.8-7.7-7.95-19.2-11.95-30.2-10.49-7.2.88-13.9 4.05-19.3 8.74C280.8 86.36 258 73.18 235.2 60c.4-1.74.6-3.53.7-5.32.4-7.04-1.4-14.19-5.1-20.21-2.4-3.88-5.4-7.38-9-10.13-6.1-4.65-13.6-7.29-21.3-7.33-.4-.01-.9 0-1.3 0zm-46.8 95.19c-22.7 39.3-45.4 78.6-68.08 117.9v-69.8c4.77-1.7 9.28-4.2 12.95-7.7 6.43-6 10.43-14.4 11.03-23.2.3-3.2.1-6.5-.5-9.7 20.1-11.8 40.3-23.32 60.4-34.92-5.2 9.15-10.5 18.32-15.8 27.42zm79.5-27.29c15.5 8.9 31 17.89 46.5 26.79 4.6 2.6 9.2 5.3 13.8 8-1.3 7.2-.6 14.8 2.5 21.5 2.9 6.4 7.6 11.9 13.6 15.6 2.3 1.5 4.8 2.6 7.4 3.6V230c-27.9-48.4-55.8-96.8-83.8-145.11zm-38.8 3.2c4.5.93 9.3.86 13.8.02C238.1 142 269.2 195.9 300.4 249.9c-3.1 3.6-5.6 7.6-7.1 12.1H106.7c-1.6-4.4-3.9-8.6-7.03-12.1C130.8 196 161.9 142 193.1 88.1zM116 285.1h169.7c-20.5 11.8-40.9 23.7-61.4 35.5-4.3-3.9-9.4-6.9-15.1-8.2l-2.4-.6c-.2 0-.9-.1-1.3-.2-10.3-1.6-21.2 1.5-29 8.3-20.2-11.6-40.3-23.2-60.5-34.8z"/><filter id="a"><feColorMatrix in="SourceGraphic" result="hue" type="hueRotate" values="-10"/><feColorMatrix in="hue" result="sat" type="saturate" values="2"/></filter><filter id="saturation"><feColorMatrix in="SourceGraphic" type="hueRotate" values="-10" result="hue" /><feColorMatrix in="hue" type="saturate" values="2" result="sat" /></filter></svg>