<svg xmlns="http://www.w3.org/2000/svg" filter="url(#saturation)" viewBox="0 0 300 300"><path fill="#27ae60" stroke="#27ae60" stroke-width="8" d="M246.9 107.7c-12.3-6.9-27.7 2.1-30.1 3.6L164 141.4c-7.8-6.3-18.9-6-26.4.5-7.6 6.6-9.3 17.6-4.2 26.2 5.1 8.5 15.6 12.2 25 8.7 9.3-3.5 14.8-13.1 13.1-22.9l52.6-29.9.3-.2c3.5-2.2 11.6-5.5 15.3-3.4 2.7 1.5 4.3 6.7 4.4 14.2h-.1v66.1c0 6.2-3.2 11.9-8.6 14.9l-75.8 43.8c-5.3 3-11.8 3-17.2 0l-75.75-43.8c-5.34-3-8.63-8.7-8.63-14.9v-87.5c0-6.1 3.29-11.8 8.63-14.93l68.55-39.56c6.5 7.48 17.4 9.25 26 4.21 8.5-5.05 12.3-15.47 8.8-24.8-3.3-9.32-12.9-14.9-22.7-13.27-9.8 1.64-17 10.02-17.2 19.95L59.4 85.63a31.865 31.865 0 0 0-15.98 27.57v87.4c.01 11.5 6.08 22 15.92 27.7L135.1 272c9.8 5.7 22 5.7 31.8 0l75.8-43.7c9.8-5.7 15.9-16.2 15.9-27.6v-63.5h.1c.3-15-3.7-24.9-11.8-29.5z"/><filter id="a"><feColorMatrix in="SourceGraphic" result="hue" type="hueRotate" values="-10"/><feColorMatrix in="hue" result="sat" type="saturate" values="2"/></filter><filter id="saturation"><feColorMatrix in="SourceGraphic" type="hueRotate" values="-10" result="hue" /><feColorMatrix in="hue" type="saturate" values="2" result="sat" /></filter></svg>