<svg xmlns="http://www.w3.org/2000/svg" filter="url(#saturation)" viewBox="0 0 300 300"><path fill="#fba919" d="M61.05 79.22s4.72 18.16 5.39 24.28c.68 6-12.13 19.5-12.13 26.3 0 6.7 2.69 18.8 17.52 24.9 14.82 6.1 16.85 21.5 16.85 31 0 9.4-5.4 27.6-5.4 27.6s-3.36 45.2 14.86 53.2c18.16 8.2 14.16 8.2 18.16 8.2s33.7 12.1 51.2 7.4c17.6-4.7 22.2-10.1 22.2-10.1s17.6 1.4 23-14.2c5.3-15.5 8.7-47.8 6.7-62.7-2-14.8-4.7-34.3 7.4-41.1 12.1-6.7 24.9-14.8 22.9-21.5-2-6.8-12.8-16.2-12.8-16.2s-2.7-16.87-.7-20.9c2.1-4.02 14.1-14.14 7.4-21.55s-18.8-7.41-18.8-7.41l-15.6 1.34S183 44.19 148.6 45.54c-34.3 1.35-55.89 22.24-55.89 22.24s-11.45-4.05-21.56 0c-10.11 4.04-12.13 0-10.1 11.45z"/><g fill="#e78724" stroke-width=".822"><path d="M122.6 179.5s-13.4 20.5-23.14 35c-1.48 2.2 9.84 2.4 9.84 2.4zm6.4-42.2s-4.1 10-6.3 15.3c-2.4 5.8-11.5 8.7-11.5 8.7s4.8-5 4.8-17.5c0-5.3 6.8-7.4 6.8-7.4z"/><path d="M124.9 142.9s-8.3 9.8-23.6 4.3c-15.24-5.4-16.81-25.1-16.81-30.6s29.01 5.5 33.01 7.9c3.9 2.3 11.3 11.8 7.4 18.4zM67.11 38.09s14.12-2.75 23.55 4.7c9.44 7.46 12.14 13.35 12.14 13.35L86.94 68.73s-7.66-3.56-10.02-13.77c-2.35-10.2-.78-14.9-9.81-16.87z"/><path d="M120.8 114.6c-6-8.7-16.1-12.4-24.14-13-13.62-1.1-20.1 3.8-20.1 3.8s22.32.9 28.84 9.3c12 15.8 29.4 17.1 32.2 13.6-3.2.2-6.7-1.5-10.6-5-2.4-2.3-4.3-5.9-6.2-8.7zm-37.73 30.6s-24.8-8.6-20.09-17.2c4.71-8.7.96-13.4.96-13.4s-13.85 10.3-10.32 21.3c2.17 6.8 5.81 11.6 25.79 21 9.6 17.9 1.97 49.8 2.43 50 .76.3 13.42-6.2 12.6-36.3-.25-9.2-.99-21.7-11.37-25.5zm32.53-91.75c-10.5 5.28-24.7 12.64-24.7 12.64l5.6 2.8c-.5.87-.74 1.39-.74 1.39l5.74 2.61s14 10.18 22.6 16.72c-2.9-8.83-11.2-22.71-11.2-22.71s-2.4-6.39 2.7-13.45zm34.5 215.25c-32 0-42.7-16.2-42.7-16.2l4.9 12.2c1.9 5.3 22 21.6 37.7 21.6"/><path d="M110.8 241.6s3 17.9 14.7 17.9c10.1 0 13-15.1 13-18.2zm-19.57-27.1c1.07-2.9 4.69-14.5 5.84-25.1 1.48-12.8.91-31.3.91-31.3s-3.13 12.2-5.84 14.2c-2.8 1.9-7.88 15.3-7.88 15.3s-2.74 19.8-4.04 26.5c3.6.7 6.63-1.4 11.01.4zM62.8 135.8s6.67-2.4 8.63-17c1.96-14.4-2.36-27.01-2.36-27.01s.4 20.01-1.96 23.91c-2.35 4-4.32 5.1-7.07 10.2-2.74 5.1 1.18 8.3 2.76 9.9z"/></g><g stroke-width=".822"><path fill="#fdc168" d="m70.76 41.53-1.37-.87c-4.01.14 1.37.87 1.37.87z"/><path fill="#fba919" d="M121 49.15s-6.2-1.05-9.5-5.76c-3.1-4.71-11.96-14.13-26.14-14.23-14.17-.11-28.2 3.77-28.2 3.77l12.24 7.73c1.29-.05 3.56-.03 7.3.09 15.36.51 17.74 15.71 17.74 15.71L148.6 49"/><path fill="#fff" d="M126.3 133.1s-7.4 7.4-18.6 5c-11.29-2.4-18.11-7.3-18.6-16-.58-8.6 2.3-12.1 2.3-12.1s12.6 4 18.6 9.3c6.1 5.1 10.5 13.5 16.3 13.8z"/><path fill="#c9c9c9" d="M117.4 130.5s-6.4 2.9-13.5.5c-9.29-3.1-9.95-12.7-9.95-12.7s-5.68 16.7 10.35 19.9c12.8 2.6 20.4-4.8 20.4-4.8z"/></g><g fill="#463014" stroke-width=".822"><path d="M121.9 45.6c-.7-14.36 11-25.79 15.1-26.28.3 2.44-.2 11.92 3.9 14.84 1.2-7.75 5.2-16.29 21.1-21.89-3.5 9-.5 16.54.9 20.03 10.8-9.82 18-8.2 18-8.2s-7.4 12.98-4.5 21.5c-21.7-1.71-54.4 2.3-54.5 0zM75.82 67.46c-5.19-4.3-1.32-8.29-1.73-13.18-.22-2.6-.43-5.05-1.28-6.4-4.77-7.53-16.02-9.81-16.14-9.84L51.39 37l3.5-4.08c.45-.54 14.81-14.23 37-7.06 15.51 5.01 27.01 22.01 27.51 22.7l-7.8 3.66c-.1-.14-9.2-16.12-22.5-20.42-10.78-3.48-20.72-.17-24.98 2 4.52 1.81 10.44 5.1 14.01 10.72 1.68 2.66 1.96 6 2.23 9.24.36 4.29.7 8.33 3.86 10.96l-8.39 2.74zM61.98 130.3s6.53-8.2 8.47-24c.75-6.1-.6-18.37-2.76-23.08.4 11.61-2.55 23.08-2.55 23.08s-1.98 21.6-3.16 24z"/><path d="M96.41 59.28c0-.02-2.05-9.16-7.89-13.77-8.18-6.51-18.17-3.05-18.26-3.02l-1.46-4.48c.49-.16 11.92-3.75 22.43 3.65 10.57 7.43 11.87 14.18 11.97 14.92zM82.49 124.4s-3.43-4.9-2.81-10.2c.3-2.8 1.54-5.5 3.74-6.5 4.11-1.8 5.92 2.9 5.92 2.9s-5.77 1.4-6.85 13.8z"/><path d="M120.1 131.9c.2.3.2.4.2.4s-10.6 8-21.58-.1c-5.92-4.4-5.35-15.2-3.54-19.7 4.69 1.1 8.62 3 11.92 5.2-4.2-3.7-7.81-6.5-7.81-6.6l-4.77-1.3-9.24-3.2c-.11.7-3.49 16.5 6.28 27.3 4.28 4.8 24.54 15.4 34.14-2.8z"/><path d="M119.1 133.1c6 9.1 21.2 3.9 20.9-5.8 0 0-10.1 5.6-19.1-4.7-5.2-6-21.94-22.6-44.7-17.1 15.69 3.5 36.5 17.8 42.9 27.6z"/><path d="M74.08 158.9c1.45.8 6.55 6.2 6.55 14 0 4-.39 23.9-2.36 36.1 2.96 1.9 5.01 2.3 7.96 4.2 1.47-14 2.54-34.4 2.04-42.7-.57-9.4-5.6-15.7-10.27-18.4-1.45-.9-2.98-1.7-4.52-2.5-7.99-4.3-16.26-8.8-16.26-16.4 0-6 2.32-7.9 4.78-9.8l.26-.2c1.63-1.3 3.48-2.8 4.58-5.3 2.98-6.7 3.47-23.77 0-28.1-1.73-2.17-6.37-9.44-5.04-14.31.51-1.87 1.69-3.25 3.6-4.23 2.02-1.03 4.75-1.56 8.11-1.56 6.61 0 13.93 2.01 17.72 3.21C104.7 77.18 121 89.52 125.7 93.2l.2.17 3 2.12-1.9-3.17c-.1-.2-11.9-19.66-33.05-26.8-4.11-1.39-12.24-3.71-20.19-3.71-4.73 0-8.75.82-11.93 2.45-3.87 1.98-6.5 5.14-7.59 9.14-2.67 9.8 6.03 20.71 6.33 21.07 1.02 1.84 1.45 15.03-.9 20.23-.32.7-1.2 1.4-2.32 2.3-.35.4-.74.6-1.16.9-3.31 2.5-8.31 6.3-8.31 15 0 11.8 12.07 18.3 21.75 23.5 1.6.8 3.11 1.7 4.48 2.5z"/><path d="M75.82 67.46c-5.19-4.3-1.32-8.29-1.73-13.18-.22-2.6-.43-5.05-1.28-6.4-4.77-7.53-16.02-9.81-16.14-9.84L51.39 37l3.5-4.08c.45-.54 14.81-14.23 37-7.06 15.51 5.01 27.01 22.01 27.51 22.7l-7.8 3.66c-.1-.14-9.2-16.12-22.5-20.42-10.78-3.48-20.72-.16-24.98 2 4.52 1.81 10.44 5.1 14.01 10.72 1.68 2.66 1.96 6 2.23 9.24.36 4.29.7 8.33 3.86 10.96l-8.39 2.74z"/><path d="m75.65 68.34-.33-.28c-3.85-3.18-3.16-6.33-2.51-9.36.31-1.4.62-2.86.5-4.34-.22-2.5-.41-4.86-1.17-6.06-4.54-7.17-15.52-9.46-15.62-9.49l-6.6-1.3 4.38-5.1c.08-.09 9.3-9.4 24.9-9.4 4.26 0 8.66.71 12.94 2.11 16.16 5.23 27.76 22.85 27.96 23.03l.4.75-9.2 4.34-.3-.59c-1-1.68-9.8-16.1-22.15-20.09-3.04-.98-6.24-1.48-9.52-1.48-5.92 0-10.72 1.62-13.28 2.7 4.28 1.93 9.45 5.17 12.73 10.34 1.79 2.82 2.08 6.26 2.36 9.58.34 4.13.67 8.02 3.57 10.43l1.1.91-10.15 3.33z"/><path d="M96.41 59.28c0-.02-2.05-9.16-7.89-13.77-8.18-6.51-18.17-3.05-18.26-3.02l-1.46-4.48c.49-.16 11.92-3.75 22.43 3.65 10.57 7.43 11.87 14.18 11.97 14.92z"/><path d="m95.84 60.35-.17-.9c-.08-.09-2.13-8.92-7.64-13.33-3.17-2.51-6.98-3.79-11.33-3.79-3.39 0-5.92.82-6.2.91l-.74.25-1.95-5.98.75-.23c.34-.11 3.37-1.06 7.66-1.06 5.66 0 11 1.66 15.42 4.81C102.5 48.66 103.9 55.7 104 56.49l.1.61-8.26 3.27zM76.7 40.76c4.65 0 8.91 1.43 12.31 4.13 4.94 3.92 7.24 10.85 7.9 13.33l5.39-2.12c-.5-1.88-2.6-7.54-11.56-13.8-4.23-2.99-9.13-4.51-14.53-4.51-2.97 0-5.27.47-6.41.76l.96 2.98c1.12-.31 3.26-.77 5.94-.77zM125 255.3c-2.3 0-4.7-.9-6.3-2.3-1.2-1.1-5.5-5-7.3-9.7-.8-1.9-.6-3.3.4-4.3.7-.8 2.1-1.6 5.1-1.6h15.9c2.2 0 3.8.5 4.7 1.4 1.2 1.2.9 2.8.5 3.6-.6 1.4-2.9 6.1-7 10.5-1.4 1.5-3.6 2.4-6 2.4zm2.5-121.7-8.4-.5s2.1 3.7 3.5 8.6c1.6 5.5-1.4 13.6-1.4 13.6s11.1-12.6 6.3-21.7zm-10.4 143.8c-29.88-2.3-40.36-30.5-40.36-36.4h7.78-3.89 3.89c.04 2.6 7.95 26.7 33.08 28.6z"/></g><g stroke-width=".822"><path fill="#fff" d="M108.7 226.9c-.5-2.7-.5-5.3 0-7.7-2.3-1.8-6.3-2.3-9.41-3.4-2.46-1.6-15.22 1.6-24.48-9.5-11.6-14.1-9.16-22.5-9.16-22.5-2.97 3.4-5.85 2.1-10.39 17.5s2.13 26.2 14.56 36.9c5.87 5.1 14.18 7.2 21.33 8-2.38-2.4 4.11-2.6 8.55-4.3-.41-3.7.25-7.1 2.9-9.9 1.6-1.7 3.8-2.7 5.9-3.5.1-.4.2-.6.3-.9-.1-.2-.1-.5-.1-.7z"/><path fill="#c9c9c9" d="M99.62 241.8c-.25-.8-.41-1.5-.66-2.3-.16-.9-1.23-3.2.09-.5-.33-.7-.58-1.4-.74-2.2-20.11 0-37.62-13.8-34.24-42.9-2.63-3.4-6.32 7.1-6.32 7.1s-10.07 29.3 15.95 40.6c8.68 3.8 16.38 6.5 18.19 5.4 3.7.8 7.16-1.9 8.41-3.6-.3-.6-.43-1.1-.68-1.6z"/><path fill="#463014" d="M108.3 222.7c0-2.5.5-4.9 1.7-7.2.1-.2.1-.3.3-.5-7.8 0-16.68-.8-24.29-3.8-8.35-3.4-18.79-14.8-20.59-28.2 0 0-15.72 12.1-11.1 38.1 4.33 24.4 24.74 32.4 47.98 33.7 0-.2-2.6-5.6-1.8-8.9-13.16.9-27.94-4.2-35.07-16-6.53-10.7-4.7-29-2.01-31.7 6.55 20.6 30.12 24.8 44.88 24.5z"/><path fill="#463014" d="M110.7 207.9c-4.2 12.3-12.72 22.2-12.72 22.2s11.72-.5 12.42-2.6c.5-1.5 10.6-25.3 14.5-53.1-3.7 6-13.8 32.4-14.2 33.5z"/></g><g fill="#e78724" stroke-width=".822"><path d="M177.4 179.5s13.3 20.5 23.1 35c1.6 2.2-9.8 2.4-9.8 2.4zm-6.3-42.2s4 10 6.1 15.3c2.4 5.8 11.6 8.7 11.6 8.7s-4.7-5-4.7-17.5c0-5.3-6.9-7.4-6.9-7.4z"/><path d="M175.1 142.9s8.2 9.8 23.5 4.3c15.4-5.4 17-25.1 17-30.6s-29.1 5.5-33 7.9c-4 2.3-11.4 11.8-7.5 18.4zm57.8-104.81s-14.1-2.75-23.5 4.7c-9.5 7.46-12.2 13.35-12.2 13.35l15.9 12.58s7.6-3.55 10-13.76c2.3-10.2.8-14.9 9.8-16.87z"/><path d="M179.2 114.6c6.1-8.7 16.1-12.4 24.1-13 13.7-1.1 20.2 3.8 20.2 3.8s-22.4.9-28.8 9.3c-12 15.8-29.5 17.1-32.3 13.6 3.3.2 6.8-1.5 10.6-5 2.4-2.3 4.3-5.9 6.2-8.7zm37.8 30.6s24.8-8.6 20-17.2c-4.7-8.7-.9-13.4-.9-13.4s13.8 10.3 10.3 21.3c-2.1 6.8-5.8 11.6-25.7 21-9.7 17.9-2.1 49.8-2.5 50-.7.3-13.5-6.2-12.6-36.3.3-9.2 1-21.7 11.4-25.5zm-32.5-91.75c10.3 5.28 24.7 12.64 24.7 12.64l-5.7 2.8c.6.87.8 1.39.8 1.39l-5.8 2.61s-14 10.18-22.6 16.72c2.9-8.83 11.3-22.71 11.3-22.71s2.4-6.39-2.7-13.45zM149.9 268.7c32 0 42.8-16.2 42.8-16.2l-5 12.2c-1.9 5.3-22 21.6-37.8 21.6"/><path d="M189.3 241.6s-3 17.9-14.8 17.9c-10 0-13-15.1-13-18.2zm19.5-27.1c-1-2.9-4.7-14.5-5.9-25.1-1.4-12.8-.9-31.3-.9-31.3s3.2 12.2 5.9 14.2c2.7 1.9 7.8 15.3 7.8 15.3s2.8 19.8 4.1 26.5c-3.6.7-6.6-1.4-11 .4zm28.5-78.7s-6.8-2.4-8.7-17c-1.9-14.4 2.3-27.01 2.3-27.01s-.4 20.01 2 23.91c2.4 4 4.4 5.1 7.1 10.2s-1.2 8.3-2.7 9.9z"/></g><g stroke-width=".822"><path fill="#fdc168" d="m229.3 41.53 1.3-.87c4 .14-1.3.87-1.3.87z"/><path fill="#fba919" d="M179.1 49.15s6.2-1.05 9.3-5.76c3.2-4.71 12.1-14.13 26.3-14.23 14.2-.11 28.2 3.77 28.2 3.77l-12.3 7.73c-1.2-.05-3.5-.03-7.3.09-15.3.51-17.7 15.71-17.7 15.71L151.4 49"/><path fill="#fff" d="M173.8 133.1s7.3 7.4 18.6 5c11.2-2.4 18.1-7.3 18.6-16 .5-8.6-2.4-12.1-2.4-12.1s-12.5 4-18.6 9.3c-6 5.1-10.5 13.5-16.2 13.8z"/><path fill="#c9c9c9" d="M182.7 130.5s6.3 2.9 13.5.5c9.3-3.1 9.8-12.7 9.8-12.7s5.8 16.7-10.3 19.9c-12.8 2.6-20.3-4.8-20.3-4.8z"/></g><g fill="#463014" stroke-width=".822"><path d="M224.2 67.46c5.2-4.3 1.3-8.29 1.7-13.18.3-2.6.4-5.05 1.3-6.4 4.8-7.53 16.1-9.81 16.2-9.84l5.2-1.04-3.4-4.08c-.5-.54-14.8-14.23-37.1-7.06-15.6 5.01-27.1 22.01-27.5 22.7l7.8 3.66c.1-.14 9.2-16.12 22.6-20.42 10.7-3.48 20.7-.16 24.9 2-4.5 1.81-10.5 5.1-14 10.72-1.6 2.66-2 6-2.2 9.24-.4 4.29-.8 8.33-3.9 10.96zM238 130.3s-6.5-8.2-8.5-24c-.7-6.1.7-18.37 2.8-23.08-.4 11.61 2.6 23.08 2.6 23.08s2 21.6 3.1 24z"/><path d="M203.6 59.28c0-.02 2.1-9.16 7.9-13.77 8.2-6.51 18.2-3.05 18.3-3.02l1.5-4.48c-.5-.16-12-3.75-22.5 3.65-10.6 7.43-11.8 14.18-12 14.92zm13.9 65.12s3.5-4.9 2.8-10.2c-.3-2.8-1.5-5.5-3.7-6.5-4.1-1.8-5.9 2.9-5.9 2.9s5.8 1.4 6.8 13.8z"/><path d="M180 131.9c-.2.3-.3.4-.3.4s10.7 8 21.6-.1c5.9-4.4 5.4-15.2 3.6-19.7-4.7 1.1-8.7 3-11.9 5.2 4.1-3.7 7.8-6.5 7.8-6.6l4.7-1.3 9.2-3.2c.1.7 3.5 16.5-6.2 27.3-4.4 4.8-24.5 15.4-34.1-2.8l5.5.8z"/><path d="M180.9 133.1c-6 9.1-21.2 3.9-20.9-5.8 0 0 10.2 5.6 19.1-4.7 5.2-6 22-22.6 44.7-17.1-15.6 3.5-36.4 17.8-42.9 27.6z"/><path d="M225.9 158.9c-1.4.8-6.5 6.2-6.5 14 0 4 .4 23.9 2.3 36.1-2.9 1.9-5 2.3-7.9 4.2-1.4-14-2.5-34.4-2-42.7.6-9.4 5.6-15.7 10.3-18.4 1.4-.9 2.9-1.7 4.5-2.5 8-4.3 16.2-8.8 16.2-16.4 0-6-2.3-7.9-4.8-9.8l-.2-.2c-1.7-1.3-3.5-2.8-4.6-5.3-3-6.7-3.5-23.77 0-28.1 1.7-2.17 6.4-9.44 5.1-14.31-.6-1.87-1.8-3.25-3.7-4.23-2-1.03-4.7-1.56-8.1-1.56-6.6 0-13.9 2.01-17.7 3.21-13.5 4.27-29.7 16.61-34.4 20.29-.2.1-.3.17-.3.17l-2.9 2.12 1.8-3.17c.1-.2 12-19.66 33.1-26.8 4.1-1.39 12.2-3.71 20.2-3.71 4.7 0 8.7.82 11.9 2.45 3.8 1.98 6.5 5.14 7.5 9.14 2.8 9.8-6 20.71-6.3 21.07-1 1.84-1.4 15.03.9 20.23.3.7 1.3 1.4 2.4 2.3.3.4.7.6 1.2.9 3.2 2.5 8.3 6.3 8.3 15 0 11.8-12.1 18.3-21.8 23.5-1.6.8-3.2 1.7-4.5 2.5z"/><path d="M211.5 66.06c-1.9-3.24-6.8-9.52-18.1-15.03-12.5-6.15-27.2-9.26-43.4-9.27v-.01.01c-16.2.01-30.8 3.13-43.4 9.27-11.34 5.52-16.19 11.79-18.16 15.03l-.82 1.1 9.7 2.15.33-.38.16-.36c.17-.64 1.4-4.09 12.29-9.35 11.5-5.64 24.9-8.48 39.9-8.49 15 0 28.5 2.85 40 8.49 10.8 5.26 12.1 8.71 12.2 9.34l.2.37.3.38 9.7-2.15z"/><path d="M224.2 67.46c5.2-4.3 1.3-8.29 1.7-13.18.3-2.6.4-5.05 1.3-6.4 4.8-7.53 16.1-9.81 16.2-9.84l5.2-1.04-3.4-4.08c-.5-.54-14.8-14.23-37.1-7.06-15.6 5.01-27.1 22.01-27.5 22.7l7.8 3.66c.1-.14 9.2-16.12 22.6-20.42 10.7-3.48 20.7-.16 24.9 2-4.5 1.81-10.5 5.1-14 10.72-1.6 2.66-2 6-2.2 9.24-.4 4.29-.8 8.33-3.9 10.96z"/><path d="m214.2 65.02 1.1-.91c2.9-2.4 3.2-6.29 3.6-10.43.3-3.33.6-6.77 2.3-9.59 3.3-5.17 8.5-8.4 12.8-10.33-2.6-1.09-7.4-2.7-13.3-2.7-3.2 0-6.5.49-9.5 1.47-12.4 3.99-21.1 18.4-22.1 20.09l-.3.58-9.3-4.33.5-.75c.1-.17 11.6-17.79 27.9-23.02 4.3-1.41 8.7-2.12 12.9-2.12 15.7 0 24.9 9.31 24.9 9.4l4.4 5.12-6.6 1.29c-.1.02-11.1 2.32-15.6 9.49-.7 1.19-.9 3.55-1.2 6.05-.1 1.49.2 2.94.5 4.34.7 3.04 1.4 6.19-2.4 9.37l-.4.27-10.2-3.33z"/><path d="M203.6 59.28c0-.02 2.1-9.16 7.9-13.77 8.2-6.51 18.2-3.05 18.3-3.02l1.5-4.48c-.5-.16-12-3.75-22.5 3.65-10.6 7.43-11.8 14.18-12 14.92z"/><path d="m196 57.09.1-.62c.1-.78 1.4-7.83 12.2-15.46 4.6-3.13 9.9-4.79 15.5-4.79 4.3 0 7.3.94 7.7 1.05l.8.24-2 5.98-.8-.24c-.2-.09-2.8-.91-6.1-.91-4.4 0-8.2 1.28-11.4 3.8-5.5 4.42-7.5 13.24-7.6 13.33l-.2.9-8.2-3.27zm33.3-15.57.9-2.97c-1.1-.3-3.4-.76-6.4-.76-5.4 0-10.3 1.52-14.6 4.51-8.8 6.26-11 11.91-11.5 13.8l5.4 2.12c.7-2.48 3-9.41 7.9-13.33 3.4-2.7 7.7-4.13 12.3-4.13 2.7 0 4.8.46 6 .77zM169 252.9c-4-4.4-6.4-9.1-7-10.5-.3-.8-.6-2.4.5-3.6.9-.9 2.6-1.4 4.8-1.4H183.2c2.8 0 4.3.9 5.1 1.6 1 1 1.1 2.4.4 4.3-1.8 4.7-6.1 8.6-7.3 9.7-1.7 1.4-4.1 2.3-6.4 2.3-2.4 0-4.5-.9-5.9-2.4zm3.6-119.3 8.3-.5s-2.1 3.7-3.5 8.6c-1.6 5.5 1.4 13.6 1.4 13.6s-11.1-12.6-6.2-21.7z"/></g><g stroke-width=".822"><path fill="#e78724" d="M150 103.7c-5.3 0-12.3-.2-17.5-3.86 0 0 6.8 11.96 17.5 11.96v-1.5 1.5c10.7 0 17.5-11.96 17.5-11.96-5.2 3.66-12.1 3.86-17.5 3.86z"/><path fill="#463014" d="M164.7 103.6c-5.4 3.3-10.1 4.4-14.7 4.6-4.6-.2-9.3-1.3-14.7-4.6 0 0 7.8 9.6 14.6 9.6h.1c6.9 0 14.7-9.5 14.7-9.5zM183 277.4l-.6-7.8c25.1-1.9 33.1-26 33.1-28.6h7.8c0 5.9-10.5 34.1-40.3 36.4z"/><path fill="#fff" d="M191.4 226.9c.5-2.7.5-5.3-.1-7.7 2.3-1.8 6.3-2.3 9.4-3.4 2.5-1.6 15.3 1.6 24.5-9.5 11.6-14.1 9.2-22.5 9.2-22.5 3 3.4 5.8 2.1 10.4 17.5 4.5 15.4-2.2 26.2-14.6 36.9-5.8 5.1-14.1 7.2-21.3 8 2.4-2.4-4.1-2.6-8.5-4.3.3-3.7-.3-7.1-3-9.9-1.6-1.7-3.7-2.7-5.8-3.5-.2-.4-.3-.6-.4-.9.1-.2.2-.5.2-.7z"/><path fill="#c9c9c9" d="M200.4 241.8c.3-.8.4-1.5.6-2.3.3-.9 1.2-3.2 0-.5.3-.7.5-1.4.7-2.2 20.1 0 37.6-13.8 34.3-42.9 2.6-3.4 6.3 7.1 6.3 7.1s10 29.3-16 40.6c-8.7 3.8-16.3 6.5-18.1 5.4-3.8.8-7.2-1.9-8.4-3.6.1-.6.4-1.1.6-1.6z"/></g><g fill="#463014" stroke-width=".822"><path d="M191.7 222.7c0-2.5-.5-4.9-1.7-7.2-.1-.2-.2-.3-.3-.5 7.8 0 16.7-.8 24.3-3.8 8.4-3.4 18.8-14.8 20.6-28.2 0 0 15.7 12.1 11.1 38.1-4.3 24.4-24.7 32.4-48 33.7 0-.2 2.7-5.6 1.7-8.9 13.3.9 28.1-4.2 35.2-16 6.5-10.7 4.7-29 2-31.7-6.5 20.6-30.1 24.8-44.9 24.5z"/><path d="M201.2 228.8c-2.8-3-7.9-6.6-19.8-6.6h-62.8c-11.8 0-16.9 3.6-19.72 6.6-4.03 4.3-4.69 10.5-1.89 18.1 7.51 20.2 17.91 40.8 53.01 40.8h.1c35 0 45.5-20.6 53-40.8 2.8-7.6 2.1-13.7-1.9-18.1zm-5.5 16.7c-3.6 10.1-13.1 34.8-45.7 34.8-32.5 0-42.1-24.7-45.7-34.8-1.9-5.7-1.8-9.9.5-12.4 1.6-1.9 5.1-3.9 13.2-3.9h8.6c6.2-.1 14.1-.1 23.4-.1s17.2 0 23.5.1h8.4c8.2 0 11.8 2 13.4 3.9 2.2 2.5 2.3 6.7.4 12.4z"/><path d="M189.3 207.9c4.2 12.3 12.8 22.2 12.8 22.2s-11.9-.5-12.4-2.6c-.5-1.5-10.7-25.3-14.6-53.1 3.7 6 13.8 32.4 14.2 33.5z"/></g><filter id="a"><feColorMatrix in="SourceGraphic" result="hue" type="hueRotate" values="-10"/><feColorMatrix in="hue" result="sat" type="saturate" values="2"/></filter><filter id="saturation"><feColorMatrix in="SourceGraphic" type="hueRotate" values="-10" result="hue" /><feColorMatrix in="hue" type="saturate" values="2" result="sat" /></filter></svg>