<svg xmlns="http://www.w3.org/2000/svg" filter="url(#saturation)" viewBox="0 0 400 400"><g fill-rule="evenodd"><path fill="#fbfbfb" d="M136.11 120.2c-6.022 1.393-3.307-1.093-52.809 48.352-24.915 24.886-45.3 45.454-45.3 45.706s-.27.562-.6.689c-.33.126-.6.428-.6.671s-.272.713-.604 1.045-.501.769-.376.971c.125.203.037.368-.196.368s-.396.135-.362.3-.242.983-.613 1.818c-.371.834-.576 1.677-.455 1.872.12.195.029.472-.204.616-.232.144-.318.591-.19.994s.045.848-.184.99c-.473.293-.574 5.119-.116 5.577.165.164.328.689.362 1.166.111 1.549.559 3.149 1.239 4.421.366.685.679 1.336.696 1.446.046.292 1.039 2.051 1.557 2.757.245.334 8.546 8.736 18.446 18.671 19.77 19.84 20.718 20.61 26.02 21.144.451.045.991.178 1.2.296.355.199 6.661.131 6.88-.074.055-.052.46-.139.9-.194s.89-.145 1-.2.38-.145.6-.2.49-.145.6-.2.335-.138.5-.185c.637-.179 1.957-.719 3.3-1.35.801-.376 10.037-9.245 21.6-20.741 19.582-19.468 21.948-21.579 23.579-21.029.342.115 9.621 9.154 20.621 20.085 20.479 20.352 23.545 23.085 25.439 22.672.131-.029.502.167.825.435 1.3 1.079 10.936 1.509 12.103.54.329-.273.748-.403.931-.29s1.676-.423 3.318-1.191c2.988-1.398 41.048-38.415 40.284-39.18-.14-.14.203-.979.763-1.866.56-.886 1.232-2.23 1.493-2.985.262-.755.601-1.405.755-1.444s10.14 9.784 22.193 21.829c12.052 12.045 22.119 21.9 22.371 21.9s.518.147.592.327c.166.408 4.981 2.739 6.333 3.065 4.853 1.173 16.4-.684 16.4-2.637 0-.195.303-.355.674-.355 1.007 0 49.326-48.381 49.326-49.39 0-1.763-102.92-103.86-106.4-105.54-3.911-1.897-11.643-2.806-14.212-1.671-.433.192-1.103.382-1.489.422-3.554.374-5.352 1.942-27.155 23.683-11.582 11.548-21.255 20.929-21.496 20.848-.242-.081-9.76-9.463-21.153-20.848-11.392-11.385-20.919-20.7-21.171-20.7-.251 0-.517-.147-.591-.327-.141-.345-4.77-2.632-6.136-3.031-1.657-.484-8.465-.512-10.488-.044m10.291 9.641c1.952.858 7.216 6.003 46.723 45.664 49.377 49.569 46.651 46.536 46.633 51.897-.018 5.146.247 4.811-19.472 24.504-19.709 19.683-19.385 19.426-24.484 19.426-5.353 0-2.041 2.986-52.2-47.071-47.738-47.641-46.594-46.579-51.7-48.052-1.265-.365-2.3-.79-2.3-.944 0-.153 10.125-10.379 22.5-22.724 23.898-23.839 22.685-22.778 27.3-23.879 1.48-.353 4.783.203 7 1.179m109.2-.185c1.804.778 98.4 96.738 98.4 97.752 0 .226-9.495 9.881-21.1 21.455-23.523 23.46-22.396 22.554-27.962 22.47-5.431-.083-1.898 3.143-55.222-50.426l-48.085-48.305 20.685-20.726c25.176-25.226 25.62-25.522 33.284-22.22m-164 54.996c2.099.945 49.2 47.171 49.2 48.287 0 .201-.642.205-1.5.009-7.421-1.698-7.443-1.683-27.9 18.661-26.778 26.629-23.466 26.634-50.078-.07-18.955-19.021-18.911-18.964-18.918-24.137-.007-5.28.042-5.342 19.654-24.858 9.538-9.492 17.921-17.548 18.629-17.903 3.298-1.655 7.221-1.651 10.913.011"/><path fill="#74bc44" d="M140.7 119.9c.5.1 1.3.1 1.8 0s.1-.2-.9-.2-1.4.1-.9.2m-1.3 8.8c-4.6 1.1-3.4 0-27.3 23.8-12.38 12.4-22.5 22.6-22.5 22.8 0 .1 1.04.5 2.3.9 5.11 1.5 3.96.4 51.7 48.1 50.2 50 46.8 47 52.2 47 5.1 0 4.8.3 24.5-19.4s19.4-19.4 19.5-24.5c0-5.4 2.7-2.3-46.7-51.9-39.5-39.7-44.7-44.8-46.7-45.7-2.2-.9-5.5-1.5-7-1.1m108.7.1c-3.2.7-5 2.2-25.8 23.1l-20.7 20.7 48.1 48.3c53.3 53.6 49.8 50.3 55.2 50.4 5.6.1 4.5 1 28-22.4 11.6-11.6 21.1-21.3 21.1-21.5 0-1-96.6-97-98.4-97.7-2.2-1-5.3-1.3-7.5-.9M83.49 183.6c-3.01.8-4.35 1.9-21.43 18.9-19.61 19.6-19.66 19.6-19.66 24.9.01 5.2-.03 5.1 18.92 24.1 20.2 20.3 20.92 20.8 26.86 19.7 4.14-.7 4.89-1.4 23.22-19.6 20.5-20.3 20.5-20.4 27.9-18.7.9.2 1.5.2 1.5 0 0-1.1-47.1-47.3-49.2-48.2-2.53-1.2-5.92-1.6-8.11-1.1m162.41 54.1-.7 1.3.8-.9c.7-.8 1-1.7.7-1.7-.1 0-.4.6-.8 1.3M85.7 280.3c.38.1 1.01.1 1.4 0 .38-.1.07-.2-.7-.2s-1.09.1-.7.2m218.2 0c.5.1 1.3.1 1.8 0s.1-.2-.9-.2-1.4.1-.9.2"/></g><filter id="a"><feColorMatrix in="SourceGraphic" result="hue" type="hueRotate" values="-10"/><feColorMatrix in="hue" result="sat" type="saturate" values="2"/></filter><filter id="saturation"><feColorMatrix in="SourceGraphic" type="hueRotate" values="-10" result="hue" /><feColorMatrix in="hue" type="saturate" values="2" result="sat" /></filter></svg>