<svg xmlns="http://www.w3.org/2000/svg" filter="url(#saturation)" viewBox="0 0 300 300"><path fill="#00acc1" d="M148.1 286.6c-2.1-1.3-4.4-5.9-5.7-11-1.2-4.6-1.7-16.5-.9-22.2.3-2.2.5-4.2.4-4.2s-1.9-.4-4.1-.6c-12.5-1.6-25.8-5.8-36-11.5-2.11-1.3-4.13-2.2-4.44-2.2-.3 0-1.4 1.6-2.44 3.5-4.77 9.3-13.13 18.5-19.46 21.4-2.31 1.1-5.41 1.3-6.84.6-2.15-1.1-2.79-5.7-1.49-10.7.88-3.6 4.42-10.8 7.28-15 1.27-2 3.78-5.1 5.56-7.2l3.25-3.6-1.69-1.6c-4.46-4.3-12.89-14.2-12.89-15.2 0-.4 11.48-8.3 12.32-8.6.42-.1 1.45.9 2.84 2.9 3.01 4.1 11.08 12.1 15.81 15.6 36.19 26.9 87.09 20.1 114.49-15.2 1.5-1.8 2.9-3.4 3.2-3.4.5 0 11.9 7.7 12.3 8.3.3.6-4.7 7-8.9 11.5-2 2.1-3.6 4-3.6 4.2s1.5 2.1 3.5 4.1c6.1 6.4 12.1 16.6 13.8 23.2 1.3 5 .6 9.6-1.5 10.7-.5.2-1.7.5-2.7.5-6.6 0-17.6-10.6-24.1-23.3-1.2-2.5-2.4-4.4-2.7-4.4-.2 0-1.5.6-2.8 1.5-9.4 6.2-23.5 11.2-35.7 13.2-2.6.4-4.9.9-5.2 1.1s-.3 1.5.2 4.2c.8 5 .5 16.7-.6 21.3-1.1 4.8-2.7 8.6-4.8 10.8-2.3 2.6-4.1 2.8-6.5 1.3zM18.36 187.7c-.11-.3-.16-16.3-.1-35.7l.12-35.2h18.44l.11 13c.09 9.7.26 13 .66 13.3.3.2 4.91.3 10.25.3 7.59 0 9.83-.1 10.21-.6.33-.3.52-4.8.61-13.3l.11-12.7h18.45v71.3H58.77l-.11-13.6c-.09-9.2-.28-13.8-.61-14.2-.38-.5-2.64-.6-10.25-.6s-9.88.1-10.26.6c-.33.4-.53 5-.61 14.2l-.11 13.6-9.12.1c-7.06.1-9.17 0-9.34-.5zm74.65 0c-.11-.3-.15-16.3-.11-35.7l.13-35.2h45.67l.2 15.6-13.5.1-13.5.2-.1 5.2c-.1 3.9 0 5.3.4 5.6.3.2 5.6.4 11.7.4H135l-.1 7.8-.2 7.8-22.8.4v12.3l14.1.3 14 .2v15.4l-23.4.1c-18.47.1-23.44 0-23.59-.5zm61.49 0c-.1-.3-.2-16.3-.1-35.7l.1-35.2h18.4l.3 27.7.2 27.7 13.4.3 13.3.2v15.4l-22.7.1c-17.9.1-22.8 0-22.9-.5zm58.4 0c-.2-.3-.2-16.3-.1-35.7l.1-35.2 9.7-.1c5.3 0 9.8.1 10.1.2.6.5 10.3 27 12.5 34.2 2.2 7.5 2 7.1 2.7 6.6.2-.3 1.1-3.2 2.2-6.6 2.4-7.4 11.2-33.2 11.9-34 .4-.4 2.6-.5 10.1-.4l9.6.1v71.3l-16.2.2-.5-1.1c-.6-2.5.3-27.9 1.1-35.2 1.6-11.4 1.4-11.6-2.2-1.7-3.5 10.6-10.7 30.2-11.6 31.3-.5.9-.9 1-5.1 1-3.1 0-4.6-.2-5-.6-.5-.7-9.5-25.1-12-32.5-1.7-5.3-2.6-7.2-2.6-5.3 0 .4.4 4 .9 8 .9 7.5 1.7 32.6 1.1 34.9l-.3 1.2h-8.1c-6.1 0-8.2-.2-8.3-.6zm5.8-81.2c-1.8-2.9-6.1-8.4-9.8-12.27-11.8-12.47-26.1-20.37-43.7-24.13-5-1.07-6.3-1.16-15.5-1.18-10.9-.03-13.3.24-21.7 2.44-11.4 2.99-21.8 8.29-31.03 15.81-4.42 3.6-11.48 11.04-14.49 15.23-1.85 2.6-2.77 3.6-3.26 3.4-1.6-.6-12.33-7.79-12.31-8.25 0-1.04 7.23-10.1 12.11-15.22l5.08-5.3-3.36-3.63c-6.11-6.64-11.99-16.53-13.61-22.96-1.3-5.05-.66-9.63 1.49-10.79.46-.24 1.7-.44 2.75-.44 6.6.02 17.53 10.6 24.01 23.26 1.26 2.44 2.45 4.44 2.64 4.44.18 0 1.89-.9 3.78-1.97 9.8-5.61 25.6-10.6 36.3-11.51 1.8-.15 3.6-.41 3.9-.59.4-.24.3-1.43-.3-4.81-1-6.25-.7-18.48.7-23.56 2.1-8.05 5.5-12.56 9-11.91 3.2.61 6.4 5.9 8 13.5 1.1 4.96 1.1 18.91 0 23.48-.3 1.7-.5 3.21-.4 3.39.2.15 2.3.61 4.7.99 14 2.2 24.6 6.09 37.6 13.83.9.53 1.7.79 1.9.57.1-.22 1.3-2.57 2.6-5.23 5.2-10.31 13.5-19.66 20.2-22.85 2.4-1.08 5.5-1.34 6.9-.59 2.1 1.16 2.8 5.74 1.5 10.79-.9 3.7-4.5 10.98-7.8 15.73-1.5 2.2-4.6 5.87-6.8 8.13l-4.1 4.12 4 4.24c4.1 4.31 11.2 13.44 12.5 15.96.6 1.15.6 1.48.2 1.88-1.1 1-11.8 7.3-12.4 7.3-.3 0-.9-.6-1.3-1.3z"/><filter id="a"><feColorMatrix in="SourceGraphic" result="hue" type="hueRotate" values="-10"/><feColorMatrix in="hue" result="sat" type="saturate" values="2"/></filter><filter id="saturation"><feColorMatrix in="SourceGraphic" type="hueRotate" values="-10" result="hue" /><feColorMatrix in="hue" type="saturate" values="2" result="sat" /></filter></svg>