<svg xmlns="http://www.w3.org/2000/svg" fill="#f4511e" filter="url(#saturation)" viewBox="0 0 300 300"><path d="m194.7 86.6-17 34.3c5.6 5.2 9.6 12 11.1 19.7h12.8c1.5-7.3 5.1-13.8 10.3-18.9z"/><path d="m163.4 112.6 31.3-63.2 31.2 63.6c1.3-.4 2.5-.7 3.7-1l29.7-87.49H130.1l29.6 87.19c1.2.3 2.5.6 3.7.9zM152.7 168.6c11.4 0 20.7-9.3 20.7-20.7 0-4.2-1.3-8.1-3.4-11.4-.6-1-1.5-2-2.3-2.9l-.1-.1c-.8-.9-1.8-1.7-2.8-2.4v-.1c-.3-.1-.6-.4-.9-.6h-.2c-.3-.2-.7-.4-1-.6h-.1c-.3-.2-.7-.4-1-.6h-.1c-.4-.1-.7-.3-1-.4-.1 0-.2-.1-.3-.1-.2-.1-.5-.2-.8-.3-.1 0-.1-.1-.3-.1-.3-.1-.7-.2-1-.3h-.1c-.4-.1-.7-.2-1.1-.3h-.4c-.3-.1-.5-.1-.9-.2-.1 0-.2 0-.4-.1-.2 0-.5-.1-.8-.1h-3.2c-.3 0-.6.1-.9.1h-.3c-.4.1-.7.1-1 .2h-.3c-.4.1-.7.1-1.1.2-9 2.2-15.8 10.5-15.8 20.1.2 11.3 9.5 20.7 20.9 20.7zM239.7 127.2h-.1c-.4 0-.6-.1-.9-.1h-1.1c-.4 0-.8 0-1.3.1h-1.4c-.1 0-.3 0-.3.1l-1.3.3h-.1c-.4.1-.7.1-1.1.2-.1 0-.3.1-.3.1-.4.1-.7.2-1 .3-.1 0-.2.1-.3.1-.4.2-.8.3-1.1.5-.4.2-.8.3-1.2.5 0 0-.1.1-.2.1-.3.1-.7.3-1 .6h-.1c-.7.4-1.5.9-2.1 1.5l-.1.1c-1.1.8-2 1.7-2.9 2.7s-1.6 2.1-2.3 3.3c-1.7 3-2.7 6.6-2.7 10.3 0 11.4 9.3 20.7 20.7 20.7s20.7-9.3 20.7-20.7c0-10.1-7.2-18.5-16.7-20.4-.5-.2-1.1-.3-1.8-.3zM66.87 168.6c11.41 0 20.69-9.3 20.69-20.7 0-11.5-9.28-20.7-20.69-20.7s-20.69 9.2-20.69 20.7c0 11.4 9.28 20.7 20.69 20.7z"/><path d="M237.7 184.6c-17.1 0-31.5-11.8-35.6-27.5h-13.8c-4.1 15.7-18.5 27.5-35.5 27.5-2 0-3.9-.2-5.7-.4-4.8 7.3-10.4 14-17.1 20.2-11.7 11.1-25 19.3-39.4 24.5l-3.36 1.2-3.12-1.6c-17.25-8.9-26.12-26.9-23-44.3-1.97-.3-3.86-.8-5.66-1.4-.33.5-.58 1.2-.91 1.8-5.25 10.9-10.76 22.1-12.73 34-2.13 12.9-3.03 36.3 15.03 48.7 7.89 5.5 16.18 8.2 25.46 8.2 17.79 0 36.99-9.6 57.39-19.7 15.9-7.8 32.4-16 49.4-20.2 6.5-1.6 13.1-2.6 19.4-3.5 11.6-1.6 22.6-3.3 31.6-8.4 9.5-5.5 16-14.7 17.8-25.3 1.1-6.4.5-12.8-1.7-18.8-5.4 3.1-11.7 5-18.5 5z"/><filter id="a"><feColorMatrix in="SourceGraphic" result="hue" type="hueRotate" values="-10"/><feColorMatrix in="hue" result="sat" type="saturate" values="2"/></filter><filter id="saturation"><feColorMatrix in="SourceGraphic" type="hueRotate" values="-10" result="hue" /><feColorMatrix in="hue" type="saturate" values="2" result="sat" /></filter></svg>