<svg xmlns="http://www.w3.org/2000/svg" fill="#BDBDBD" filter="url(#saturation)" viewBox="0 0 24 24"><path d="M2.123 4.44v2.628c1.571.193 3.048.345 4.438.461L6.32 9.86H2.002v1.53h4.161l-.84 8.17 2.915-.01.286-8.16h6.736l.29 8.15h2.87l-.81-8.15h4.26V9.86h-4.41l-.24-2.301c1.49-.119 3.07-.28 4.78-.491V4.44c-3.82.474-7.1.713-9.85.715-2.782.003-6.127-.235-10.027-.715zm6.525 3.236c.89.052 1.722.084 2.532.098V9.86H8.579zm6.482.021.08 2.163h-2.5V7.776c.77-.009 1.57-.035 2.42-.079z"/><filter id="a"><feColorMatrix in="SourceGraphic" result="hue" type="hueRotate" values="-10"/><feColorMatrix in="hue" result="sat" type="saturate" values="2"/></filter><filter id="saturation"><feColorMatrix in="SourceGraphic" type="hueRotate" values="-10" result="hue" /><feColorMatrix in="hue" type="saturate" values="2" result="sat" /></filter></svg>