<svg xmlns="http://www.w3.org/2000/svg" fill="#90a4ae" filter="url(#saturation)" viewBox="0 0 24 24"><path d="M1.119 4.881v8.449L4.763 9.7a.83.83 0 0 0 0-1.172zM5.57 18.94v-8.45l-3.644 3.65a.804.804 0 0 0 0 1.15zM22.96 8.245 12.84 9.322l-.03.019 4.51 4.519zM6.593 4.639s.043 6.251-.006 8.411c-.038 1.62.701 2.11 1.4 2.85 1.021 1.08 3.023 2.97 3.023 2.97.4.39 1.04.39 1.42 0l3.5-3.48c.39-.4.39-1.02 0-1.42z"/><filter id="a"><feColorMatrix in="SourceGraphic" result="hue" type="hueRotate" values="-10"/><feColorMatrix in="hue" result="sat" type="saturate" values="2"/></filter><filter id="saturation"><feColorMatrix in="SourceGraphic" type="hueRotate" values="-10" result="hue" /><feColorMatrix in="hue" type="saturate" values="2" result="sat" /></filter></svg>