<svg xmlns="http://www.w3.org/2000/svg" filter="url(#saturation)" viewBox="0 0 24 24"><path fill="#29b6f6" d="M12.033 1.737c-.25-.003-.5.11-.729.337C8.225 5.15 5.15 8.227 2.078 11.31c-.144.144-.229.346-.341.521v.41c.16.223.294.474.485.666a3259.51 3259.51 0 0 0 8.936 8.937c.193.192.443.325.666.486h.41c.205-.142.436-.256.609-.428 3.046-3.041 6.09-6.083 9.133-9.127.47-.47.472-1.005.006-1.472l-9.218-9.217c-.23-.23-.48-.347-.731-.35zm-1.062 4.545 1.386.832c.702.422 1.403.846 2.109 1.262a.544.544 0 0 1 .04.026l.016.013.017.013c.061.056.089.123.088.224a510.281 510.281 0 0 0 0 3.794.463.463 0 0 1-.007.094c-.015.069-.054.103-.142.109a.464.464 0 0 1-.044.002c-.045-.002-.09-.002-.136-.003-.323-.006-.648-.001-.998-.001V10.106l.004-.668c0-.147-.039-.231-.17-.308-.893-.528-1.78-1.066-2.67-1.6-.051-.03-.101-.065-.173-.111l.001-.003h-.001zm.362 3.39c.068-.003.119.043.173.138.085.148.174.293.264.44l.015.025c.096.154.194.31.292.47l-1.915 1.176c-.337.207-.673.417-1.014.617-.113.067-.154.143-.154.277.01.977.01 1.955.014 2.932V16H7.7V16h-.002c-.004-.053-.014-.112-.014-.17-.005-1.25-.006-2.501-.015-3.751 0-.142.045-.222.164-.294a467.13 467.13 0 0 0 3.353-2.054l.016-.01a.606.606 0 0 1 .032-.017l.016-.008a.308.308 0 0 1 .033-.013l.012-.004a.157.157 0 0 1 .028-.005l.01-.001zm5.677 3.126.314.54.346.594v.001c-.158.094-.298.178-.438.259l-3.097 1.798c-.106.062-.189.071-.3.01l-.893-.496-1.524-.843-.895-.493c-.035-.02-.068-.044-.129-.085h.001l.137-.25.495-.902 1.446.795c.442.243.886.483 1.323.734.121.07.212.072.334 0 .894-.525 1.792-1.043 2.689-1.563.057-.034.118-.061.191-.1z"/><filter id="a"><feColorMatrix in="SourceGraphic" result="hue" type="hueRotate" values="-10"/><feColorMatrix in="hue" result="sat" type="saturate" values="2"/></filter><filter id="saturation"><feColorMatrix in="SourceGraphic" type="hueRotate" values="-10" result="hue" /><feColorMatrix in="hue" type="saturate" values="2" result="sat" /></filter></svg>