<svg xmlns="http://www.w3.org/2000/svg" filter="url(#saturation)" viewBox="0 0 240 240"><path fill="#ff5722" fill-rule="evenodd" stroke="#ff5722" stroke-width="8.852" d="M216.064 112.946c-1.434.343-24.945 6.673-24.945 6.673l-19.227-28.622c-.538-.828-.99-1.656.359-1.849 1.345-.196 23.195-4.477 24.182-4.723.989-.245 1.837-.536 3.052 1.267 1.21 1.8 17.836 24.626 18.464 25.506.628.877-.446 1.41-1.882 1.748m-4.102 49.326c.588 1.003 1.176 1.64-.67 2.367-1.842.73-62.242 22.847-63.417 23.39-1.174.546-2.092.73-3.607-1.637-1.51-2.362-21.16-39.264-21.16-39.264l64.029-18.075c1.877-.644 2.318-.405 3.103.822 1.075 1.68 21.143 31.403 21.726 32.4m-103.7-21.087c-.78.202-37.566 9.733-39.525 10.22-1.964.485-1.964.246-2.187-.49-.227-.727-43.728-98.053-44.333-99.271-.605-1.214-.574-2.177 0-2.177.57 0 34.734-3.313 35.944-3.383 1.207-.07 1.08.205 1.526 1.033l49.025 91.818c.84 1.58 1.238 1.81-.452 2.248m94.588-59.77c-3.5-4.58-5.201-3.751-7.358-3.41-2.154.336-27.277 4.915-30.194 5.449-2.917.536-4.757 1.803-2.962 4.53 1.597 2.422 18.113 27.824 21.75 33.42l-65.662 17.066-52.236-94.729c-2.075-3.342-2.507-4.514-7.236-4.28-4.735.23-40.97 3.495-43.55 3.731-2.581.233-5.416 1.479-2.836 8.09 2.584 6.612 43.734 102.82 44.881 105.62 1.148 2.803 4.127 7.345 11.11 5.527 7.156-1.871 31.968-8.894 45.52-12.742 7.162 14.07 21.77 42.619 24.472 46.707 3.607 5.459 6.09 4.56 11.626 2.738 4.325-1.42 67.65-26.129 70.502-27.4 2.855-1.273 4.614-2.184 2.686-5.275-1.42-2.28-18.124-26.558-26.876-39.26 5.992-1.733 27.305-7.888 29.575-8.557 2.645-.779 3.007-2.19 1.571-3.94-1.436-1.755-21.293-28.72-24.79-33.296z"/><filter id="a"><feColorMatrix in="SourceGraphic" result="hue" type="hueRotate" values="-10"/><feColorMatrix in="hue" result="sat" type="saturate" values="2"/></filter><filter id="saturation"><feColorMatrix in="SourceGraphic" type="hueRotate" values="-10" result="hue" /><feColorMatrix in="hue" type="saturate" values="2" result="sat" /></filter></svg>