<svg xmlns="http://www.w3.org/2000/svg" filter="url(#saturation)" viewBox="0 0 40 40"><path fill="#317eac" d="M5.42 3.199V31.2H2.859v3.69H5.42v2.52h3.684v-2.52H37.07V31.2H11.1l1.7-1.7h22v-2.84H15.64l1.76-1.76h17.35v-2.84H20.24L22 20.3h12.8v-2.84h-9.96l1.69-1.69v.03h8.25v-2.83h-5.45l1.47-1.47h4.01V8.664h-3.19V5.5h-2.84v4.018l-1.41 1.412V5.5h-2.84v8.25h.02l-1.73 1.73V5.5h-2.83v12.8H20l-1.81 1.81V5.5h-2.83v17.38h.06l-1.86 1.86V5.5h-2.83v22.07l-1.626 1.62V3.199H5.42z"/><filter id="a"><feColorMatrix in="SourceGraphic" result="hue" type="hueRotate" values="-10"/><feColorMatrix in="hue" result="sat" type="saturate" values="2"/></filter><filter id="saturation"><feColorMatrix in="SourceGraphic" type="hueRotate" values="-10" result="hue" /><feColorMatrix in="hue" type="saturate" values="2" result="sat" /></filter></svg>