<svg xmlns="http://www.w3.org/2000/svg" filter="url(#saturation)" viewBox="0 0 24 24"><path fill="#2196f3" d="M4.002 5.5c-.655 1.1-1.321 2.1-1.976 3.2S.718 10.8.063 11.9h.002-.002c.655 1.1 1.308 2.2 1.963 3.2.655 1.1 1.321 2.2 1.976 3.2h3.33c-.664-1-1.318-2.1-1.974-3.2-.653-1.1-1.307-2.1-1.961-3.2.654-1.1 1.308-2.1 1.961-3.2.656-1.1 1.31-2.1 1.974-3.2z"/><path fill="#26a69a" d="M3.999 5.5h-.002c.655 1.1 1.309 2.1 1.964 3.2s1.319 2.1 1.974 3.2h3.335c-.67-1.1-1.323-2.1-1.978-3.2-.653-1.1-1.306-2.2-1.96-3.2z"/><path fill="#8bc34a" d="M15.2 5.5c-.65 1.1-1.3 2.1-1.96 3.2-.65 1.1-1.32 2.1-1.97 3.2H7.935c.665-1.1 1.32-2.1 1.975-3.2.65-1.1 1.31-2.2 1.96-3.2z"/><path fill="#ffc107" d="M11.87 5.5c.67 1.1 1.32 2.1 1.98 3.2.65 1.1 1.31 2.1 1.96 3.2-.65 1.1-1.31 2.1-1.96 3.2-.66 1.1-1.31 2.2-1.98 3.2h3.33c.66-1 1.32-2.1 1.98-3.2.65-1 1.31-2.1 1.96-3.2-.65-1.1-1.31-2.2-1.96-3.2-.66-1.1-1.32-2.1-1.98-3.2z"/><path fill="#f44336" d="M16.74 5.5c.66 1.1 1.32 2.1 1.97 3.2.66 1.1 1.31 2.1 1.96 3.2-.65 1.1-1.3 2.1-1.96 3.2-.65 1.1-1.31 2.2-1.97 3.2h3.33c.66-1 1.32-2.1 1.97-3.2.66-1 1.31-2.1 1.97-3.2-.66-1.1-1.31-2.2-1.97-3.2-.65-1.1-1.31-2.1-1.97-3.2z"/><filter id="a"><feColorMatrix in="SourceGraphic" result="hue" type="hueRotate" values="-10"/><feColorMatrix in="hue" result="sat" type="saturate" values="2"/></filter><filter id="saturation"><feColorMatrix in="SourceGraphic" type="hueRotate" values="-10" result="hue" /><feColorMatrix in="hue" type="saturate" values="2" result="sat" /></filter></svg>