<svg xmlns="http://www.w3.org/2000/svg" filter="url(#saturation)" viewBox="0 0 120 120"><style>.st0{fill:#ff5722}</style><g fill="#ff5722" stroke-width=".803"><path d="M21.58 14.25h45.99c6.42 0 11.64 5.22 11.64 11.64s-5.22 11.64-11.64 11.64H21.58c-6.42 0-11.637-5.22-11.637-11.64S15.16 14.25 21.58 14.25zM109.5 25.89a11.88 11.64 0 0 1-11.91 11.64 11.88 11.64 0 0 1-11.88-11.64 11.88 11.64 0 0 1 11.88-11.64 11.88 11.64 0 0 1 11.91 11.64zM52.16 49h45.43c6.41-.48 11.91 4.42 12.41 10.84s-4.4 11.96-10.81 12.44H52.16c-6.42.48-11.96-4.42-12.44-10.84S44.13 49.48 50.55 49h1.13z" class="st0"/></g><g stroke-width=".803"><path fill="#ff1744" d="M21.82 48.76c6.58 0 11.88 5.3 11.88 11.88s-5.3 11.88-11.88 11.88c-6.58-.08-11.877-5.38-11.877-11.88 0-6.58 5.297-11.88 11.877-11.88z" style="fill:#ff1744"/><path fill="#ff5722" d="M21.58 82.47h45.99c6.42 0 11.64 5.22 11.64 11.64 0 6.39-5.22 11.59-11.64 11.59H21.58c-6.42 0-11.637-5.2-11.637-11.59 0-6.42 5.217-11.64 11.637-11.64zM109.5 94.11a11.88 11.64 0 0 1-11.91 11.69 11.88 11.64 0 0 1-11.88-11.69 11.88 11.64 0 0 1 11.88-11.64 11.88 11.64 0 0 1 11.91 11.64z" class="st0"/></g><filter id="saturation"><feColorMatrix in="SourceGraphic" type="hueRotate" values="-10" result="hue" /><feColorMatrix in="hue" type="saturate" values="2" result="sat" /></filter></svg>