<svg xmlns="http://www.w3.org/2000/svg" filter="url(#saturation)" viewBox="0 0 192 192"><path fill="#a1887f" d="M105 9.811C98.72 17.55 88.09 25.77 99.69 43.17c3.91 4.35 5.81 13.54 5.31 16.44 0 0 17.4-10.15 6.8-28.53-6.3-9.67-9.2-17.89-6.8-21.269zM85.67 27.7c-.08.07-.14.16-.21.24l.21-.24zm-.21.24c-4.35 5.24-10.79 10.58-3.18 22.48 2.42 2.42 3.39 8.71 3.39 10.64 0 0 11.6-6.77 4.35-19.34-4.18-6.04-6.13-11.64-4.56-13.78zM50.37 69.28c-2.41 0-4.83 1.94-4.83 4.84 0 16.44 2.42 72.98 26.59 100.58.97 1 1.93 1.4 3.38 1.4h40.59c1.5 0 2.4-.4 3.4-1.4 24.2-27.1 26.6-83.66 26.6-100.58 0-2.42-1.9-4.84-4.8-4.84H50.37zm14.02 14.99h63.81c2.4 0 4.9 1.93 4.9 4.83 0 13.5-2.5 51.7-18.9 71.6-1.5.9-2.4 1.4-3.9 1.4H81.8c-1.45 0-2.42-.5-3.38-1.4-16.44-19.4-18.38-58.1-18.86-71.6 0-2.41 1.93-4.83 4.83-4.83zm60.91 32.83s-.5 4.4-12.1 8.8c-15.93 5.8-43.97 1.9-43.97 1.9 2.42 10.1 6.28 19.8 12.09 27.1.48.9 1.93 1.4 2.9 1.4h24.18c1 0 1.9-.5 2.9-1.4 8.2-9.7 12.1-24.7 14-37.8z"/><filter id="a"><feColorMatrix in="SourceGraphic" result="hue" type="hueRotate" values="-10"/><feColorMatrix in="hue" result="sat" type="saturate" values="2"/></filter><filter id="saturation"><feColorMatrix in="SourceGraphic" type="hueRotate" values="-10" result="hue" /><feColorMatrix in="hue" type="saturate" values="2" result="sat" /></filter></svg>