<svg xmlns="http://www.w3.org/2000/svg" filter="url(#saturation)" viewBox="0 0 24 24"><path fill="#ffa726" d="M13 9h5.5L13 3.5V9M6 2h8l6 6v12a2 2 0 0 1-2 2H6a2 2 0 0 1-2-2V4c0-1.11.89-2 2-2m.12 13.5 3.74 3.74 1.42-1.41-2.33-2.33 2.33-2.33-1.42-1.41-3.74 3.74m11.16 0-3.74-3.74-1.42 1.41 2.33 2.33-2.33 2.33 1.42 1.41 3.74-3.74z"/><filter id="a"><feColorMatrix in="SourceGraphic" result="hue" type="hueRotate" values="-10"/><feColorMatrix in="hue" result="sat" type="saturate" values="2"/></filter><filter id="saturation"><feColorMatrix in="SourceGraphic" type="hueRotate" values="-10" result="hue" /><feColorMatrix in="hue" type="saturate" values="2" result="sat" /></filter></svg>