<svg xmlns="http://www.w3.org/2000/svg" xml:space="preserve" enable-background="new 0 0 165.543 144.277" filter="url(#saturation)" viewBox="0 0 150 150"><defs><linearGradient id="b" x1="-696.73" x2="-696.73" y1="97.7" y2="143" gradientTransform="translate(603.4 19.551) scale(.78253)" gradientUnits="userSpaceOnUse"><stop offset="0" stop-color="#F29100"/><stop offset="1" stop-color="#EC670F"/></linearGradient><linearGradient id="c" x1="-666.97" x2="-666.97" y1="142.12" y2="142.12" gradientTransform="translate(603.4 19.551) scale(.78253)" gradientUnits="userSpaceOnUse"><stop offset="0" stop-color="#F29100"/><stop offset="1" stop-color="#EC670F"/></linearGradient><linearGradient id="d" x1="-675.23" x2="-675.23" y1="-1.28" y2="142.97" gradientTransform="translate(603.4 19.551) scale(.78253)" gradientUnits="userSpaceOnUse"><stop offset="0" stop-color="#F29100"/><stop offset="1" stop-color="#EC670F"/></linearGradient><linearGradient id="e" x1="-735.14" x2="-735.14" y1="90.833" y2="141.97" gradientTransform="translate(603.4 19.551) scale(.78253)" gradientUnits="userSpaceOnUse"><stop offset="0" stop-color="#F29100"/><stop offset="1" stop-color="#EC670F"/></linearGradient></defs><g stroke-width=".783"><path fill="none" d="m75.11 95.163.019-.048c-.027-.12-.036-.148-.018.048z"/><path fill="url(#b)" d="M74.571 123.44c-.36-.765-1.45-2.758-1.998-3.396-1.19-1.392-1.467-1.497-1.817-3.255-.608-3.06-2.218-8.61-4.114-12.44-.98-1.978-2.61-3.638-4.101-5.072-1.302-1.257-4.237-3.373-4.748-3.268-4.794.957-6.28 5.657-8.535 9.382-1.247 2.06-2.569 3.812-3.552 6.003-.907 2.015-.827 4.246-2.38 5.976-1.595 1.776-2.631 3.665-3.412 5.96-.148.437-.569 5.022-1.026 6.103l7.124-.502c6.638.453 4.72 2.997 15.082 2.443l16.36-.507c-.507-1.5-1.206-3.236-1.475-3.8-.457-.95-1.03-2.809-1.407-3.626z" transform="translate(.002 -.001)"/><path fill="url(#d)" d="M95.308 89.565c-1.258.908-3.716 3.091-9.062 3.917-2.399.37-4.643.401-7.107.278-1.206-.058-2.343-.12-3.552-.135-.712-.006-3.101-.081-2.983.147l-.266.664c.042.218.128.763.153.896.097.536.125.962.145 1.455.037 1.014-.084 2.07-.032 3.093.107 2.121.895 4.055.994 6.195.109 2.383 1.287 4.904 2.427 6.85.433.742 1.092.826 1.38 1.739.336 1.045.017 2.154.18 3.268.642 4.32 1.887 8.837 3.832 12.736.014.033.029.068.046.098 2.403-.404 4.81-1.268 7.931-1.73 5.724-.848 13.684-.41 18.796-.89 12.938-1.216 19.96 5.307 31.58 2.633V34.87c0-9.013-7.304-16.32-16.32-16.32H26.544c-9.012 0-16.32 7.308-16.32 16.32v35.611c2.335-.844 5.694-5.812 6.747-7.02 1.84-2.113 2.175-4.809 3.092-6.506 2.089-3.866 2.448-6.524 7.196-6.524 2.213 0 3.091.51 4.589 2.519 1.041 1.397 2.84 3.978 3.682 5.703.972 1.991 2.556 4.685 3.252 5.228.516.404 1.028.707 1.505.886.77.289 1.407-.24 1.922-.65.657-.524.94-1.59 1.55-3.014.877-2.052 1.833-4.512 2.377-5.37.941-1.484 1.262-3.245 2.279-4.098 1.499-1.257 3.455-1.346 3.994-1.452 3.012-.595 4.381 1.452 5.865 2.775.971.867 2.298 2.614 3.24 4.954.737 1.828 1.674 3.52 2.066 4.575.38 1.019 1.314 2.652 1.868 4.61.504 1.778 1.85 3.14 2.362 3.985 0 0 .783 2.195 5.547 4.2 1.033.435 3.12 1.143 4.366 1.596 2.07.752 4.075.654 6.628.348 1.82 0 2.806-2.635 3.633-4.746.49-1.247.958-4.822 1.277-5.837.31-.988-.414-1.751.202-2.617.72-1.01 1.148-1.065 1.564-2.382.893-2.82 6.053-2.963 8.954-2.963 2.418 0 2.11 2.348 6.213 1.545 2.349-.461 4.613.303 7.107.963 2.1.557 4.074 1.192 5.258 2.577.765.897 2.665 5.39.73 5.582.185.228.321.639.67.864-.431 1.695-2.308.488-3.35.27-1.405-.291-2.397.044-3.77.652-2.35 1.046-5.786.924-7.832 2.628-1.737 1.445-1.733 4.67-2.543 6.477-.001-.001-2.25 5.786-7.158 9.326z" transform="translate(.002 -.001)"/><path fill="url(#e)" d="M41.021 97.783c-1.117-.113-2.155-.241-3.24-.46-2.027-.409-4.242-.807-6.238-1.285-1.212-.293-5.25-1.723-6.127-2.126-2.058-.949-3.424-3.526-5.032-3.26-1.027.167-2.027.52-2.666 1.555-.52.844-.698 2.296-1.059 3.27-.418 1.13-1.141 2.184-1.774 3.26-1.165 1.976-3.26 3.762-4.163 5.687-.182.396-.343.839-.494 1.3v22a36.98 36.98 0 0 1 3.388.73c9.102 2.429 11.323 2.634 20.25 1.613l.838-.111c.683-1.421 1.21-6.263 1.653-7.762.345-1.149.82-2.064 1-3.237.17-1.115-.016-2.177-.112-3.19-.25-2.536 1.848-3.443 2.85-5.621.902-1.971 1.424-4.214 2.171-6.23.717-1.933 1.836-4.666 3.745-5.64-.232-.27-3.988-.394-4.99-.494z" transform="translate(.002 -.001)"/></g><filter id="a"><feColorMatrix in="SourceGraphic" result="hue" type="hueRotate" values="-10"/><feColorMatrix in="hue" result="sat" type="saturate" values="2"/></filter><filter id="saturation"><feColorMatrix in="SourceGraphic" type="hueRotate" values="-10" result="hue" /><feColorMatrix in="hue" type="saturate" values="2" result="sat" /></filter></svg>