<svg xmlns="http://www.w3.org/2000/svg" filter="url(#saturation)" viewBox="0 0 210 210"><g fill="none" fill-rule="evenodd" transform="matrix(.9 0 0 .9 10.5 10.5)"><rect width="20" height="10" x="165" y="40" fill="#56B3B4" rx="5"/><rect width="60" height="10" x="15" y="200" fill="#EA5E5E" rx="5"/><rect width="40" height="10" x="135" y="120" fill="#BF85BF" rx="5"/><rect width="50" height="10" x="75" y="120" fill="#EA5E5E" rx="5"/><rect width="50" height="10" x="15" y="120" fill="#56B3B4" rx="5"/><rect width="60" height="10" x="15" y="160" fill="#BF85BF" rx="5"/><rect width="60" height="10" x="15" y="80" fill="#BF85BF" rx="5"/><rect width="110" height="10" x="65" y="20" fill="#F7BA3E" rx="5"/><rect width="40" height="10" x="15" y="20" fill="#EA5E5E" rx="5"/><rect width="20" height="10" x="55" y="180" fill="#F7BA3E" rx="5"/><rect width="20" height="10" x="55" y="60" fill="#56B3B4" rx="5"/><rect width="30" height="10" x="15" y="180" fill="#56B3B4" rx="5"/><rect width="30" height="10" x="15" y="60" fill="#F7BA3E" rx="5"/><rect width="90" height="10" x="95" y="100" fill="#56B3B4" rx="5"/><rect width="40" height="10" x="45" y="100" fill="#F7BA3E" rx="5"/><rect width="20" height="10" x="15" y="100" fill="#EA5E5E" rx="5"/><rect width="50" height="10" x="105" y="40" fill="#BF85BF" rx="5"/><rect width="80" height="10" x="15" y="40" fill="#56B3B4" rx="5"/><rect width="100" height="10" x="45" y="140" fill="#F7BA3E" rx="5"/><rect width="20" height="10" x="15" y="140" fill="#BF85BF" rx="5"/><rect width="60" height="10" x="135" y="60" fill="#EA5E5E" rx="5"/><rect width="60" height="10" x="135" y="80" fill="#F7BA3E" rx="5"/><rect width="130" height="10" x="15" fill="#56B3B4" rx="5"/></g><filter id="a"><feColorMatrix in="SourceGraphic" result="hue" type="hueRotate" values="-10"/><feColorMatrix in="hue" result="sat" type="saturate" values="2"/></filter><filter id="saturation"><feColorMatrix in="SourceGraphic" type="hueRotate" values="-10" result="hue" /><feColorMatrix in="hue" type="saturate" values="2" result="sat" /></filter></svg>