<svg xmlns="http://www.w3.org/2000/svg" filter="url(#saturation)" viewBox="0 0 24 24"><path d="M12 3.063a1.787 1.787 0 0 1 1.787 1.788c0 .66-.357 1.242-.893 1.546v1.135h.893a6.256 6.256 0 0 1 6.256 6.255h.894a.894.894 0 0 1 .894.894v2.681a.894.894 0 0 1-.894.894h-.894v.894a1.787 1.787 0 0 1-1.787 1.787H5.744a1.787 1.787 0 0 1-1.788-1.787v-.894h-.893a.894.894 0 0 1-.894-.894v-2.68a.894.894 0 0 1 .894-.895h.893a6.256 6.256 0 0 1 6.256-6.255h.894V6.397a1.773 1.773 0 0 1-.894-1.546A1.787 1.787 0 0 1 12 3.063m-4.022 9.83a2.234 2.234 0 0 0-2.234 2.235 2.234 2.234 0 0 0 2.234 2.234 2.234 2.234 0 0 0 2.234-2.234 2.234 2.234 0 0 0-2.234-2.234m8.043 0a2.234 2.234 0 0 0-2.234 2.234 2.234 2.234 0 0 0 2.234 2.234 2.234 2.234 0 0 0 2.234-2.234 2.234 2.234 0 0 0-2.234-2.234z" style="fill:#ff5722;stroke-width:.89368"/><filter id="a"><feColorMatrix in="SourceGraphic" result="hue" type="hueRotate" values="-10"/><feColorMatrix in="hue" result="sat" type="saturate" values="2"/></filter><filter id="saturation"><feColorMatrix in="SourceGraphic" type="hueRotate" values="-10" result="hue" /><feColorMatrix in="hue" type="saturate" values="2" result="sat" /></filter></svg>