<svg xmlns="http://www.w3.org/2000/svg" filter="url(#saturation)" viewBox="100 100 800 800"><linearGradient id="d" x1="429.39" x2="469.39" y1="517.16" y2="559.16" gradientTransform="translate(-54.117 -62.353) scale(1.1129)" gradientUnits="userSpaceOnUse"><stop offset="0" stop-color="#FF6533"/><stop offset=".157" stop-color="#FF5633"/><stop offset=".434" stop-color="#FF4333"/><stop offset=".714" stop-color="#FF3733"/><stop offset="1" stop-color="#F33"/></linearGradient><linearGradient id="f" x1="450.12" x2="506.94" y1="514.21" y2="552.85" gradientTransform="translate(-54.117 -62.353) scale(1.1129)" gradientUnits="userSpaceOnUse"><stop offset="0" stop-color="#FBB040"/><stop offset="1" stop-color="#FB8840"/></linearGradient><linearGradient id="g" x1="508.33" x2="450.33" y1="295.76" y2="933.76" gradientTransform="translate(-54.117 -62.353) scale(1.1129)" gradientUnits="userSpaceOnUse"><stop offset="0" stop-color="#FFF"/><stop offset="1" stop-color="#FFF" stop-opacity="0"/></linearGradient><g transform="translate(-59.389 -64.731) scale(1.1129)"><linearGradient id="b" x1="444.47" x2="598.47" y1="526.05" y2="562.05" gradientUnits="userSpaceOnUse"><stop offset="0" stop-color="#FF6533"/><stop offset=".157" stop-color="#FF5633"/><stop offset=".434" stop-color="#FF4333"/><stop offset=".714" stop-color="#FF3733"/><stop offset="1" stop-color="#F33"/></linearGradient><path fill="url(#b)" d="M721 410c0-33.6-8.8-65.1-24.3-92.4-41.1-42.3-130.5-52.1-152.7-.2-22.8 53.2 38.3 112.4 65 107.7 34-6-6-84-6-84 52 98 40 68-54 158S359 779 345 787c-.6.4-1.2.7-1.9 1h368.7c6.5 0 10.7-6.9 7.8-12.7l-96.4-190.8c-2.1-4.1-.6-9.2 3.4-11.5C683 540.6 721 479.8 721 410z" style="fill:url(#b)"/></g><g transform="translate(-59.389 -64.731) scale(1.1129)"><linearGradient id="c" x1="420.38" x2="696.38" y1="475" y2="689" gradientUnits="userSpaceOnUse"><stop offset="0" stop-color="#BF3338"/><stop offset="1" stop-color="#F33"/></linearGradient><path fill="url(#c)" d="M721 410c0-33.6-8.8-65.1-24.3-92.4-41.1-42.3-130.5-52.1-152.7-.2-22.8 53.2 38.3 112.4 65 107.7 34-6-6-84-6-84 52 98 40 68-54 158S359 779 345 787c-.6.4-1.2.7-1.9 1h368.7c6.5 0 10.7-6.9 7.8-12.7l-96.4-190.8c-2.1-4.1-.6-9.2 3.4-11.5C683 540.6 721 479.8 721 410z" style="fill:url(#c)"/></g><path fill="url(#d)" d="M329.82 813.46c15.58-8.903 122.41-220.34 227.02-320.5s117.96-66.771 60.094-175.83c0 0-221.46 310.49-301.58 464.06" style="fill:url(#d)" transform="translate(-5.272 -2.378)"/><g transform="translate(-59.389 -64.731) scale(1.1129)"><linearGradient id="e" x1="502.11" x2="490.11" y1="589.46" y2="417.46" gradientUnits="userSpaceOnUse"><stop offset="0" stop-color="#FF6533"/><stop offset=".157" stop-color="#FF5633"/><stop offset=".434" stop-color="#FF4333"/><stop offset=".714" stop-color="#FF3733"/><stop offset="1" stop-color="#F33"/></linearGradient><path fill="url(#e)" d="M373 537c134.4-247.1 152-272 222-272 36.8 0 73.9 16.6 97.9 46.1-32.7-52.7-90.6-88-156.9-89H307.7c-4.8 0-8.7 3.9-8.7 8.7V691c13.6-35.1 36.7-85.3 74-154z" style="fill:url(#e)"/></g><path fill="url(#f)" d="M556.84 492.96c-104.61 100.16-211.44 311.6-227.02 320.5s-41.732 10.016-55.643-5.564c-14.801-16.582-37.837-43.401 86.802-272.65 149.57-274.99 169.15-302.7 247.05-302.7 40.953 0 82.24 18.473 108.95 51.302 1.447 2.337 2.893 4.785 4.34 7.233-45.738-47.074-145.23-57.98-169.93-.222-25.373 59.204 42.622 125.08 72.335 119.85 37.837-6.677-6.677-93.48-6.677-93.48 57.757 108.95 44.403 75.563-60.205 175.72z" style="fill:url(#f)" transform="translate(-5.272 -2.378)"/><path fill="url(#g)" d="M373.22 547.49c149.57-274.99 169.15-302.7 247.05-302.7 33.719 0 67.661 12.575 93.48 35.277-26.708-30.492-66.326-47.519-105.72-47.519-77.9 0-97.486 27.71-247.05 302.7-124.64 229.25-101.6 256.07-86.802 272.65 2.114 2.337 4.563 4.34 7.122 6.01-13.02-18.919-18.807-62.877 91.922-266.42z" opacity=".3" style="opacity:.3;fill:url(#g)" transform="translate(-5.272 -2.378)"/><filter id="a"><feColorMatrix in="SourceGraphic" result="hue" type="hueRotate" values="-10"/><feColorMatrix in="hue" result="sat" type="saturate" values="2"/></filter><filter id="saturation"><feColorMatrix in="SourceGraphic" type="hueRotate" values="-10" result="hue" /><feColorMatrix in="hue" type="saturate" values="2" result="sat" /></filter></svg>