<svg xmlns="http://www.w3.org/2000/svg" filter="url(#saturation)" viewBox="0 0 500 500"><path fill="#ec407a" stroke="#ec407a" stroke-width="16.287" d="M419.1 96.14c-12.2-47.85-91.5-63.45-166.7-36.84-44.5 15.86-92.9 40.8-127.7 73.3C83.32 171.3 76.77 205 79.52 219c9.57 49.7 77.48 82 105.58 106.2v.1c-8.3 4.1-68.6 34.6-82.8 65.8-14.92 32.9 2.4 56.5 13.8 59.7 35.4 9.9 71.8-7.9 91.4-37 18.9-28.1 17.3-64.4 9-82.5 11.3-3 24.5-4.3 41.2-2.3 47.3 5.5 56.6 35 54.8 47.3-1.9 12.3-11.7 19.1-15 21.2-3.4 2-4.3 2.8-4 4.2.4 2.3 1.9 2.3 4.7 1.7 3.9-.6 24.8-10.1 25.7-32.7 1.2-29-26.6-61.4-75.7-60.5-20.1.3-32.9 2.3-42 5.7-.8-.8-1.5-1.6-2.1-2.4-30.5-32.4-86.6-55.2-84.2-98.7.9-15.9 6.4-57.6 107.9-108.2 83.1-41.4 149.6-30 161.1-4.7C405.3 138 353.4 205.1 267 214.8c-32.9 3.7-50.2-9.2-54.4-13.9-4.6-5-5.3-5.3-7-4.2-2.7 1.4-1 5.9 0 8.5 2.7 6.7 13.1 18.6 31.2 24.5 15.9 5.3 54.4 8 101.1-9.9 52.3-20.4 93.2-76.6 81.2-123.66zM196.6 340c3.9 14.4 3.5 27.9-.5 40.2-.6 1.3-1 2.7-1.5 4-.6 1.4-1.2 2.7-1.8 3.9-3.2 6.6-7.4 12.6-12.5 18.2-15.6 17.1-37.5 23.5-46.8 18.1-10.1-5.9-5.1-30 13.1-49.2 19.4-20.5 47.6-33.8 47.6-33.8l-.1-.1c.9-.4 1.7-.9 2.5-1.3z"/><filter id="a"><feColorMatrix in="SourceGraphic" result="hue" type="hueRotate" values="-10"/><feColorMatrix in="hue" result="sat" type="saturate" values="2"/></filter><filter id="saturation"><feColorMatrix in="SourceGraphic" type="hueRotate" values="-10" result="hue" /><feColorMatrix in="hue" type="saturate" values="2" result="sat" /></filter></svg>