<svg xmlns="http://www.w3.org/2000/svg" filter="url(#saturation)" viewBox="0 0 300 300"><path fill="#0277bd" d="M105.5 209.5c-7.91 0-13.49-7.5-13.49-15.3v-.4c0-7.8 5.58-13.7 13.49-13.7h164c1.5-4.9 2.6-11.5 3.3-18H135c-7.9 0-14.3-6-14.3-13.9 0-7.8 6.4-13.9 14.3-13.9h137.3c-.8-6.5-2-13.1-3.8-18h-104c-7.9 0-14.3-6-14.3-13.9 0-7.83 6.4-13.88 14.3-13.88h91.9C235.1 50.91 195.5 27.2 150.2 27.2c-67.88 0-123 54.45-123 122.3 0 67.9 55.12 123.3 123 123.3 46.6 0 87.1-25.5 108-63.1H105.5z"/><filter id="a"><feColorMatrix in="SourceGraphic" result="hue" type="hueRotate" values="-10"/><feColorMatrix in="hue" result="sat" type="saturate" values="2"/></filter><filter id="saturation"><feColorMatrix in="SourceGraphic" type="hueRotate" values="-10" result="hue" /><feColorMatrix in="hue" type="saturate" values="2" result="sat" /></filter></svg>