<svg xmlns="http://www.w3.org/2000/svg" enable-background="new 0 0 256 256" filter="url(#saturation)" viewBox="0 0 256 256"><path fill="#f44336" fill-rule="evenodd" d="M202.51 28.914 53.462 50.896v49.52l.01-.002 29.52 9.546-29.54 4.357v49.3l-.05.207.05-.007.05-.007 29.095 9.409-29.155 4.3v49.5l149.068-21.985v-49.3l.099-.214-.1.014-29.085-9.41 29.086-4.29v-49.6l-29.383-9.466 29.383-4.334v-49.52zm-49.96 56.888 29.58 9.538-78.65 11.599-29.47-9.554 78.54-11.583zm.297 63.356 29.085 9.411-78.847 11.628-29.046-9.416 78.808-11.623z"/><filter id="a"><feColorMatrix in="SourceGraphic" result="hue" type="hueRotate" values="-10"/><feColorMatrix in="hue" result="sat" type="saturate" values="2"/></filter><filter id="saturation"><feColorMatrix in="SourceGraphic" type="hueRotate" values="-10" result="hue" /><feColorMatrix in="hue" type="saturate" values="2" result="sat" /></filter></svg>