<svg xmlns="http://www.w3.org/2000/svg" filter="url(#saturation)" preserveAspectRatio="xMidYMid" viewBox="0 0 250 250"><path fill="#01579b" d="M191 86.15v77.35l-65.7 38.8-.6.5v28.9l.6.6 92.5-53.4V71.15l-.9-.2-26.1 14.6.2.6"/><path fill="#0288d1" d="m59.48 164.1 65.82 38.2v30l-93.04-53.6V71.45l.95-.2 25.99 15.1.28.9v76.85"/><path fill="#4fc3f7" d="m59.48 87.25-27.22-15.9 92.84-53.56 92.7 53.36-26.8 15-65.9-37.55-65.62 38.65"/><path fill="#2f406a" d="m124.2 155.3-.7-.8v-29l.7-.3.2-.9 24.8-14.5.8.3V140l-25.8 15.2"/><path fill="#2379bd" d="M97.96 140.9v-31.1h.72L124 124.6l.2.6v30.1l-26.24-14.4"/><path fill="#03afef" d="M123.8 94.55 97.96 109.8l26.24 15.4 25.8-15.1-26.2-15.55"/><path fill="#01579b" d="m92.09 174.2-.72-.8v-29l.72-.3.17-.7 24.84-14.5.8.1v29.9l-25.81 15.3"/><path fill="#0288d1" d="M65.86 159.8v-31h.72l25.29 14.7.22.6v30.1l-26.23-14.4"/><path fill="#4fc3f7" d="m91.66 113.6-25.8 15.2 26.23 15.3L117.9 129l-26.24-15.5"/><path fill="#01579b" d="m158.6 174.9-.7-.7v-29l.7-.4.2-.7 24.8-14.5.8.1v29.9l-25.8 15.3"/><path fill="#0288d1" d="M132.4 160.6v-31.1h.7l25.3 14.7.2.6v30.1l-26.2-14.3"/><path fill="#4fc3f7" d="m158.2 114.2-25.8 15.3 26.2 15.3 25.8-15.1-26.2-15.5"/><path fill="#01579b" d="m126.5 193.8-.7-.7v-29l.7-.4.2-.7 24.8-14.5.8.2v29.8l-25.8 15.3"/><path fill="#0288d1" d="M100.3 179.5v-31l.7-.1 25.3 14.7.2.6v30.1l-26.2-14.3"/><path fill="#4fc3f7" d="m126 133.2-25.7 15.2 26.2 15.3 25.8-15-26.3-15.5"/><path fill="#01579b" d="m124.2 114.1-.7-.8V84.35l.7-.4.2-.7 24.8-14.5.8.2v29.9l-25.8 15.25"/><path fill="#0288d1" d="M97.96 99.75v-31l.72-.1L124 83.35l.2.6v30.15L97.96 99.75"/><path fill="#4fc3f7" d="m123.8 53.45-25.84 15.3 26.24 15.2 25.8-15-26.2-15.5"/><path fill="#01579b" d="m92.09 133-.72-.7v-29.1l.72-.4.17-.6 24.84-14.55.8.2v29.85L92.09 133"/><path fill="#0288d1" d="M65.86 118.7V87.65l.72-.1 25.29 14.75.22.5V133l-26.23-14.3"/><path fill="#4fc3f7" d="m91.66 72.35-25.8 15.3 26.23 15.15 25.81-14.95-26.24-15.5"/><path fill="#01579b" d="m158.6 133.8-.7-.8v-29l.7-.3.2-.9 24.8-14.45.8.2v29.95l-25.8 15.3"/><path fill="#0288d1" d="M132.4 119.3V88.35h.7l25.3 14.75.2.6v30.1l-26.2-14.5"/><path fill="#4fc3f7" d="m158.2 73.05-25.8 15.3 26.2 15.35 25.8-15.15-26.2-15.5"/><path fill="#01579b" d="m126.5 152.7-.7-.8v-29.1l.7-.2.2-.8 24.8-14.5.8.2v29.9l-25.8 15.3"/><path fill="#0288d1" d="M100.3 138.3v-31.1h.7l25.3 14.8.2.6v30.1l-26.2-14.4"/><path fill="#4fc3f7" d="m126 92.05-25.7 15.15 26.2 15.4 25.8-15.1L126 92.05"/><filter id="a"><feColorMatrix in="SourceGraphic" result="hue" type="hueRotate" values="-10"/><feColorMatrix in="hue" result="sat" type="saturate" values="2"/></filter><filter id="saturation"><feColorMatrix in="SourceGraphic" type="hueRotate" values="-10" result="hue" /><feColorMatrix in="hue" type="saturate" values="2" result="sat" /></filter></svg>