<svg xmlns="http://www.w3.org/2000/svg" filter="url(#saturation)" viewBox="0 0 24 24"><path fill="#0288d1" d="M11.39 1.771 8.496 3.76 4.152 6.725l-.006.009a5.267 5.267 0 0 0-1.367 7.326c1.635 2.4 4.917 3.01 7.321 1.38 1.6-1.1 2.01-3.29.91-4.89l-2.895 1.98a1.75 1.75 0 0 1-2.439-.45 1.77 1.77 0 0 1 .459-2.451l2.644-1.807L10.48 6.66a3.517 3.517 0 0 0 .91-4.889zm5.46 5.872a5.229 5.229 0 0 0-2.94.923c0 .005-.01.01-.01.012a3.515 3.515 0 0 0-.91 4.872l2.9-1.98c.8-.55 1.9-.34 2.45.46.54.8.34 1.89-.46 2.44l-2.65 1.81-1.71 1.16a3.518 3.518 0 0 0-.91 4.89l2.9-1.98 4.34-2.98a5.275 5.275 0 0 0-3-9.627z" class="st0"/><filter id="a"><feColorMatrix in="SourceGraphic" result="hue" type="hueRotate" values="-10"/><feColorMatrix in="hue" result="sat" type="saturate" values="2"/></filter><filter id="saturation"><feColorMatrix in="SourceGraphic" type="hueRotate" values="-10" result="hue" /><feColorMatrix in="hue" type="saturate" values="2" result="sat" /></filter></svg>