<svg xmlns="http://www.w3.org/2000/svg" filter="url(#saturation)" viewBox="0 0 200 200"><path fill="#607d8b" fill-rule="evenodd" d="M136.1 65.35c-3 11.03-9.7 43.55-9.7 43.55s-12.2-4.5-26.1-4.5h-2.43v77h61.63c.2-15.1-3.8-50-3.8-50-2-4.3.9-14.2.9-14.2-16.4-16.8-20.5-51.85-20.5-51.85zm-6.2 81.25c10.1 0 2.6 8.6 1.7 9.5h-19.2c1.8-2.2 8.4-9.5 17.5-9.5z"/><path fill="#90a4ae" fill-rule="evenodd" d="M64.42 65.35s-4.1 35.05-20.49 51.85c0 0 2.86 9.9.85 14.2 0 0-3.98 34.9-3.77 50h59.29v-77c-13.94 0-26.18 4.5-26.18 4.5s-6.65-32.52-9.7-43.57zm6.03 81.25c9.14 0 15.72 7.3 17.46 9.5H68.78c-.88-.9-8.44-9.5 1.67-9.5z"/><path fill="#455a64" fill-rule="evenodd" d="M133.2 162.5h-21.3v.2c0 7.4 6.4 13.4 14 13.4 7.5 0 13.9-6 13.9-13.4v-.2z"/><path fill="#fff" fill-rule="evenodd" d="M117.2 162.5v.2c0 4.4 3.6 8 8 8s8-3.6 8-8v-.2z"/><path fill="#37474f" fill-rule="evenodd" d="M127.7 162.5h-3.9c.5.1.7 1.1.6 1.8-.1 1.1-1 1.9-2.1 1.9.3 1.4 1.5 2.5 3 2.7 1.9.3 3.7-1.1 4-3 .2-1.4-.5-3.4-1.6-3.4z"/><path fill="#455a64" fill-rule="evenodd" d="M81.93 162.5H60.7v.2c0 7.4 6.41 13.4 13.93 13.4 7.53 0 13.94-6 13.94-13.4v-.2z"/><path fill="#fff" fill-rule="evenodd" d="M66.01 162.5v.2c0 4.4 3.55 8 7.96 8s7.96-3.6 7.96-8v-.2z"/><path fill="#37474f" fill-rule="evenodd" d="M76.43 162.5H72.6c.46.1.71 1.1.62 1.8-.15 1.1-1.06 1.9-2.11 1.9.31 1.4 1.45 2.5 2.96 2.7 1.93.3 3.72-1.1 3.98-3 .2-1.4-.48-3.4-1.62-3.4z"/><path fill="#607d8b" fill-rule="evenodd" d="m62.83 18.65-7.76 14.23c-2.72 5.06-26.71 49.97-26.71 66.18v.94l10.98 29.2c-1.47 13.5-4.06 40-3.29 52.2h10.59c-.64-7 1.21-31.4 3.52-52.2l.14-1.3-1.99-5.3c6.83-7.2 11.62-17 14.93-26.39l.31 2.29 10.85 17.8 4.23-1.8c.11-.1 10.98-4.7 21.47-4.7 10.5 0 21.6 4.6 21.7 4.7l4.2 1.8 10.8-17.8.5-2.97c3.2 9.47 8 19.47 14.9 26.77l-2.1 5.6.1 1.3c2.4 20.8 4.2 45.3 3.6 52.2h10.5c.7-12.2-2-38.7-3.4-52.2l10.7-29.2v-.94c0-16.21-23.8-61.12-26.5-66.18l-7.6-14.23-10.9 76.19-5 8.26c-4.9-1.6-13.1-3.88-21.5-3.88-8.27 0-16.48 2.28-21.32 3.88l-5.03-8.26-3.82-26.7c0-.05.02-.11.02-.13l-.04-.02zm-5.84 33.99 2.22 15.54c-.85 5.8-4.73 28.59-15.13 42.92l-4.81-12.89c.59-8.43 9.35-28.59 17.72-45.57zm86.41 0c8.4 16.98 17.1 37.14 17.7 45.57l-4.6 12.59c-11.3-15.79-14.8-41.5-15.1-43.84z"/><filter id="a"><feColorMatrix in="SourceGraphic" result="hue" type="hueRotate" values="-10"/><feColorMatrix in="hue" result="sat" type="saturate" values="2"/></filter><filter id="saturation"><feColorMatrix in="SourceGraphic" type="hueRotate" values="-10" result="hue" /><feColorMatrix in="hue" type="saturate" values="2" result="sat" /></filter></svg>