<svg xmlns="http://www.w3.org/2000/svg" filter="url(#saturation)" viewBox="0 0 24 24"><path fill="#455a64" d="M8.75 1.65c-3.9 0-7.1 3.2-7.1 7.1v6.5c0 3.9 3.2 7.1 7.1 7.1h6.5c3.9 0 7.1-3.2 7.1-7.1v-6.5c-.1-3.9-3.3-7.1-7.2-7.1h-6.4zm0 1h6.4c3.3 0 6.1 2.7 6.1 6.1v6.5c0 3.3-2.7 6.1-6.1 6.1h-6.4c-3.3 0-6.1-2.7-6.1-6.1v-6.5c0-3.3 2.7-6.1 6.1-6.1zm1.1 4.049c-1.1 0-2.7.9-2.7 2v.102H16.95v-.102c0-1.1-1.6-2-2.7-2h-4.4zM7.051 11c0 1.1 1.599 2 2.699 2h7c0-1.1-1.6-2-2.7-2H7.051zm0 4.2v.1c0 1.1 1.599 2 2.699 2h4.3c1.1 0 2.7-.9 2.7-2v-.1H7.051z"/><filter id="a"><feColorMatrix in="SourceGraphic" result="hue" type="hueRotate" values="-10"/><feColorMatrix in="hue" result="sat" type="saturate" values="2"/></filter><filter id="saturation"><feColorMatrix in="SourceGraphic" type="hueRotate" values="-10" result="hue" /><feColorMatrix in="hue" type="saturate" values="2" result="sat" /></filter></svg>