<svg xmlns="http://www.w3.org/2000/svg" filter="url(#saturation)" viewBox="0 0 300 300"><path fill="#ec407a" d="m257.5 22.27-18.6 1.38v36.54l-16.7-7.12-16.6 7.12V26.1L76.88 35.59 87.94 269.6l169.56 8.1zm-87.2 48.12c31.7 0 49.9 17.29 49 52.31l-36.2.9c.7-18.8-7.4-20.6-11.9-20.6-4.3 0-11.4 1.3-11.4 11.4 0 24.9 61.5 23.6 61.5 73.9 0 28.3-22 41.3-50.1 41.3-29 0-54.3-9.9-51.4-53.2h37.9c-.4 17.5 3.4 23.8 13.1 23.8 7.4 0 10.7-4.3 10.7-11.5 0-25.6-60.6-26.5-60.6-73.4 0-26.95 17.8-44.91 49.4-44.91z" clip-rule="evenodd" style="paint-order:fill markers stroke"/><path fill="#ba68c8" d="M62.26 35.59H42.47l8.29 234.01h22.56z" clip-rule="evenodd" style="paint-order:fill markers stroke"/><filter id="a"><feColorMatrix in="SourceGraphic" result="hue" type="hueRotate" values="-10"/><feColorMatrix in="hue" result="sat" type="saturate" values="2"/></filter><filter id="saturation"><feColorMatrix in="SourceGraphic" type="hueRotate" values="-10" result="hue" /><feColorMatrix in="hue" type="saturate" values="2" result="sat" /></filter></svg>