<svg xmlns="http://www.w3.org/2000/svg" filter="url(#saturation)" viewBox="0 0 412 395"><path fill="#cfd8dc" d="M81.17 30.27 31.48 76.3l32.64 28.2-24.68 26.7L202.1 362.7h1.6c-38.2-136.6-37.1-137.2-64.6-234.6l-6.7 3.8c-3.6 2.1-6.6.4-6.6-3.7V81.72c-7.3-25.66-13-45.49-14.7-51.45H81.17zm219.93 0c-1.7 5.96-7.4 25.79-14.7 51.45v46.48c0 4.1-3 5.8-6.5 3.7l-6.7-3.8c-27.6 97.4-26.5 98-64.7 234.6-.2 1 .8 1.3 1.6-.1l162.7-231.4-24.7-26.7 32.6-28.2-49.6-46.03h-30zM208.5 362.7v-.1.1zM134.3 41.22c-1.9-.17-3.4 1.29-3.4 3.93v74.65c0 3.5 2.6 4.9 5.5 3.1l44.7-25.74c-.8-.9-1.3-2.01-1.3-3.23V70.12c0-.97.4-1.87.9-2.65l-44.3-25.52c-.7-.44-1.4-.68-2.1-.73zm143.7 0c-.6.05-1.3.29-2.1.73l-44.3 25.52c.5.78.9 1.68.9 2.65v23.81c0 1.23-.5 2.34-1.3 3.24l44.7 25.73c2.9 1.8 5.5.4 5.5-3.1V45.15c0-2.64-1.4-4.1-3.4-3.93zM186.1 68.3c-1.5 0-2.7.81-2.7 1.82v23.8c0 1.01 1.2 1.82 2.7 1.82h40.2c1.4 0 2.6-.81 2.6-1.82v-23.8c0-1.01-1.2-1.82-2.6-1.82h-40.2zm18.8 52.9a12.06 12.06 0 0 0-12.1 12.1 12.06 12.06 0 0 0 12.1 12.1 12.06 12.06 0 0 0 12.1-12.1 12.06 12.06 0 0 0-12.1-12.1zm0 71.8a12.06 12.06 0 0 0-12.1 12.1 12.06 12.06 0 0 0 12.1 12.1 12.06 12.06 0 0 0 12.1-12.1 12.06 12.06 0 0 0-12.1-12.1zm0 71.8a12.06 12.06 0 0 0-12.1 12.1 12.06 12.06 0 0 0 12.1 12.1 12.06 12.06 0 0 0 12.1-12.1 12.06 12.06 0 0 0-12.1-12.1z"/><filter id="a"><feColorMatrix in="SourceGraphic" result="hue" type="hueRotate" values="-10"/><feColorMatrix in="hue" result="sat" type="saturate" values="2"/></filter><filter id="saturation"><feColorMatrix in="SourceGraphic" type="hueRotate" values="-10" result="hue" /><feColorMatrix in="hue" type="saturate" values="2" result="sat" /></filter></svg>