<svg xmlns="http://www.w3.org/2000/svg" filter="url(#saturation)" viewBox="0 0 24 24"><path fill="#FFB74D" d="M11.232 13.667 6.87 12.252a.343.343 0 0 1-.221-.301l-.042-3.352a.331.331 0 0 1 .216-.3l10.279-3.288c.122-.039.22.032.22.16v3.351a.34.34 0 0 1-.219.303l-4.241 1.414 4.311 1.346c.122.038.22.172.22.299v3.304a.343.343 0 0 1-.217.304L6.87 18.988c-.12.042-.218-.029-.219-.155l-.021-3.449a.333.333 0 0 1 .217-.3l4.385-1.417Z"/><filter id="a"><feColorMatrix in="SourceGraphic" result="hue" type="hueRotate" values="-10"/><feColorMatrix in="hue" result="sat" type="saturate" values="2"/></filter><filter id="saturation"><feColorMatrix in="SourceGraphic" type="hueRotate" values="-10" result="hue" /><feColorMatrix in="hue" type="saturate" values="2" result="sat" /></filter></svg>