<svg xmlns="http://www.w3.org/2000/svg" filter="url(#saturation)" viewBox="0 0 24 24"><defs><linearGradient id="b" x1="12.356" x2="12.356" y1="21.559" y2="2.949" gradientUnits="userSpaceOnUse"><stop offset="0" stop-color="#791223"/><stop offset="1" stop-color="#d92f3c"/></linearGradient></defs><path fill="url(#b)" d="M6 3c-.47 0-.88.21-1.16.55L3.46 5.23C3.17 5.57 3 6 3 6.5V19a2 2 0 0 0 2 2h14a2 2 0 0 0 2-2V6.5c0-.5-.171-.93-.461-1.27L19.15 3.55C18.88 3.21 18.47 3 18 3H6zm-.07 1h12l.94 1H5.12l.81-1z"/><path fill="#fff" d="m11.053 11.918-.008.001c-.244.02-.475.053-.676.11a2.9 2.9 0 0 0-.856.411 3.399 3.399 0 0 0-.67.683 9.36 9.36 0 0 0-.586.95c-.07.132-.134.244-.201.365v.001h-.002l-.768 1.372-.003-.001c-.136.254-.264.485-.38.686-.124.212-.26.39-.411.539s-.325.26-.52.34c-.04.016-.092.024-.138.036h-.567v1.383H5.834v-.001c.245-.02.477-.053.679-.11a2.9 2.9 0 0 0 .855-.411c.246-.185.47-.413.672-.683.194-.275.39-.591.584-.95.07-.131.135-.244.202-.365h.004l.002-.002.02-.038H10.948v-1.378h-.19v-.001H9.623c.126-.234.247-.452.356-.64.123-.21.259-.39.41-.538.152-.148.325-.26.52-.34.04-.015.091-.023.136-.035h.569V13.3h-.001V11.92h-.56z"/><filter id="a"><feColorMatrix in="SourceGraphic" result="hue" type="hueRotate" values="-10"/><feColorMatrix in="hue" result="sat" type="saturate" values="2"/></filter><filter id="saturation"><feColorMatrix in="SourceGraphic" type="hueRotate" values="-10" result="hue" /><feColorMatrix in="hue" type="saturate" values="2" result="sat" /></filter></svg>