<svg xmlns="http://www.w3.org/2000/svg" filter="url(#saturation)" viewBox="0 0 200 200"><path fill="#cb3349" d="M53.34 89.17S25.78 108.6 24.7 116l2.07-.5s33.01-21.84 59.17-24.51l.59-3.32zM96.61 86.4 74.9 101.8l1.17.9c.89-.7 38.53-12.18 38.53-12.18l8-4.99c-5.3.67-25.99.87-25.99.87zM115.5 105c15.4 0 38.5-15.08 38.5-15.08l-7.5-1.42c-.3.37-12-.41-12-.41l-5.6-1.54-13.2 15.05-1.1 2.7c1-.4.9.7.9.7zM165.8 153.2l-4.8 1.3-22-.5-13.7-10.7-16.7 4.2-19.23-1.7-10.77 11.8-20.22 6.1-10.1-3.2c-.32-.3-.51-.4-.51-.4l4.53 11.1s10.27 11 16 12.3 16.09-.1 23.86-1.3 13.94-4 16.44-8.5c2.5-4.6 2.9-5.9 2.9-5.9s7.4 10.5 13.8 11.7c6.3 1.2 25.3-5.3 25.3-5.3s11.6-3.1 13.6-7.1 7.4-17 7.4-17zm-115.4 9c-.11 0-.21-.1-.32-.1-.76-.7-1.38-1.2-1.78-1.6z" class="st0"/><path fill="#f4edae" d="M184.5 74.57c-.1-.6-.1-1.19-.2-1.78-.1-.42-.1-.86-.2-1.27-1.6-1.33-3.4-2.52-5.3-3.6-2-1.19-4.1-2.26-6.3-3.25-2.2-1.02-4.4-1.94-6.6-2.84-1.1-.45-2.3-.89-3.4-1.31-1.1-.43-2.2-.84-3.4-1.26 2.4.4 4.8.94 7.1 1.55 1.5.39 3.1.83 4.6 1.3-10.8-28.04-36.4-46.3-64.4-46.3-28.02 0-53.67 18.26-64.4 46.3 1.51-.47 3.03-.91 4.55-1.3 2.35-.61 4.72-1.15 7.11-1.55-1.14.42-2.28.83-3.4 1.26-1.13.42-2.25.86-3.37 1.31-2.23.9-4.44 1.82-6.61 2.84-2.17.99-4.3 2.06-6.34 3.25-1.87 1.08-3.68 2.27-5.27 3.6-.07.41-.14.85-.19 1.27-.07.59-.14 1.18-.18 1.78-.11 1.19-.15 2.39-.16 3.59-.03 2.41.14 4.81.44 7.19.33 2.38.77 4.75 1.41 7.04.32 1.15.68 2.28 1.1 3.37.21.55.44 1.09.68 1.61.12.26.24.52.37.77l.15.29c.17.09.36.18.54.26l1.06.51c.6.27 1.42.66 2.1 1 .04-.1.08-.1.11-.1l-1.98-7.57c.42-.12 4.18-1.09 10.66-2.32-.53-.1-1.05-.22-1.57-.34-1.48-.37-2.93-.81-4.34-1.39-.7-.29-1.39-.61-2.05-.98-.66-.38-1.3-.81-1.8-1.37 7.12 2.32 21.82 1.27 34.9-.08 11.95-1.24 23.94-2.04 35.98-2.06 12.1.02 24 .82 36 2.06 13.1 1.35 27.8 2.4 34.9.08-.5.56-1.1.99-1.8 1.37-.7.37-1.3.69-2 .98-1.5.58-2.9 1.02-4.4 1.39l-.6.15c7.1 1.32 11.2 2.39 11.6 2.5l-1.9 7.19 1.2-.51 1.1-.51c.1-.09.3-.18.5-.26l.1-.3c.2-.24.3-.5.4-.76.2-.52.5-1.06.7-1.61.4-1.09.8-2.23 1.1-3.37.6-2.29 1.1-4.66 1.4-7.05.3-2.37.5-4.78.4-7.18 0-1.2 0-2.4-.1-3.59z" class="st1"/><path fill="#e6ccad" d="M114.5 174.3c-1 .1-1.9.2-2.9.3-.6 0-1.2.1-1.8.1h-.2c.7-1.6 1.3-2.9 1.7-3.8.9.9 1.9 2.1 3.2 3.4zM116.5 176.4c2.9 2.9 6.6 4.5 10.6 4.8-6.7 2.8-13.1 3.8-17.9 4.1-4.9.4-9.8-.2-14.62-1.5.4-.1.7-.2 1.05-.2.4-.1 9.07-1.2 12.97-7h1.3c.6 0 1.2 0 1.8-.1 1.5-.1 3-.3 4.4-.6.1.2.3.3.4.5z" class="st2"/><path fill="#656c67" d="M124.8 89.61c-.3.37-.6.77-.9 1.19-1.7 2.17-4.1 4.93-6.9 7.64-3.3-.1-6.7-.15-10.1-.15-5.7 0-11.24.15-16.45.4 7.36-3.05 16.25-6.04 25.75-7.83 2.8-.53 5.7-.95 8.6-1.25zM81.72 92.91c-2.62 1.84-5.59 4.2-8.47 7.06-7.37.73-13.8 1.63-19.11 2.53 8.16-3.79 17.47-7.24 27.58-9.59zM171.8 108.1l-3 21-14.4 10.1-37.4-4.3-5.7-18.6c-.1-.4-.5-.8-1-.8-1.3-.3-2.6-.4-3.6-.4s-2.2.1-3.6.4c-.5 0-.9.4-1 .8l-5.52 18.1-37.25 8.3-14.76-10.3-2.91-23.5c.64-.4 1.28-.8 1.93-1.1.91-.2 1.94-.4 3.08-.6l2.74 22.2c.04.3.23.6.52.8l10.15 7.1c.21.2.46.3.71.3.09 0 .17 0 .27-.1l30.62-6.8c.11 0 .21 0 .3-.1.29-.1.51-.4.61-.7l5.51-18.2c1.48-.4 5.3-1.2 8.6-1.2s7.1.8 8.6 1.2l5.5 18.2c.2.4.6.8 1 .8l30.7 3.5c.3.1.6 0 .8-.2l10.2-7.1c.2-.2.4-.5.5-.8l2.7-19c2 .4 3.7.7 5.1 1zM175.6 94.97 172.9 105c-5.4-1.2-17.2-3.6-33.3-5.12 5.2-2.25 10.6-5.06 15.5-8.58 9.6 1.35 16.6 2.8 20.5 3.67z" class="st3"/><path fill="#E5CAA3" d="M67.57 126.3c2.09-1.2 4.44-1 8.14-1h2.34c3.81-.1 6.97.3 6.92-5.7-.06-6-2.71-10.8-6.52-10.7-3.8 0-7.48 4.9-7.26 10.9.06 1.5.29 2.6.66 3.4-3.32.9-4.23 2.9-4.28 3.1zm45.73-24.6c-1.5 1.2-3 2.3-4.6 3.3l-5.4 3.2c-3.41.4-6.35 1.3-6.52 1.3-.1.1-.19.1-.28.1-.26.2-.46.4-.56.8l-5.5 18.1-29.39 6.5-9.26-6.5-2.69-21.8c5.25-1 12.29-2.1 20.73-3-.9 1.1-1.78 2.2-2.62 3.4l-5.02 7.2 7.32-4.9c.11 0 4.77-3.1 12.4-6.8 7.6-.6 15.99-1 24.99-1 2.2 0 4.3 0 6.4.1zM145.5 123.8c0-.1-.8-2.5-4.4-2.1.4-.9.6-2.1.5-3.7-.5-6-3.9-10.7-7.7-10.6s-6.3 5.1-6.1 11c.2 6 3.4 6 7.2 5.8 5.2-.1 8-1.6 10.5-.4zm18.8-17.2-2.7 18.6-9.3 6.5-29.4-3.3-5.4-18c-.2-.4-.5-.8-.9-.9-.2 0-3.8-1.1-7.6-1.4h.7c.6-.1 10.7-1.3 22.8-5.5 13.4 1 24.3 2.7 31.8 4z" class="st4"/><path fill="#C7B39A" d="M67.57 126.3c2.09-1.2 4.44-1 8.14-1h2.34c3.81-.1 6.97.3 6.92-5.7-.06-6-2.71-10.8-6.52-10.7-3.8 0-7.48 4.9-7.26 10.9.06 1.5.29 2.6.66 3.4-3.32.9-4.23 2.9-4.28 3.1zm45.73-24.6c-1.5 1.2-3 2.3-4.6 3.3l-5.4 3.2c-3.41.4-6.35 1.3-6.52 1.3-.1.1-.19.1-.28.1-.26.2-.46.4-.56.8l-5.5 18.1-29.39 6.5-9.26-6.5-2.69-21.8c5.25-1 12.29-2.1 20.73-3-.9 1.1-1.78 2.2-2.62 3.4l-5.02 7.2 7.32-4.9c.11 0 4.77-3.1 12.4-6.8 7.6-.6 15.99-1 24.99-1 2.2 0 4.3 0 6.4.1zM145.5 123.8c0-.1-.8-2.5-4.4-2.1.4-.9.6-2.1.5-3.7-.5-6-3.9-10.7-7.7-10.6s-6.3 5.1-6.1 11c.2 6 3.4 6 7.2 5.8 5.2-.1 8-1.6 10.5-.4zm18.8-17.2-2.7 18.6-9.3 6.5-29.4-3.3-5.4-18c-.2-.4-.5-.8-.9-.9-.2 0-3.8-1.1-7.6-1.4h.7c.6-.1 10.7-1.3 22.8-5.5 13.4 1 24.3 2.7 31.8 4z" class="st5"/><path fill="#e6ccad" d="M177.1 114.8c.4.4.8 1.3.4 5.8-.5 5.5-2.8 15.1-4.2 16.7-1.6.3-4.9-.1-6.9-.6.3-1.4.4-2 .7-3.4l3.5-2.5c.3-.2.5-.5.5-.8l2.5-17.3c1.5.8 3 1.7 3.5 2.1zM47.28 137.3c.18.6.36 1.2.55 1.9-1.89.5-5.75 1.1-7.5.7-1.44-1.4-4.14-11.4-4.73-16.8-.48-4.3-.14-5.2.29-5.6.51-.4 2.42-1.5 4.07-2.4l2.23 18.1c.05.4.23.7.52.9zM118.5 137.6l-.1 1.1s-4.1 3.8-10.6 4.6c-6.5.9-11.68-3.2-11.68-3.2.21.7.52 2.3 2 3.7-1.74-.2-3.62-.4-5.6-.4-.71 0-1.43 0-2.12.1-4.02.2-9.68 6.3-13.66 12.4-1.95.6-8.05 2.5-15.11 4.6-6.59-9.1-9.83-18.4-10.16-19.4h.01c-.14-.4-.27-.8-.39-1.1l1.69 1.1v.1l4.19 2.9 1.4 1c.21.1.45.2.7.2h.27l38.47-8.6c.44-.1.79-.4.91-.9l5.48-18c1-.1 1.8-.2 2.5-.2s1.5.1 2.5.2l5.6 18.6c.2.5.6.8 1.1.8z" class="st2"/><path fill="#e6ccad" d="m162.4 136.6 1.3-.9c-.2.8-.5 1.7-.7 2.6-1.7 5.5-3.8 10.4-6 14.7-.5 0-1 .1-1.6.1-1.8 0-3.5-.2-5.5-.4-3.4-.3-8.9-.9-10.6-1.1-1.5-1.2-6.5-5.2-10.8-8.5-.1-.2-.3-.3-.4-.4-.7-.6-1.6-1.3-3.3-1.3-1.5 0-3.8.5-9.3 2.2 2.9-2.1 2.9-4.9 2.9-4.9l.1-1.1 36.1 4.1c.3 0 .6-.1.9-.3l3.6-2.5z" class="st2"/><path fill="#ebd599" d="M135.9 60.62c.1 3.21 0 9.03-1.5 14.47-.1.21-.1.43 0 .63-1.9-.2-3.8-.37-5.7-.53 2.1-4.47 2.6-9.24 2.7-10.92 1.6-1.17 3.3-2.56 4.5-3.65zM81.4 64.27c.1 1.68.56 6.44 2.7 10.91-1.91.15-3.81.33-5.71.53.05-.2.06-.41 0-.62-1.49-5.43-1.57-11.26-1.46-14.48 1.2 1.1 2.82 2.49 4.47 3.66z" class="st6"/><path fill="#2d3136" d="M145.5 123.8c-2.5-1.2-5.3.3-10.5.4-3.8.2-7 .2-7.2-5.8-.2-5.9 2.3-10.9 6.1-11s7.2 4.6 7.7 10.6c.1 1.6-.1 2.8-.5 3.7 3.6-.4 4.4 2 4.4 2.1zm-11.9-8.7c1-.1 1.9-.9 1.9-2s-.9-1.9-2-1.9-1.9.9-1.9 2c0 1 .9 1.9 2 1.9z" class="st7"/><path fill="#edf6fa" d="M135.4 113.1a1.943 1.943 0 0 1-1.9 1.9 1.943 1.943 0 0 1-1.9-1.9 1.943 1.943 0 0 1 1.9-1.9 1.943 1.943 0 0 1 1.9 1.9z" class="st8"/><path fill="#2d3136" d="M84.97 119.6c.05 6-3.11 5.6-6.92 5.7h-2.34c-3.7 0-6.06-.2-8.14 1 .05-.2.96-2.2 4.28-3.1-.37-.8-.6-1.9-.66-3.4-.23-6 3.46-10.9 7.26-10.9 3.8-.1 6.46 4.7 6.52 10.7zm-5.88-3.1c1.07 0 1.92-.9 1.89-2s-.92-1.9-1.99-1.9c-1.08 0-1.93.9-1.9 2s.93 1.9 2 1.9z" class="st7"/><path fill="#edf6fa" d="M80.98 114.6a1.944 1.944 0 0 1-1.94 1.9 1.944 1.944 0 0 1-1.94-1.9 1.944 1.944 0 0 1 1.94-1.9 1.944 1.944 0 0 1 1.94 1.9z" class="st8"/><path fill="#ebd599" d="M55.92 79.06s.59-7.7 1.8-10.65c.62-1.52 4.42-2.49 7.33-3.18 2.9-.7 7.53-2.08 8.43 2s2.35 7.05 3.32 8.37l-1.24-16.81-19.99 4.84-1.31 14.87.62 1.18zM157.1 79.06s-.6-7.7-1.8-10.65c-.7-1.52-4.5-2.49-7.4-3.18-2.9-.7-7.5-2.08-8.4 2s-2.4 7.05-3.3 8.37l1.2-16.81 20 4.84 1.3 14.87-.6 1.18z" class="st6" opacity=".8"/><path fill="#EBD599" d="M128.8 28.76s-.5 40.3-9.9 40.3H94.38c-9.41 0-10.17-40.28-10.17-40.28l-4.63 13.68.08 18.76 3.28 2.61 1.49 8.06 2.09 4.7 40.28.07 1.9-3.36 1.5-5.66.3-3.59 4.4-12.7zM158.4 66.34s2 13.9 7.1 16.4c5.1 2.51 0 0 0 0l-7.2-2.16zM54.34 66.34s-1.94 13.9-7.06 16.4c-5.13 2.51 0 0 0 0l7.17-2.16z" class="st10" opacity=".75"/><path fill="#2d3136" d="M159.8 80.51c2.5.8 4.9 1.65 7.1 2.95-1.1-.47-2.4-.81-3.6-1.11-1.2-.32-2.5-.58-3.7-.82-2.5-.47-5-.87-7.6-1.18-2.5-.33-5-.6-7.5-.82-2.6-.21-5.1-.43-7.6-.57-10.2-.63-20.3-.78-30.5-.79-10.18 0-20.35.19-30.49.79-2.53.15-5.06.36-7.59.58-2.53.21-5.06.48-7.57.82-2.52.3-5.03.7-7.53 1.17-1.24.24-2.49.51-3.72.82-1.24.3-2.47.64-3.66 1.11 2.22-1.3 4.68-2.15 7.12-2.95.21-.07.42-.12.63-.19a.75.75 0 0 1-.04-.16c-.04-.28-.95-6.96.63-16.51.07-.46.4-.83.85-.96l2.58-.73c.57-20.04 8.82-29.47 9.08-29.76-7.38 11.87-7.31 25.94-7.18 29.22l16.05-4.56c.02-.01.03-.01.04-.01.07-.02.14-.03.2-.03.02 0 .05-.01.07-.01.08 0 .17.01.26.03.01 0 .03.01.05.01.06.02.13.04.2.07.03.01.04.03.07.04.05.03.11.06.16.1.01.01.03.01.04.03l.03.03c.02.01.03.02.05.04.01.01.44.43 1.12 1.07-.16-5.29.09-20.47 7.32-33.05-.16.44-5.89 17.21-3.92 36 .65.52 1.32 1.02 1.98 1.46.32.22.51.58.52.97 0 .06.14 6.05 2.79 11.15.03.07.06.15.09.23 6.58-.44 13.18-.62 19.77-.63 6.6.01 13.2.2 19.8.65v-.25c2.7-5.1 2.8-11.09 2.8-11.15 0-.39.2-.75.6-.97.6-.44 1.3-.94 1.9-1.46 2-18.79-3.7-35.56-3.9-36 7.2 12.58 7.5 27.76 7.3 33.05.7-.64 1.1-1.06 1.2-1.07v-.07c0-.01.1-.02.1-.03 0-.04.1-.07.1-.1.1-.01.1-.03.1-.04.1-.03.1-.05.2-.07 0 0 0-.01.1-.01 0-.02.1-.03.2-.03l.1.01s.1.01.2.03v.01l16.1 4.56c.1-3.28.2-17.35-7.2-29.22.3.29 8.5 9.72 9.1 29.76l2.6.73c.4.13.7.5.8.96 1.6 9.55.7 16.23.6 16.51v.16c.2.07.4.13.6.19zm-2.9-.85c.1-1.07.7-6.92-.5-14.89l-18.2-5.16c.2 3.07.2 9.75-1.5 16.12 0 .07-.1.15-.1.23.2.01.4.03.5.05 5.1.59 10.2 1.41 15.3 2.51 1.5.35 3 .73 4.5 1.14zm-22.5-4.57c1.5-5.44 1.6-11.26 1.5-14.48-1.2 1.09-2.9 2.49-4.5 3.66-.1 1.68-.6 6.45-2.7 10.92 1.9.16 3.8.33 5.7.53-.1-.2-.1-.42 0-.63zm-50.3.09c-2.13-4.47-2.6-9.23-2.7-10.91-1.64-1.17-3.27-2.56-4.47-3.65-.11 3.21-.03 9.04 1.46 14.47.06.21.05.42 0 .62 1.9-.2 3.81-.38 5.71-.53zm-7.91.77a1.02 1.02 0 0 1-.09-.22c-1.75-6.37-1.67-13.05-1.52-16.12l-18.17 5.16c-1.22 7.96-.65 13.81-.53 14.88 1.51-.41 3.02-.78 4.55-1.14 2.51-.55 5.04-1.02 7.58-1.45 2.54-.42 5.09-.74 7.64-1.05.18-.03.36-.04.54-.06z" class="st7"/><path fill="#cb3349" d="M90.72 32.3v9.18h4.89v-4.42h8.19v26.19h-3.6v5.57h12.9v-5.57h-3.6V37.06h8.2v4.42h5V32.2H90.72z" class="st0"/><path fill="#2d3136" d="M125.5 29.29v15.08h-10.6v-4.4h-2.5v20.35h3.7V71.7H97.38V60.32H101V39.97h-2.39v4.4H87.92V29.29zm-3.2 11.88V32.5H91.13v8.67h4.26v-4.41h8.81v26.77h-3.6v4.97h12.3v-4.97h-3.7V36.76h8.9v4.41z" class="st7"/><path fill="#656c67" d="M38.21 94.97c1.55-.35 3.66-.8 6.24-1.3a95.334 95.334 0 0 0-5.51 4.07z" class="st3"/><path fill="#C7B39A" d="M95.27 136.3s.43 2.8-3.49 4-28.77 8.6-31.61 8.2c-2.83-.4-10.03-5.2-10.03-5.2l-1.74-6.2 10.64 6.6zM117.5 135.8s-.3 2.8 3.7 3.8 29.1 7.4 31.9 6.8c2.8-.5 9.8-5.6 9.8-5.6l1.5-6.3-9.8 5.9z" class="st5"/><path fill="#C7B39A" d="M36.18 131.1s3.45 6.9 9.01 4.5l3.97 1.5-.39 2.9-8.35 1.1-2.25-1.3zM177.1 129.3s-5.6 7.1-11.1 4.8l-1.8 1.1.4 2.9 8.3 1.1 2.3-1.3zM90.1 183.4s20.4 10.2 43.5-3.8l-7.4-.5s-16.2 6.4-29.02 2.9z" class="st5"/><path fill="#2d3136" d="m110.8 164.4 1.4 1.7s3.2 3.8 7 7.6c2.5 2.5 5.6 3.8 9.2 3.8 1.2 0 2.4-.2 3.7-.5 1.2-.3 2.5-.6 3.8-.9 4.8-1.1 10.2-2.4 12.8-3.2.5-.1 1.1-.3 1.7-.4 3.5-.8 8.3-1.9 10.8-7 1.9-3.8 4.5-8.7 6.4-12.3-1.7.7-3.4 1.5-4.6 2.2-1.9 1-4.4 1.5-7.6 1.5-1.9 0-3.8-.2-5.9-.4-4.1-.4-11.1-1.2-11.2-1.2l-.5-.1-.4-.3c-.1 0-6.2-4.9-11.2-8.8-.2-.2-.4-.4-.6-.5l-.8-.4c-1.6 0-6.2 1.4-16.3 4.5l-.7.2-.6-.2c-.1 0-6.7-2.5-14.67-2.5-.65 0-1.3 0-1.94.1-.79 0-5.27 2.1-11 11.2l-.37.6-.66.2c-.09 0-9.95 3.2-20.41 6.2l-.68.2-.64-.3c-.07 0-4.16-1.9-8.05-3.7 2.12 3.1 4.83 7 7.22 10.1 4.18 5.4 9.44 10.3 19.52 10.3 1.27 0 2.61 0 3.99-.2 10.26-1.2 12.9-1.6 14.32-1.9.48-.1.86-.1 1.35-.2.08 0 8.52-1.1 10.82-6.4 2.4-5.4 2.9-6.7 3-6.7l.8-2.3s.1-.6.3-.8c.3.2.7.8.7.8zM46.89 61.83c-2.22.9-4.44 1.83-6.6 2.84-2.17 1-4.3 2.06-6.34 3.25-1.88 1.08-3.68 2.27-5.28 3.61-.06.4-.13.84-.18 1.26-.07.59-.14 1.18-.19 1.78-.1 1.19-.14 2.39-.16 3.59-.02 2.41.15 4.81.45 7.19.33 2.38.76 4.75 1.41 7.04.32 1.15.68 2.28 1.1 3.37.21.55.44 1.09.68 1.61.12.26.24.52.36.77l.15.29c.18.09.37.18.54.26l1.07.51c.6.28 1.42.67 2.09 1 .05-.1.08-.1.11-.1l-1.97-7.57c.42-.12 4.18-1.09 10.66-2.32-.53-.1-1.06-.21-1.58-.34-1.47-.36-2.93-.81-4.33-1.38-.7-.3-1.39-.62-2.05-.99-.66-.38-1.3-.8-1.8-1.37 7.11 2.32 21.82 1.27 34.9-.08 11.96-1.24 23.94-2.03 35.97-2.06 12.1.03 24.1.82 36 2.06 13.1 1.35 27.8 2.4 34.9.08-.5.57-1.1.99-1.8 1.37-.6.37-1.3.69-2 .99-1.4.57-2.9 1.02-4.4 1.38l-.6.15c7.1 1.32 11.2 2.39 11.6 2.51l-1.8 7.18c.3-.17.7-.33 1.1-.51l1.1-.51c.1-.08.3-.17.5-.26l.1-.29c.2-.25.3-.51.4-.77.3-.52.5-1.06.7-1.61.4-1.09.8-2.22 1.1-3.37.6-2.29 1.1-4.66 1.4-7.04s.5-4.78.4-7.19c0-1.2 0-2.4-.1-3.59-.1-.6-.1-1.19-.2-1.78 0-.42-.1-.86-.2-1.26-1.6-1.34-3.4-2.53-5.3-3.61-2-1.19-4.1-2.25-6.3-3.24-2.2-1.02-4.4-1.95-6.6-2.85-1.1-.45-2.2-.89-3.4-1.3-1.1-.44-2.2-.85-3.4-1.27 2.4.4 4.8.94 7.1 1.55 1.6.39 3.1.84 4.6 1.31-10.7-28.05-36.4-46.31-64.4-46.31-28.02 0-53.66 18.26-64.39 46.31 1.51-.47 3.03-.92 4.55-1.31 2.35-.61 4.71-1.15 7.1-1.55-1.14.42-2.27.83-3.4 1.27-1.12.41-2.25.85-3.37 1.3zM188.1 78.06c.1 2.58.1 5.16-.2 7.73s-.8 5.11-1.4 7.62c-.4 1.26-.8 2.49-1.3 3.72-.2.62-.5 1.23-.8 1.84-.1.3-.3.6-.4.91l-.3.42c-.1.2-.2.3-.3.5l-.3.4-.4.3c-.4.2-.8.3-1.2.5l-1.1.5c-.8.4-1.6.7-2.3 1-.6.2-1 .4-1.5.6l-1.3 4.8s-.4-.1-1.1-.2l-.1.5c1.4.7 4.2 2.2 5.1 3 1.9 1.6 2.1 4.1 1.7 8.7-.3 2.4-1 7-2.1 11.3-1.9 7.4-3 8.2-4.3 8.6-.6.1-1.6.3-2.6.3-2 0-4.8.1-6.6-.4-.5 1.7-1.8 6.1-4.5 11.5.1-.1.3-.1.4-.2 3.3-1.7 9.6-4.5 9.9-4.6l5-2.2-2.6 4.9c0 .1-5.5 10.4-8.9 17.1-3.3 6.7-9.6 8.2-13.3 9-.6.1-1.1.3-1.6.4-2.7.7-8.1 2-12.9 3.2h-.2c-2.9 1.9-6.2 3.5-9.7 4.8-12.9 4.9-26.5 4.6-38.82.1-2 .3-4.63.6-8.14 1-1.53.2-3.01.2-4.42.2-11.75 0-17.97-5.9-22.52-11.8-4.86-6.2-10.82-15.5-11.07-15.9l-3.45-5.4 5.83 2.6c2.8 1.3 11.1 5.1 13.47 6.2.19 0 .38-.1.57-.1-3.95-5.7-7.18-12.1-9.47-19.2-1.95.6-4.94 1.1-7.27 1.1-.85 0-1.62-.1-2.2-.2-1.31-.3-2.79-1.6-4.81-8.7-1.18-4.2-2.05-8.7-2.31-11-.5-4.5-.41-7 1.47-8.5 1.14-1 4.97-3 5.77-3.4l-.17-1.4c-12.18 7.2-19.48 13.5-19.63 13.6l-8.71 7.6 6.21-9.7c4.91-7.8 10.58-14.1 15.8-18.9-.22-.1-.42-.2-.63-.3l-1.15-.5c-.4-.2-.75-.3-1.19-.5l-.41-.3-.26-.4c-.14-.2-.21-.3-.31-.5l-.25-.42c-.16-.31-.32-.61-.46-.91a26.8 26.8 0 0 1-.79-1.84c-.48-1.22-.89-2.46-1.24-3.71-.69-2.52-1.17-5.06-1.44-7.63-.28-2.57-.36-5.15-.23-7.73.07-1.29.2-2.58.37-3.86.1-.64.19-1.28.32-1.92.13-.65.26-1.26.46-1.97l.14-.5.35-.28c2.04-1.6 4.23-2.8 6.46-3.87 1.83-.86 3.7-1.62 5.59-2.32 5.26-14.61 14.31-27.56 26.21-36.59 12.3-9.33 26.76-14.27 41.83-14.27 15.1 0 29.5 4.94 41.8 14.27 11.9 9.03 21 21.99 26.2 36.59 1.9.7 3.8 1.45 5.6 2.32 2.3 1.07 4.4 2.28 6.5 3.87l.3.28.2.5c.2.71.3 1.32.4 1.97.2.64.3 1.28.3 1.92.2 1.28.4 2.57.4 3.86zm-10.6 42.54c.4-4.5 0-5.4-.4-5.8-.5-.4-2-1.3-3.5-2.1l-2.5 17.3c0 .3-.2.6-.5.8l-3.5 2.5c-.3 1.4-.4 2.1-.7 3.4 2 .5 5.3.9 6.9.6 1.4-1.6 3.7-11.2 4.2-16.7zm-4.6-15.6 2.7-10.03c-3.9-.87-10.9-2.32-20.5-3.68-4.9 3.53-10.3 6.34-15.5 8.59 16.1 1.52 27.9 3.92 33.3 5.12zm-4.1 24.1 3-21c-1.4-.3-3.1-.6-5.1-1l-2.7 19c-.1.3-.2.6-.5.8l-10.2 7.1c-.2.2-.5.3-.8.2l-30.6-3.5c-.5 0-.9-.4-1.1-.8l-5.5-18.2c-1.5-.4-5.3-1.2-8.6-1.2s-7.12.8-8.59 1.2l-5.52 18.2c-.1.3-.32.6-.6.7-.1.1-.2.1-.31.1l-30.62 6.8c-.1.1-.18.1-.27.1-.25 0-.5-.1-.7-.3l-10.16-7.1c-.28-.2-.47-.5-.52-.8l-2.74-22.2c-1.13.2-2.16.4-3.08.6-.65.3-1.29.7-1.92 1.1l2.9 23.5 14.76 10.3 37.25-8.3 5.52-18.1c.1-.4.5-.8 1-.8 1.4-.3 2.6-.4 3.6-.4s2.3.1 3.6.4c.5 0 .9.4 1 .8l5.7 18.6 37.4 4.3zm-7.2-3.9 2.7-18.6c-7.5-1.3-18.4-3-31.8-4-12.1 4.2-22.2 5.4-22.8 5.5h-.7c3.8.3 7.4 1.4 7.6 1.4.4.1.7.4.9.8l5.4 18.1 29.4 3.3zm2.1 10.5-1.3.9-3.3 2.3-3.7 2.5c-.2.2-.5.3-.8.3l-36.1-4.1-2.6-.3c-.5-.1-.9-.4-1.1-.9l-5.6-18.6c-.9-.1-1.8-.2-2.5-.2s-1.5.1-2.5.2l-5.47 18.1c-.13.4-.48.7-.91.8l-38.47 8.6h-.27c-.25 0-.5-.1-.71-.2l-1.4-1-4.19-2.9v-.1l-1.69-1.1c.12.3.26.7.39 1.1.32 1 3.57 10.3 10.16 19.4 7.05-2.1 13.16-4 15.1-4.6 3.98-6.1 9.64-12.2 13.66-12.4.69-.1 1.41-.1 2.13-.1 1.97 0 3.85.2 5.59.4-1.48-1.4-1.78-3-2-3.7 0 0 5.18 4.1 11.68 3.2 6.5-.8 10.6-4.6 10.6-4.6s0 2.8-2.9 4.9c5.5-1.7 7.8-2.2 9.3-2.2 1.7 0 2.6.7 3.3 1.3.1.1.3.2.4.4 4.3 3.3 9.3 7.3 10.8 8.5 1.7.2 7.2.8 10.6 1.1 2 .2 3.7.4 5.5.4.6 0 1.1-.1 1.6-.1 2.2-4.3 4.3-9.2 6-14.7.2-.9.5-1.8.7-2.6zm-13.3-45.72-.1-.01c-2.9-.22-5.8-.41-8.7-.58-4-.23-8.1-.42-12.1-.59-.2.35-.7 1.04-1.4 1.97-2.2 2.97-6.5 8.43-12.1 13.03 7.9-1.4 21.6-4.91 33.5-13.18.3-.21.6-.43.9-.64zm-26.5.82c.3-.42.6-.82.9-1.19-2.9.3-5.8.72-8.6 1.25-9.5 1.79-18.38 4.77-25.74 7.83 5.21-.25 10.74-.4 16.44-.4 3.4 0 6.8.05 10.1.15 2.8-2.71 5.2-5.47 6.9-7.64zm3.2 90.4c-4-.3-7.7-1.9-10.6-4.8-.1-.2-.3-.3-.4-.5-1.4.3-2.9.5-4.3.6-.7.1-1.3.1-1.9.1h-1.3c-3.9 5.8-12.57 6.9-12.96 7-.36 0-.65.1-1.06.2 4.82 1.3 9.72 1.8 14.62 1.5 4.8-.3 11.2-1.4 17.9-4.1zm-15.4-6.6c.9-.1 1.8-.2 2.8-.3-1.3-1.3-2.3-2.5-3.2-3.4-.4.9-1 2.2-1.7 3.8h.2c.6 0 1.2-.1 1.9-.1zm-3-69.6c1.6-1 3.2-2.1 4.6-3.3-2.1-.1-4.2-.1-6.4-.1-9 0-17.39.4-24.99.9-7.62 3.8-12.29 6.8-12.4 6.9l-7.32 4.9 5.03-7.2c.83-1.2 1.71-2.3 2.62-3.4-8.45.9-15.48 2-20.74 3l2.69 21.8 9.26 6.5 29.4-6.5 5.5-18.2c.09-.3.29-.5.55-.7.09 0 .18-.1.28-.1.17 0 3.11-.9 6.52-1.3zm3.4-16.68c-2.1-.03-4.1-.05-6.2-.06-3 .01-6 .04-9.01.1l-5.55 2.63c-.01.01-.04.02-.08.04-.84.41-8.13 4.09-14.99 10.67 6.15-3.25 15.19-7.47 25.83-10.75 3.2-.97 6.5-1.87 10-2.63zM73.25 99.96c2.88-2.85 5.85-5.21 8.47-7.06-10.11 2.35-19.42 5.8-27.57 9.6 5.31-.9 11.73-1.8 19.1-2.54zm1.91-8.81c3.39-.95 6.88-1.78 10.47-2.48-5.14.19-10.28.43-15.41.72-2.98.16-5.95.36-8.92.59-1.48.11-2.96.23-4.43.39-.42.04-.84.09-1.26.14-3.87 2.32-18.71 11.59-28.9 23.79 9.9-6.8 27.15-17.19 48.45-23.15zM47.83 139.2c-.19-.7-.37-1.3-.55-1.9l-4.57-3.2c-.29-.2-.47-.5-.52-.9l-2.23-18.1c-1.65.9-3.55 2-4.06 2.4-.44.4-.78 1.3-.3 5.6.59 5.4 3.29 15.4 4.74 16.8 1.74.3 5.6-.2 7.49-.7zm-3.37-45.54c-2.59.5-4.69.95-6.25 1.3l.73 2.77c2.05-1.63 3.93-2.99 5.52-4.07z" class="st7"/><filter id="a"><feColorMatrix in="SourceGraphic" result="hue" type="hueRotate" values="-10"/><feColorMatrix in="hue" result="sat" type="saturate" values="2"/></filter><filter id="saturation"><feColorMatrix in="SourceGraphic" type="hueRotate" values="-10" result="hue" /><feColorMatrix in="hue" type="saturate" values="2" result="sat" /></filter></svg>