<svg xmlns="http://www.w3.org/2000/svg" filter="url(#saturation)" viewBox="0 0 500 500"><path fill="#0288d1" d="M46 46v408h408V46H46zm20 20h368v368H66V66zm280.5 171.9c-1 0-2 .1-2.8.2-12.6 1-24.4 6.6-32.4 15.1-4.1 4.3-7.7 10.4-9.5 15.9-2 6.1-1.9 6-1.9 15.5 0 12.1.6 15.1 4.7 23.2 4.2 8.1 10.5 14.8 19.6 20.6 4 2.5 14.3 7.6 22.6 11.2 18.3 7.9 24 11.6 26.7 16.9l1.1 2.2v4.6c0 4.4 0 4.6-.9 6.4-2.1 4.3-6.9 7.7-13.1 9.4-2.4.6-3.5.7-8.7.7-5.1 0-6.4-.1-8.7-.7-4.2-1-7.6-2.5-10.3-4.3-3.3-2.1-9.9-8.7-12.5-12.6-1.2-1.6-2.4-3-2.6-3-.5 0-22.9 12.8-26.8 15.3-1.4.8-1.7 1.2-1.7 1.9 0 1.4 5.2 9.3 9.4 14.2 8.3 9.8 25.1 18.4 40 20.6 5.9.9 15.7 1.1 22.5.6 4.5-.3 9-1.1 13.9-2.6 17.5-5.1 29.5-16.1 34-31 1.8-6.1 2.5-13.6 1.9-20-1.2-13-5.2-22.2-13.1-30.1-7.3-7.4-17.3-13.4-37.2-22.1-17.2-7.5-21.7-10.4-24.2-15.7-2.1-4.6-1.7-10.9 1-14.8 3.2-4.6 9.6-6.8 16.8-5.9 6.6.9 10.9 3.5 15.2 9.3 2.2 3 3.7 4.6 4.4 4.6s3.8-1.9 13.5-8.3c9.8-6.5 12.8-8.7 13.1-9.4.3-1-1.3-3.4-5.7-9-9.1-11-19.7-16.9-33.3-18.4-3.3-.3-7.8-.5-11.7-.5-1.1 0-2.3-.1-3.3 0zm-132.6 1.8c-53.3.1-65.6.2-65.9.5-.4.3-.4 3.6-.4 15.8v15.3l48.4.2V340c0 37.7 0 68.8.2 69.2l.1.7h17.6c15.8 0 17.6 0 17.8-.5.1-.2.2-31.4.2-69.2v-68.7l48.4-.2v-15.5c0-13.5-.1-15.6-.5-15.8-.2-.2-14.1-.3-38.3-.3h-27.6z"/><filter id="a"><feColorMatrix in="SourceGraphic" result="hue" type="hueRotate" values="-10"/><feColorMatrix in="hue" result="sat" type="saturate" values="2"/></filter><filter id="saturation"><feColorMatrix in="SourceGraphic" type="hueRotate" values="-10" result="hue" /><feColorMatrix in="hue" type="saturate" values="2" result="sat" /></filter></svg>