<svg xmlns="http://www.w3.org/2000/svg" filter="url(#saturation)" viewBox="0 0 140.62 140.62"><path fill="#1565c0" d="m70.279 132.03 23.288-13.38 36.473-89.262V18.085l-27.15 15.787v9.54L81.151 90.276l-10.872 7.462zM59.472 92.335l10.807-5.404V73.293L54.023 35.325V24.576l-.109-.064-16.173 9.36v9.54z"/><path fill="#2979ff" d="M86.62 24.46v10.87L70.28 73.29v12.74l-10.81 6.3-21.73-48.92v-9.55l16.28-9.38L26.88 8.577 10.59 18.08v11.65l36.66 88.97L70.28 132V98.64l10.87-6.31-.13-.12 21.88-48.8v-9.55L130 18.08l-16.2-9.505z"/><filter id="a"><feColorMatrix in="SourceGraphic" result="hue" type="hueRotate" values="-10"/><feColorMatrix in="hue" result="sat" type="saturate" values="2"/></filter><filter id="saturation"><feColorMatrix in="SourceGraphic" type="hueRotate" values="-10" result="hue" /><feColorMatrix in="hue" type="saturate" values="2" result="sat" /></filter></svg>