<svg xmlns="http://www.w3.org/2000/svg" filter="url(#saturation)" viewBox="0 0 300 300"><path fill="#0288d1" d="M74.09 12.21 41.3 45.01h20.25V150a88.45 88.45 0 0 0 27.03 63.3H45.01v-20.2l-32.8 32.8 32.8 32.8v-20.2H150v-.1a88.45 88.45 0 0 0 63.3-27V255h-20.2l32.8 32.9 32.8-32.9h-20.3V150a88.45 88.45 0 0 0-26.7-63.34H255v20.24l32.9-32.79L255 41.3v20.25H150a88.45 88.45 0 0 0-63.34 27.02V45.01h20.24l-32.81-32.8zM150 86.63v.03h1A63.35 63.35 0 0 1 213.4 150h-.1v1.1a63.35 63.35 0 0 1-63.3 62.2A63.35 63.35 0 0 1 86.66 150 63.35 63.35 0 0 1 150 86.63z"/><filter id="a"><feColorMatrix in="SourceGraphic" result="hue" type="hueRotate" values="-10"/><feColorMatrix in="hue" result="sat" type="saturate" values="2"/></filter><filter id="saturation"><feColorMatrix in="SourceGraphic" type="hueRotate" values="-10" result="hue" /><feColorMatrix in="hue" type="saturate" values="2" result="sat" /></filter></svg>