<svg xmlns="http://www.w3.org/2000/svg" filter="url(#saturation)" viewBox="0 0 24 24"><path fill="#f05223" d="M4.029 3c-.273 0-.533.109-.726.303A1.03 1.03 0 0 0 3 4.031v4.135c1.548-1.189 3.562-1.959 5.947-1.959 5.113.004 8.353 3.575 8.353 8.083 0 3.13-1.46 5.48-3.75 6.71h6.42c.27 0 .54-.11.73-.3.19-.2.3-.46.3-.73V4.031A1.03 1.03 0 0 0 19.97 3H4.029zm4.442 5.227C6.114 8.262 4.266 9.179 3 10.49v3.17C3.918 11 6.446 9.788 8.564 9.809c2.646.027 4.686 2.021 4.706 4.281.01 2.16-.9 3.75-3.334 4.14-1.33.21-3.412-.57-3.319-2.58.046-1.03.855-1.62 1.778-1.58-.904 1.22.292 2.11 1.138 1.92 1.047-.22 1.477-1.15 1.477-1.87 0-.77-.72-2-2.5-1.95-2.204.05-3.592 1.63-3.639 3.6-.056 2.47 2.254 4.09 4.623 4.12 3.476.04 5.546-2.24 5.536-5.59 0-3.03-2.43-5.944-6.083-6.07a9.472 9.472 0 0 0-.476-.003zM3 17.72v2.25c0 .27.11.53.303.73.193.19.453.3.726.3h1.838C4.474 20.21 3.49 19 3 17.72z"/><filter id="a"><feColorMatrix in="SourceGraphic" result="hue" type="hueRotate" values="-10"/><feColorMatrix in="hue" result="sat" type="saturate" values="2"/></filter><filter id="saturation"><feColorMatrix in="SourceGraphic" type="hueRotate" values="-10" result="hue" /><feColorMatrix in="hue" type="saturate" values="2" result="sat" /></filter></svg>