<svg xmlns="http://www.w3.org/2000/svg" filter="url(#saturation)" viewBox="0 0 300 300"><path fill="#7c4dff" d="M29.628 29.699v240.7h240.88v-240.7h-92.836v1.3c0 15.297-12.527 27.67-27.739 27.603-15.211-.045-27.515-12.386-27.515-27.602v-1.301zm55.88 129.7h15.883l10.961 58.095h.224l13.198-58.095h14.764l11.856 58.789h.224l12.527-58.789h15.659l-20.357 85.297h-15.882l-11.633-58.005h-.224l-12.75 58.005h-16.107zm113.19 0h25.278l25.055 85.297h-16.554l-5.593-18.992h-28.633L194 244.696h-15.882zm9.619 21.05-6.935 31.296h21.699l-8.053-31.296z"/><filter id="a"><feColorMatrix in="SourceGraphic" result="hue" type="hueRotate" values="-10"/><feColorMatrix in="hue" result="sat" type="saturate" values="2"/></filter><filter id="saturation"><feColorMatrix in="SourceGraphic" type="hueRotate" values="-10" result="hue" /><feColorMatrix in="hue" type="saturate" values="2" result="sat" /></filter></svg>