<svg xmlns="http://www.w3.org/2000/svg" filter="url(#saturation)" viewBox="0 0 108 108"><path fill="#4caf50" d="M54 10.994A43.006 43.006 0 0 0 10.994 54v36.951c0 3.355 2.7 6.056 6.056 6.056h36.948a43.006 43.006 0 0 0 .003 0A43.006 43.006 0 0 0 97.007 54 43.006 43.006 0 0 0 54 10.995zm0 11.349A31.657 31.657 0 0 1 85.657 54 31.657 31.657 0 0 1 54 85.657 31.657 31.657 0 0 1 22.343 54 31.657 31.657 0 0 1 54 22.343z"/><filter id="a"><feColorMatrix in="SourceGraphic" result="hue" type="hueRotate" values="-10"/><feColorMatrix in="hue" result="sat" type="saturate" values="2"/></filter><filter id="saturation"><feColorMatrix in="SourceGraphic" type="hueRotate" values="-10" result="hue" /><feColorMatrix in="hue" type="saturate" values="2" result="sat" /></filter></svg>