<svg xmlns="http://www.w3.org/2000/svg" filter="url(#saturation)" viewBox="0 0 24 24"><path fill="#212121" d="M22.1 11.99a10.09 10.09 0 0 1-10.09 10.09A10.09 10.09 0 0 1 1.92 11.99 10.09 10.09 0 0 1 12.01 1.9 10.09 10.09 0 0 1 22.1 11.99z"/><path fill="#e53935" d="M22.11 11.98c0 3.48-1.79 6.72-4.74 8.57l-3.47-4.32 2.87.31s1.38.15 1.7 0c.28-.11 1.84-2.29 1.84-2.29s-4.46-2.82-5.98-4.37c.17-2.616-.21-6.094-.21-6.065-1.11 1.119-1.26 1.293-2.38 2.327-.49-1.58-.72-2.126-1.2-3.707-1.471 1.207-2.59 3.248-3.395 5.634a9.722 9.722 0 0 0-.513.618 14.039 14.039 0 0 0-.945 1.413c-.14.24-.278.48-.412.73-.934 1.76-1.701 3.77-2.366 5.58-.004-.01-.008-.02-.011-.02A10.117 10.117 0 0 1 15.69 2.555a10.108 10.108 0 0 1 6.42 9.425z"/><path fill="#fff" d="M12.29 8.383s-.18-1.006-.29-1.378c.78-.749.89-.863 1.64-1.58.06 1.435.02 2.183-.06 3.936-.43-.432-1.3-.978-1.3-.978zM8.925 13.33s-.805-.5-1.408-.58c.173-.4.632-.92.749-1.06-.232.08-1.897.83-2.072 1.46.472.12.933.28 1.381.46a4.379 4.379 0 0 0-1.064 2.45s2.644-.4 4.629-.15c.03.03.07.03.11.03l1.03.03 3.3 5.47.02.05h-.01c-6.196 2.24-10.676-1.88-11.632-3.32a.404.404 0 0 1 .01-.05c.86-3.64 1.921-7.99 3.636-9.275.891-1.554 1.15-3.853 2.756-5.059.4 1.206 1.04 3.708 1.47 4.914 1.89 1.9 4.77 4.25 6.69 5.22.21.13.46.93.46.93l-.77.98-8.279-.84c-.186-.01-.371-.02-.555-.02-.576.01-1.149.07-1.715.17.401-1.01 1.264-1.81 1.264-1.81zm2.675-1.07c.46-.06.95.11 1.49.44.52-.15.57-.18 1.09-.33-.66-.48-1.38-1-2.35-.85-.1.24-.17.49-.23.74z"/><filter id="a"><feColorMatrix in="SourceGraphic" result="hue" type="hueRotate" values="-10"/><feColorMatrix in="hue" result="sat" type="saturate" values="2"/></filter><filter id="saturation"><feColorMatrix in="SourceGraphic" type="hueRotate" values="-10" result="hue" /><feColorMatrix in="hue" type="saturate" values="2" result="sat" /></filter></svg>